<svg width="54" height="26" viewBox="0 0 54 26" fill="none" xmlns="http://www.w3.org/2000/svg">
<path d="M1.74219 2.87598H13.1305" stroke="#C8102E" stroke-width="1.5" stroke-miterlimit="10" stroke-linecap="round" stroke-linejoin="round"/>
<path d="M7.50293 1V6.09126" stroke="#C8102E" stroke-width="1.5" stroke-miterlimit="10" stroke-linecap="round" stroke-linejoin="round"/>
<path d="M7.50285 13.4598C6.02907 13.4598 4.82324 12.2539 4.82324 10.7801V6.09082H10.1825V10.7801C10.0485 12.2539 8.97664 13.4598 7.50285 13.4598Z" stroke="#C8102E" stroke-width="1.5" stroke-miterlimit="10" stroke-linecap="round" stroke-linejoin="round"/>
<path d="M10.0488 9.70801H27.0644" stroke="#C8102E" stroke-width="1.5" stroke-miterlimit="10" stroke-linecap="round" stroke-linejoin="round"/>
<path d="M52.3862 2.87598H41.1318" stroke="#C8102E" stroke-width="1.5" stroke-miterlimit="10" stroke-linecap="round" stroke-linejoin="round"/>
<path d="M46.7588 1V6.09126" stroke="#C8102E" stroke-width="1.5" stroke-miterlimit="10" stroke-linecap="round" stroke-linejoin="round"/>
<path d="M46.7597 13.4598C48.2335 13.4598 49.4393 12.2539 49.4393 10.7801V6.09082H44.0801V10.7801C44.0801 12.2539 45.2859 13.4598 46.7597 13.4598Z" stroke="#C8102E" stroke-width="1.5" stroke-miterlimit="10" stroke-linecap="round" stroke-linejoin="round"/>
<path d="M44.08 9.70801H27.0645" stroke="#C8102E" stroke-width="1.5" stroke-miterlimit="10" stroke-linecap="round" stroke-linejoin="round"/>
<path d="M36.577 9.70801H17.5518V19.0867H36.577V9.70801Z" stroke="#C8102E" stroke-width="1.5" stroke-miterlimit="10" stroke-linecap="round" stroke-linejoin="round"/>
<path d="M17.5513 19.0869L14.4697 24.9821" stroke="#C8102E" stroke-width="1.5" stroke-miterlimit="10" stroke-linecap="round" stroke-linejoin="round"/>
<path d="M36.5762 19.0869L39.6577 24.9821" stroke="#C8102E" stroke-width="1.5" stroke-miterlimit="10" stroke-linecap="round" stroke-linejoin="round"/>
</svg>
