<svg width="38" height="30" viewBox="0 0 38 30" fill="none" xmlns="http://www.w3.org/2000/svg">
<path d="M8.08895 1C4.14812 1 1.05176 4.26904 1.05176 8.1066V8.24873V8.39086V26.868C1.05176 28.0051 2.03696 29 3.16291 29C4.28886 29 5.27407 28.0051 5.27407 26.868V14.6447C6.11853 15.0711 7.10374 15.2132 8.08895 15.2132C12.0298 15.2132 15.1261 11.9442 15.1261 8.1066C15.1261 4.26904 12.0298 1 8.08895 1Z" stroke="#C8102E" stroke-width="1.5" stroke-miterlimit="10" stroke-linecap="round" stroke-linejoin="round"/>
<path d="M30.1857 1C34.1265 1 37.2229 4.26904 37.2229 8.1066V8.24873V8.39086V26.868C37.2229 28.0051 36.2377 29 35.1117 29C33.9858 29 33.0006 28.0051 33.0006 26.868V14.6447C32.1561 15.0711 31.1709 15.2132 30.1857 15.2132C26.2449 15.2132 23.1485 11.9442 23.1485 8.1066C23.1485 4.26904 26.2449 1 30.1857 1Z" stroke="#C8102E" stroke-width="1.5" stroke-miterlimit="10" stroke-linecap="round" stroke-linejoin="round"/>
</svg>
