<svg width="51" height="34" viewBox="0 0 51 34" fill="none" xmlns="http://www.w3.org/2000/svg">
<path d="M40.9 7.0498C40.9 4.5498 40.9 2.7498 40.9 2.5498C40.9 1.5498 39.6 1.5498 39.6 1.5498H21.2H2.8C2.8 1.5498 1.5 1.5498 1.5 2.5498C1.5 3.5498 1.5 27.1498 1.5 27.1498C1.5 27.1498 1.7 28.1498 2.5 28.1498C3.3 28.1498 21.1 28.1498 21.1 28.1498C21.1 28.1498 30.1 28.1498 35.6 28.1498" stroke="#C8102E" stroke-width="1.5" stroke-miterlimit="10" stroke-linecap="round" stroke-linejoin="round"/>
<path d="M25.5 28.1494H21.3H17C17 32.0494 14.5 32.4494 14.5 32.4494H21.2H28C28 32.4494 25.5 32.0494 25.5 28.1494Z" stroke="#C8102E" stroke-width="1.5" stroke-miterlimit="10" stroke-linecap="round" stroke-linejoin="round"/>
<path d="M49.8998 7.0498H35.7998V32.4498H49.8998V7.0498Z" stroke="#C8102E" stroke-width="1.5" stroke-miterlimit="10" stroke-linecap="round" stroke-linejoin="round"/>
</svg>
