<?xml version="1.0" standalone="no"?>
<!DOCTYPE svg PUBLIC "-//W3C//DTD SVG 1.1//EN" "http://www.w3.org/Graphics/SVG/1.1/DTD/svg11.dtd" >
<svg xmlns="http://www.w3.org/2000/svg" xmlns:xlink="http://www.w3.org/1999/xlink" version="1.1">
<metadata></metadata>
<defs>
<font id="geometria_narrowregular" horiz-adv-x="1138" >
<font-face units-per-em="2048" ascent="1589" descent="-459" />
<missing-glyph horiz-adv-x="471" />
<glyph unicode="ij" horiz-adv-x="948" d="M125 1323q0 46 33.5 79.5t79.5 33.5t79 -33.5t33 -79.5t-33 -79.5t-79 -33.5t-79.5 33.5t-33.5 79.5zM162 0v993h153v-993h-153zM334 -244q65 -35 133 -35q75 0 113 42.5t38 142.5v1087h154v-1069q0 -171 -68.5 -256.5t-199.5 -85.5q-114 0 -170 39v135zM582 1323 q0 46 33 79.5t79 33.5t79.5 -33.5t33.5 -79.5t-33.5 -79.5t-79.5 -33.5t-79 33.5t-33 79.5z" />
<glyph unicode="&#xfb01;" horiz-adv-x="1097" d="M45 856v137h166v137q0 149 64 234.5t198 85.5q103 0 186 -35v-135q-86 33 -143 33q-151 0 -151 -178v-142h569v-993h-154v856h-415v-856h-154v856h-166zM743 1323q0 46 33.5 79.5t79.5 33.5t79.5 -33.5t33.5 -79.5t-33.5 -79.5t-79.5 -33.5t-79.5 33.5t-33.5 79.5z" />
<glyph unicode="&#xfb02;" horiz-adv-x="1165" d="M45 856v137h166v137q0 149 64 234.5t198 85.5q103 0 186 -35v-135q-86 33 -143 33q-151 0 -151 -178v-142h415v441h154v-1184q0 -70 26 -98.5t80 -28.5q48 0 78 20v-139q-60 -29 -129 -29q-209 0 -209 242v639h-415v-856h-154v856h-166z" />
<glyph horiz-adv-x="0" />
<glyph horiz-adv-x="682" />
<glyph unicode=" "  horiz-adv-x="471" />
<glyph unicode="&#x09;" horiz-adv-x="471" />
<glyph unicode="&#xa0;" horiz-adv-x="471" />
<glyph unicode="!" horiz-adv-x="522" d="M145 102q0 47 34 81t81 34t81 -34t34 -81t-34 -80.5t-81 -33.5t-81 33.5t-34 80.5zM162 1434h198l-30 -990h-137z" />
<glyph unicode="&#x22;" horiz-adv-x="645" d="M90 905v529h135v-529h-135zM424 905v529h135v-529h-135z" />
<glyph unicode="#" horiz-adv-x="1304" d="M61 387l19 127h256l55 404h-256l19 129h256l53 387h123l-54 -387h336l52 387h122l-53 -387h258l-20 -129h-256l-53 -404h256l-19 -127h-258l-51 -387h-125l55 387h-338l-51 -387h-123l55 387h-258zM459 514h336l55 404h-338z" />
<glyph unicode="$" horiz-adv-x="1118" d="M86 119v164q78 -70 189.5 -113t246.5 -43q142 0 238 70t96 186q0 51 -17.5 92t-43.5 69t-71 53.5t-86 41t-103 35.5q-94 31 -140 48.5t-113.5 53.5t-99 73.5t-56 98t-24.5 137.5q0 149 97 249t272 120v209h154v-209q180 -15 311 -106v-162q-77 56 -180.5 88.5 t-204.5 32.5q-142 0 -215.5 -63t-73.5 -157q0 -100 76.5 -155t286.5 -121q64 -20 115.5 -41.5t105 -57.5t89 -79t58.5 -106t23 -138q0 -173 -109.5 -279.5t-281.5 -127.5v-211h-154v209q-122 9 -228 48.5t-157 90.5z" />
<glyph unicode="%" horiz-adv-x="1458" d="M70 1114q0 146 87 245t218 99q132 0 219.5 -99t87.5 -245q0 -147 -87 -246.5t-220 -99.5q-131 0 -218 99.5t-87 246.5zM182 1114q0 -102 54 -166.5t139 -64.5t138.5 64t53.5 167q0 101 -53.5 165t-138.5 64t-139 -64t-54 -165zM303 0l731 1434h121l-731 -1434h-121z M774 319q0 147 87 247t220 100q131 0 218 -100t87 -247q0 -146 -87 -245t-218 -99q-132 0 -219.5 99t-87.5 245zM889 319q0 -101 53.5 -165t138.5 -64t139 64t54 165q0 103 -54 167.5t-139 64.5t-138.5 -64.5t-53.5 -167.5z" />
<glyph unicode="&#x26;" horiz-adv-x="1296" d="M84 432q0 80 23.5 152.5t60 123t75.5 85t76 51.5q-81 117 -81 262q0 154 99 253t255 99q177 0 303 -96v-162q-134 117 -274 117q-106 0 -168 -59t-62 -160q0 -41 13.5 -82t44 -85.5t48.5 -68t58 -69.5l369 -431q93 166 96 406h147q0 -309 -137 -516l232 -252h-199 l-129 145q-163 -170 -389 -170q-91 0 -173.5 29.5t-147 85t-102.5 144t-38 198.5zM236 434q0 -147 89 -232t222 -85q176 0 282 133l-419 483q-69 -28 -121.5 -108.5t-52.5 -190.5z" />
<glyph unicode="'" horiz-adv-x="311" d="M90 905v529h135v-529h-135z" />
<glyph unicode="(" horiz-adv-x="655" d="M158 512q0 554 262 934h162q-283 -402 -283 -934t283 -934h-162q-262 380 -262 934z" />
<glyph unicode=")" horiz-adv-x="655" d="M74 -422q282 401 282 934t-282 934h162q262 -380 262 -934t-262 -934h-162z" />
<glyph unicode="*" horiz-adv-x="837" d="M70 930l237 135l-237 135l59 100l236 -139l-3 273h117l-4 -273l236 139l57 -100l-238 -135l238 -135l-57 -101l-236 138l4 -273h-117l3 273l-236 -138z" />
<glyph unicode="+" horiz-adv-x="1110" d="M121 596v143h362v422h142v-422h362v-143h-362v-420h-142v420h-362z" />
<glyph unicode="," horiz-adv-x="432" d="M31 -311l143 530h176l-196 -530h-123z" />
<glyph unicode="-" horiz-adv-x="872" d="M180 485v146h512v-146h-512z" />
<glyph unicode="." horiz-adv-x="442" d="M106 102q0 47 34 81t81 34t81 -34t34 -81t-34 -80.5t-81 -33.5t-81 33.5t-34 80.5z" />
<glyph unicode="/" horiz-adv-x="917" d="M0 -287l750 1909h157l-749 -1909h-158z" />
<glyph unicode="0" horiz-adv-x="1255" d="M113 717q0 207 61 374.5t179.5 267t275.5 99.5t275.5 -99.5t179.5 -267t61 -374.5t-61 -374.5t-179.5 -267.5t-275.5 -100t-275.5 100t-179.5 267.5t-61 374.5zM270 717q0 -168 43 -301.5t125.5 -211t190.5 -77.5t190 77.5t125 211t43 301.5t-43 301.5t-125 211 t-190 77.5t-190.5 -77.5t-125.5 -211t-43 -301.5z" />
<glyph unicode="1" horiz-adv-x="669" d="M53 1073v160l295 201h137v-1434h-153v1257z" />
<glyph unicode="2" horiz-adv-x="1024" d="M76 0v121l409 450q136 149 191 245.5t55 213.5q0 124 -74.5 200.5t-199.5 76.5q-109 0 -193 -46.5t-160 -132.5v175q148 155 367 155q181 0 298.5 -112.5t117.5 -296.5q0 -100 -32.5 -188.5t-85.5 -163t-155 -193.5l-315 -359h635v-145h-858z" />
<glyph unicode="3" horiz-adv-x="1017" d="M72 76v162q145 -115 346 -115q144 0 244 89.5t100 242.5q0 142 -87.5 230.5t-232.5 88.5q-84 0 -147 -24v110l369 430h-541v144h747v-123l-352 -414q176 -14 289 -135t113 -307q0 -143 -65 -253.5t-175 -168.5t-246 -58q-213 0 -362 101z" />
<glyph unicode="4" horiz-adv-x="1128" d="M57 395v125l662 914h153v-897h201v-142h-201v-395h-153v395h-662zM238 537h481v682z" />
<glyph unicode="5" horiz-adv-x="1056" d="M102 68v155q145 -100 334 -100q156 0 256.5 91.5t100.5 238.5q0 140 -93 232.5t-247 92.5q-148 0 -301 -61l84 717h626v-144h-512l-45 -407q79 28 184 28q200 0 330.5 -128t130.5 -330q0 -215 -143.5 -346.5t-362.5 -131.5q-198 0 -342 93z" />
<glyph unicode="6" d="M113 645q0 169 37 316.5t106 258t175 174.5t235 64q154 0 268 -86v-149q-117 86 -254 86q-97 0 -174.5 -48.5t-126 -130.5t-75 -184.5t-28.5 -216.5q56 83 143 134.5t202 51.5q170 0 286.5 -126t116.5 -326q0 -215 -122.5 -351.5t-307.5 -136.5q-224 0 -352.5 176.5 t-128.5 493.5zM270 555q8 -193 89.5 -313.5t226.5 -120.5q122 0 203 95t81 243q0 144 -82 232.5t-204 88.5q-105 0 -189.5 -63.5t-124.5 -161.5z" />
<glyph unicode="7" horiz-adv-x="987" d="M74 1288v146h835v-125l-571 -1309h-156l557 1288h-665z" />
<glyph unicode="8" horiz-adv-x="1146" d="M94 391q0 136 73.5 233t197.5 138q-95 40 -152 123.5t-57 197.5q0 166 118.5 270.5t298.5 104.5t299 -104.5t119 -270.5q0 -114 -57 -197.5t-152 -123.5q124 -41 197.5 -138t73.5 -233q0 -125 -65.5 -221t-174 -145.5t-240.5 -49.5t-240 49.5t-173.5 145.5t-65.5 221z M254 401q0 -122 92.5 -204t226.5 -82t227 82t93 204q0 127 -92 207t-228 80t-227.5 -80t-91.5 -207zM305 1069q0 -110 76.5 -182t191.5 -72t192 72t77 182q0 112 -76.5 182t-192.5 70t-192 -70t-76 -182z" />
<glyph unicode="9" d="M113 971q0 215 122.5 351t307.5 136q224 0 352.5 -176.5t128.5 -493.5q0 -169 -37 -316.5t-106 -258t-175 -174.5t-235 -64q-154 0 -268 86v150q117 -86 254 -86q97 0 174.5 48.5t126 130.5t74.5 184.5t28 216.5q-57 -83 -143 -135t-201 -52q-169 0 -286 126.5 t-117 326.5zM266 975q0 -144 82.5 -233t204.5 -89q105 0 189 64t124 162q-8 193 -89 313.5t-226 120.5q-123 0 -204 -95t-81 -243z" />
<glyph unicode=":" horiz-adv-x="442" d="M106 102q0 47 34 81t81 34t81 -34t34 -81t-34 -80.5t-81 -33.5t-81 33.5t-34 80.5zM106 858q0 47 34 81t81 34t81 -34t34 -81t-34 -81t-81 -34t-81 34t-34 81z" />
<glyph unicode=";" horiz-adv-x="432" d="M31 -311l143 530h176l-196 -530h-123zM135 858q0 47 34 81t81 34t81 -34t34 -81t-34 -81t-81 -34t-81 34t-34 81z" />
<glyph unicode="&#x3c;" horiz-adv-x="1110" d="M121 588v149l866 420v-158l-702 -335l702 -336v-158z" />
<glyph unicode="=" horiz-adv-x="1110" d="M121 362v146h866v-146h-866zM121 831v144h866v-144h-866z" />
<glyph unicode="&#x3e;" horiz-adv-x="1110" d="M121 170v158l702 336l-702 335v158l866 -420v-149z" />
<glyph unicode="?" horiz-adv-x="851" d="M51 1196v143q137 111 332 111q165 0 279 -105t114 -280q0 -77 -28 -144.5t-75.5 -117.5t-103.5 -86.5t-120 -59.5v-211h-150v293q80 19 150.5 59.5t119.5 109t49 149.5q0 114 -73 182t-189 68q-170 0 -305 -111zM262 102q0 47 34 81t81 34t81 -34t34 -81t-34 -80.5 t-81 -33.5t-81 33.5t-34 80.5z" />
<glyph unicode="@" horiz-adv-x="1814" d="M82 563q0 185 64.5 351t174 285t262.5 189t324 70q169 0 321.5 -66t262.5 -178t175 -267.5t65 -328.5q0 -67 -11.5 -133.5t-37.5 -131.5t-64 -114t-96.5 -79.5t-128.5 -30.5q-88 0 -150 39t-94 100q-38 -61 -110 -102t-162 -41q-160 0 -263.5 120t-103.5 316 q0 197 103.5 317.5t263.5 120.5q162 0 249 -122v98h148v-565q0 -105 41 -159t110 -54q103 0 174.5 117t71.5 304q0 212 -100.5 392t-276.5 285.5t-387 105.5q-160 0 -303 -66t-244 -178.5t-160 -267.5t-59 -326t59 -325t160 -266.5t244 -179t303 -66.5q216 0 393 108v-67 q-184 -99 -393 -99q-171 0 -324 70t-262.5 189t-174 285t-64.5 351zM664 561q0 -133 67.5 -216t173.5 -83q73 0 132 36t89 93v340q-30 59 -89 95t-132 36q-106 0 -173.5 -83.5t-67.5 -217.5z" />
<glyph unicode="A" horiz-adv-x="1347" d="M45 0l551 1442h154l553 -1442h-168l-146 387h-633l-143 -387h-168zM410 532h524l-260 705z" />
<glyph unicode="B" horiz-adv-x="1288" d="M166 0v1434h551q166 0 264 -93.5t98 -255.5q0 -112 -48 -190t-124 -111q123 -26 200 -127.5t77 -257.5q0 -181 -111.5 -290t-306.5 -109h-600zM322 150h417q128 0 201.5 71t73.5 199q0 127 -73.5 197.5t-201.5 70.5h-417v-538zM322 831h366q111 0 174.5 60t63.5 168 t-63.5 166.5t-174.5 58.5h-366v-453z" />
<glyph unicode="C" horiz-adv-x="1224" d="M119 717q0 162 48.5 300t133.5 235t205 151.5t260 54.5q201 0 342 -96v-164q-148 109 -338 109q-214 0 -352.5 -165.5t-138.5 -424.5q0 -260 140.5 -425t358.5 -165q208 0 361 135v-166q-158 -121 -373 -121q-138 0 -258 54.5t-205.5 151t-134.5 235.5t-49 301z" />
<glyph unicode="D" horiz-adv-x="1384" d="M166 0v1434h422q302 0 491 -199t189 -518t-189 -518t-491 -199h-422zM322 150h251q249 0 392 153.5t143 413.5t-143 413.5t-392 153.5h-251v-1134z" />
<glyph unicode="E" d="M166 0v1434h870v-150h-714v-442h585v-150h-585v-542h739v-150h-895z" />
<glyph unicode="F" horiz-adv-x="1107" d="M166 0v1434h866v-150h-710v-461h573v-147h-573v-676h-156z" />
<glyph unicode="G" horiz-adv-x="1384" d="M119 717q0 214 83.5 383.5t230.5 263.5t331 94q243 0 391 -123v-159q-159 131 -377 131q-222 0 -360.5 -165t-138.5 -427q0 -261 138.5 -424.5t350.5 -163.5q206 0 326 117v579h155v-645q-84 -91 -208.5 -147t-278.5 -56q-182 0 -328.5 94t-230.5 264t-84 384z" />
<glyph unicode="H" horiz-adv-x="1353" d="M166 0v1434h156v-592h710v592h156v-1434h-156v692h-710v-692h-156z" />
<glyph unicode="I" horiz-adv-x="507" d="M176 0v1434h156v-1434h-156z" />
<glyph unicode="J" horiz-adv-x="903" d="M59 63v164q52 -45 121.5 -72.5t138.5 -27.5q146 0 211.5 80.5t65.5 255.5v971h156v-994q0 -237 -108.5 -351t-295.5 -114q-174 0 -289 88z" />
<glyph unicode="K" horiz-adv-x="1200" d="M166 0v1434h156v-609l567 609h203l-621 -656l717 -778h-215l-651 715v-715h-156z" />
<glyph unicode="L" horiz-adv-x="1064" d="M166 0v1434h156v-1284h688v-150h-844z" />
<glyph unicode="M" horiz-adv-x="1511" d="M166 0v1434h160l432 -678l432 678h156v-1434h-156v1174l-387 -599h-94l-387 599v-1174h-156z" />
<glyph unicode="N" horiz-adv-x="1378" d="M166 0v1434h137l756 -1143v1143h153v-1434h-133l-760 1145v-1145h-153z" />
<glyph unicode="O" horiz-adv-x="1499" d="M119 717q0 214 79.5 383t223.5 263.5t328 94.5q138 0 255.5 -55.5t199.5 -153t128.5 -235t46.5 -297.5q0 -214 -79 -383t-223 -264t-328 -95t-328 95t-223.5 264t-79.5 383zM279 717q0 -259 132 -424.5t339 -165.5t339 165.5t132 424.5t-132 424.5t-339 165.5 t-339 -165.5t-132 -424.5z" />
<glyph unicode="P" horiz-adv-x="1181" d="M166 0v1434h530q191 0 298.5 -110.5t107.5 -291.5q0 -182 -107.5 -292.5t-298.5 -110.5h-374v-629h-156zM322 778h362q123 0 191.5 65.5t68.5 188.5q0 122 -68.5 187t-191.5 65h-362v-506z" />
<glyph unicode="Q" horiz-adv-x="1499" d="M119 717q0 214 79.5 383t223.5 263.5t328 94.5q138 0 255.5 -55.5t199.5 -153t128.5 -235t46.5 -297.5q0 -254 -110 -441.5t-299 -259.5q110 -135 217 -135q87 0 149 45v-151q-76 -43 -174 -43q-93 0 -179 61t-189 184q-14 -2 -45 -2q-184 0 -328 95t-223.5 264 t-79.5 383zM279 717q0 -259 132 -424.5t339 -165.5t339 165.5t132 424.5t-132 424.5t-339 165.5t-339 -165.5t-132 -424.5z" />
<glyph unicode="R" horiz-adv-x="1308" d="M166 0v1434h565q187 0 293 -108.5t106 -285.5q0 -149 -75 -252.5t-209 -130.5l399 -657h-188l-389 641h-346v-641h-156zM322 784h397q119 0 185.5 65.5t66.5 186.5q0 118 -66.5 183t-185.5 65h-397v-500z" />
<glyph unicode="S" horiz-adv-x="1118" d="M86 119v164q78 -70 189.5 -113t246.5 -43q142 0 238 70t96 186q0 51 -17.5 92t-43.5 69t-71 53.5t-86 41t-103 35.5q-94 31 -140 48.5t-113.5 53.5t-99 73.5t-56 98t-24.5 137.5q0 164 117.5 268.5t323.5 104.5q243 0 393 -110v-162q-77 56 -180.5 88.5t-204.5 32.5 q-142 0 -215.5 -63t-73.5 -157q0 -100 76.5 -155t286.5 -121q64 -20 115.5 -41.5t105 -57.5t89 -79t58.5 -106t23 -138q0 -130 -65.5 -225.5t-172.5 -142t-239 -46.5q-139 0 -267 43t-186 101z" />
<glyph unicode="T" horiz-adv-x="1126" d="M61 1284v150h1006v-150h-426v-1284h-156v1284h-424z" />
<glyph unicode="U" horiz-adv-x="1325" d="M147 567v867h156v-871q0 -221 97 -328.5t262 -107.5t261.5 107.5t96.5 328.5v871h156v-867q0 -152 -39 -267.5t-109.5 -185.5t-162 -104.5t-203.5 -34.5t-204 34.5t-162.5 104.5t-109.5 185.5t-39 267.5z" />
<glyph unicode="V" horiz-adv-x="1343" d="M55 1434h172l447 -1219l448 1219h168l-542 -1442h-150z" />
<glyph unicode="W" horiz-adv-x="1886" d="M61 1434h177l325 -1178l318 1180h127l315 -1180l330 1178h172l-430 -1442h-140l-311 1165l-313 -1165h-142z" />
<glyph unicode="X" horiz-adv-x="1263" d="M41 0l498 776l-418 658h184l328 -525l328 525h182l-420 -656l500 -778h-187l-405 645l-408 -645h-182z" />
<glyph unicode="Y" horiz-adv-x="1193" d="M35 1434h182l383 -629l383 629h178l-487 -775v-659h-156v655z" />
<glyph unicode="Z" horiz-adv-x="1142" d="M82 0v115l754 1169h-715v150h911v-113l-751 -1171h780v-150h-979z" />
<glyph unicode="[" horiz-adv-x="702" d="M162 -422v1868h471v-127h-332v-1614h332v-127h-471z" />
<glyph unicode="\" horiz-adv-x="915" d="M12 1622h158l750 -1909h-158z" />
<glyph unicode="]" horiz-adv-x="702" d="M68 -295h331v1614h-331v127h473v-1868h-473v127z" />
<glyph unicode="^" horiz-adv-x="931" d="M88 707l305 766h146l305 -766h-148l-229 618l-231 -618h-148z" />
<glyph unicode="_" horiz-adv-x="1114" d="M12 -152h1090v-112h-1090v112z" />
<glyph unicode="`" horiz-adv-x="931" d="M283 1454h190l172 -276h-143z" />
<glyph unicode="a" horiz-adv-x="1058" d="M72 305q0 99 53.5 173.5t136 111.5t178.5 37q94 0 157.5 -21.5t125.5 -60.5v94q0 240 -266 240q-75 0 -152.5 -24.5t-126.5 -59.5v145q118 78 311 78q176 0 280.5 -91t104.5 -274v-413q0 -57 21 -86t59 -29q35 0 52 12v-123q-33 -26 -97 -26q-63 0 -109 33t-63 98 q-126 -144 -321 -144q-143 0 -243.5 90t-100.5 240zM225 311q0 -98 67.5 -147t166.5 -49q83 0 151 35.5t113 91.5v182q-119 84 -246 84q-110 0 -181 -54.5t-71 -142.5z" />
<glyph unicode="b" horiz-adv-x="1134" d="M145 0v1434h154v-570q112 154 317 154q191 0 313 -144t122 -378t-122 -377.5t-313 -143.5q-205 0 -317 154v-129h-154zM299 291q36 -77 113 -126.5t170 -49.5q136 0 225.5 106t89.5 275t-89.5 276t-225.5 107q-93 0 -170 -50t-113 -127v-411z" />
<glyph unicode="c" horiz-adv-x="929" d="M82 498q0 224 134.5 372t338.5 148q144 0 256 -60v-139q-63 33 -113.5 46.5t-115.5 13.5q-150 0 -248 -106.5t-98 -276.5q0 -168 99.5 -274.5t246.5 -106.5q74 0 128.5 15.5t114.5 51.5v-135q-123 -72 -272 -72q-203 0 -337 148t-134 375z" />
<glyph unicode="d" horiz-adv-x="1134" d="M84 496q0 234 121.5 378t312.5 144q206 0 318 -154v570h153v-1434h-153v129q-112 -154 -318 -154q-191 0 -312.5 143.5t-121.5 377.5zM238 496q0 -169 89.5 -275t225.5 -106q93 0 170 49.5t113 126.5v411q-36 77 -113 127t-170 50q-136 0 -225.5 -107t-89.5 -276z" />
<glyph unicode="e" horiz-adv-x="1017" d="M82 496q0 231 121.5 376.5t318.5 145.5q87 0 158 -31t117 -81.5t77 -119t44.5 -139.5t13.5 -147v-43h-694q12 -156 109.5 -249t254.5 -93q148 0 266 78v-136q-110 -82 -301 -82q-213 0 -349 143.5t-136 377.5zM240 580h536q-1 40 -9 79.5t-27.5 79.5t-48 70.5t-73 50 t-100.5 19.5q-120 0 -194 -87t-84 -212z" />
<glyph unicode="f" horiz-adv-x="706" d="M45 856v137h166v137q0 149 64 234.5t198 85.5q103 0 186 -35v-135q-86 33 -143 33q-151 0 -151 -178v-142h294v-137h-294v-856h-154v856h-166z" />
<glyph unicode="g" horiz-adv-x="1130" d="M86 508q0 231 120.5 370.5t311.5 139.5q203 0 318 -150v125h153v-923q0 -120 -39 -215.5t-106 -154t-151.5 -88.5t-180.5 -30q-91 0 -182.5 24t-151.5 60v148q65 -43 149.5 -68t168.5 -25q71 0 130.5 19.5t107.5 59.5t75 108t27 158v77q-113 -147 -318 -147 q-191 0 -311.5 140t-120.5 372zM240 508q0 -168 88 -270.5t225 -102.5q93 0 168.5 46t114.5 120v412q-39 74 -114.5 120t-168.5 46q-137 0 -225 -102t-88 -269z" />
<glyph unicode="h" horiz-adv-x="1087" d="M145 0v1434h154v-570q55 64 141.5 109t194.5 45q157 0 240 -94.5t83 -261.5v-662h-153v625q0 245 -227 245q-83 0 -161.5 -46t-117.5 -113v-711h-154z" />
<glyph unicode="i" horiz-adv-x="479" d="M125 1323q0 46 33.5 79.5t79.5 33.5t79 -33.5t33 -79.5t-33 -79.5t-79 -33.5t-79.5 33.5t-33.5 79.5zM162 0v993h153v-993h-153z" />
<glyph unicode="j" horiz-adv-x="491" d="M-113 -244q65 -35 133 -35q76 0 114 42.5t38 142.5v1087h154v-1069q0 -171 -69 -256.5t-200 -85.5q-114 0 -170 39v135zM135 1323q0 46 33.5 79.5t79.5 33.5t79 -33.5t33 -79.5t-33 -79.5t-79 -33.5t-79.5 33.5t-33.5 79.5z" />
<glyph unicode="k" horiz-adv-x="991" d="M145 0v1434h154v-840l389 399h199l-445 -448l506 -545h-209l-440 477v-477h-154z" />
<glyph unicode="l" horiz-adv-x="526" d="M143 217v1217h154v-1184q0 -70 26 -98.5t80 -28.5q48 0 78 20v-139q-60 -29 -129 -29q-209 0 -209 242z" />
<glyph unicode="m" horiz-adv-x="1638" d="M145 0v993h154v-125q51 65 129.5 107.5t175.5 42.5q101 0 170.5 -44.5t102.5 -127.5q129 172 331 172q147 0 225 -92t78 -256v-670h-153v633q0 69 -19 118.5t-51 74t-64.5 34.5t-68.5 10q-77 0 -143.5 -44t-108.5 -115q2 -35 2 -109v-602h-153v633q0 69 -19 118.5t-51 74 t-64.5 34.5t-68.5 10q-75 0 -142 -43t-108 -112v-715h-154z" />
<glyph unicode="n" horiz-adv-x="1087" d="M145 0v993h154v-129q55 64 141.5 109t194.5 45q157 0 240 -94.5t83 -261.5v-662h-153v625q0 245 -227 245q-83 0 -161.5 -46t-117.5 -113v-711h-154z" />
<glyph unicode="o" horiz-adv-x="1105" d="M82 496q0 145 56.5 263t165 188.5t249.5 70.5t249.5 -70.5t165 -188.5t56.5 -263t-56.5 -263t-165 -188t-249.5 -70t-249.5 70t-165 188t-56.5 263zM236 496q0 -169 88 -275t229 -106t229 106t88 275t-88 276t-229 107t-229 -107t-88 -276z" />
<glyph unicode="p" horiz-adv-x="1134" d="M145 -410v1403h154v-129q112 154 317 154q191 0 313 -143t122 -377t-122 -378.5t-313 -144.5q-205 0 -317 154v-539h-154zM299 291q36 -77 113 -126.5t170 -49.5q136 0 225.5 107t89.5 276t-89.5 275t-225.5 106q-93 0 -170 -50t-113 -127v-411z" />
<glyph unicode="q" horiz-adv-x="1134" d="M84 498q0 234 121.5 377t312.5 143q206 0 318 -154v129h153v-1403h-153v539q-112 -154 -318 -154q-191 0 -312.5 144.5t-121.5 378.5zM238 498q0 -169 89.5 -276t225.5 -107q93 0 170 49.5t113 126.5v411q-36 77 -113 127t-170 50q-136 0 -225.5 -106t-89.5 -275z" />
<glyph unicode="r" horiz-adv-x="673" d="M145 0v993h154v-172q42 80 136 138t206 59v-160h-7q-110 0 -208 -58q-102 -60 -127 -145v-655h-154z" />
<glyph unicode="s" horiz-adv-x="905" d="M82 70v155q161 -110 348 -110q103 0 165 43t62 110q0 20 -6 37.5t-14 30t-25.5 24.5t-30.5 19.5t-40 17t-43 14t-51 14.5t-52 15q-75 21 -126 44.5t-92.5 58t-61 83t-19.5 113.5q0 126 95 202.5t264 76.5q197 0 315 -78v-147q-138 86 -305 86q-102 0 -156.5 -41 t-54.5 -103q0 -38 19 -66t55 -46.5t72.5 -30t88.5 -25.5q11 -3 17 -4q72 -19 123.5 -41.5t96 -56.5t67 -84t22.5 -115q0 -132 -104.5 -211.5t-268.5 -79.5q-108 0 -204 28t-156 67z" />
<glyph unicode="t" horiz-adv-x="770" d="M45 856v137h197v303h153v-303h291v-137h-291v-559q0 -93 37 -133.5t111 -40.5q65 0 133 37v-142q-64 -43 -180 -43q-120 0 -187 77t-67 229v575h-197z" />
<glyph unicode="u" horiz-adv-x="1089" d="M131 332v661h154v-624q0 -246 227 -246q82 0 160.5 46.5t118.5 113.5v710h153v-993h-153v129q-55 -64 -141.5 -109t-194.5 -45q-157 0 -240.5 95t-83.5 262z" />
<glyph unicode="v" horiz-adv-x="1015" d="M43 993h170l299 -794l299 794h164l-395 -1001h-142z" />
<glyph unicode="w" horiz-adv-x="1460" d="M59 993h156l227 -762l224 762h127l225 -762l225 762h158l-309 -1001h-138l-227 764l-227 -764h-133z" />
<glyph unicode="x" horiz-adv-x="995" d="M53 0l359 522l-320 471h178l232 -348l233 348h174l-319 -467l360 -526h-178l-272 406l-273 -406h-174z" />
<glyph unicode="y" horiz-adv-x="997" d="M43 993h168l293 -772l280 772h166l-424 -1104q-60 -157 -135.5 -232t-185.5 -75q-94 0 -144 29v141q50 -31 121 -31q83 0 133 69t113 247z" />
<glyph unicode="z" horiz-adv-x="903" d="M63 0v104l543 752h-508v137h711v-108l-541 -748h570v-137h-775z" />
<glyph unicode="{" horiz-adv-x="667" d="M94 449v126q31 3 54.5 15t38.5 33t24 43t13 55.5t5.5 60.5t1.5 66v287q0 149 65.5 230t190.5 81h111v-127h-80q-70 0 -107.5 -47.5t-37.5 -128.5v-336q0 -117 -28.5 -191t-100.5 -104q72 -30 100.5 -104t28.5 -191v-336q0 -81 37.5 -128.5t107.5 -47.5h80v-127h-111 q-125 0 -190.5 81t-65.5 230v287q0 39 -1.5 66t-5.5 60.5t-13 55.5t-24 43t-38.5 33t-54.5 15z" />
<glyph unicode="|" horiz-adv-x="569" d="M215 -227v1783h139v-1783h-139z" />
<glyph unicode="}" horiz-adv-x="667" d="M70 -295h80q70 0 107.5 47.5t37.5 128.5v336q0 117 28.5 191t100.5 104q-72 30 -100.5 104t-28.5 191v336q0 81 -37.5 128.5t-107.5 47.5h-80v127h110q125 0 190.5 -81t65.5 -230v-287q0 -39 1.5 -66t5.5 -60.5t13 -55.5t24 -43t38.5 -33t54.5 -15v-126q-31 -3 -54.5 -15 t-38.5 -33t-24 -43t-13 -55.5t-5.5 -60.5t-1.5 -66v-287q0 -149 -65.5 -230t-190.5 -81h-110v127z" />
<glyph unicode="~" horiz-adv-x="1056" d="M121 420v147q25 37 78 59.5t114 22.5q66 0 140.5 -26t148 -52t137.5 -26q123 0 195 90v-150q-25 -35 -78.5 -57t-116.5 -22q-64 0 -138 26t-148.5 52t-139.5 26q-120 0 -192 -90z" />
<glyph unicode="&#xa1;" horiz-adv-x="522" d="M145 891q0 47 34 81t81 34t81 -34t34 -81t-34 -81t-81 -34t-81 34t-34 81zM160 -410l30 961h138l30 -961h-198z" />
<glyph unicode="&#xa2;" horiz-adv-x="929" d="M82 498q0 201 109.5 343t285.5 171v219h131v-215q110 -9 203 -58v-139q-63 33 -113.5 46.5t-115.5 13.5q-150 0 -248 -106.5t-98 -276.5q0 -168 99.5 -274.5t246.5 -106.5q74 0 128.5 15.5t114.5 51.5v-135q-100 -59 -217 -70v-217h-131v222q-175 28 -285 170t-110 346z " />
<glyph unicode="&#xa3;" horiz-adv-x="1038" d="M100 0v145h37q94 0 94 127v330h-131v141h131v252q0 218 111.5 340.5t306.5 122.5q168 0 289 -82v-155q-116 86 -264 86q-141 0 -214 -85t-73 -251v-228h473v-141h-473v-328q0 -90 -45 -129h612v-145h-854z" />
<glyph unicode="&#xa4;" horiz-adv-x="1140" d="M98 332l133 133q-81 109 -81 254q0 146 81 252l-133 133l86 84l133 -131q113 86 252 86q146 0 252 -86l133 131l88 -84l-135 -133q84 -110 84 -252q0 -144 -82 -254l133 -133l-88 -82l-133 131q-106 -86 -252 -86q-139 0 -252 86l-133 -131zM283 719q0 -121 82.5 -206 t203.5 -85t204 85t83 206t-83 206t-204 85t-203.5 -85t-82.5 -206z" />
<glyph unicode="&#xa5;" horiz-adv-x="1134" d="M35 1434h182l350 -629l357 629h176l-402 -693h318v-131h-371v-186h371v-131h-371v-293h-156v293h-370v131h370v186h-370v131h317z" />
<glyph unicode="&#xa6;" horiz-adv-x="567" d="M215 -227v723h139v-723h-139zM215 834v722h139v-722h-139z" />
<glyph unicode="&#xa7;" horiz-adv-x="1146" d="M100 612q0 102 54.5 175t146.5 112q-137 96 -137 244q0 141 111.5 228t304.5 87q215 0 391 -110v-162q-82 53 -187.5 87t-210.5 34q-118 0 -183.5 -46t-65.5 -124q0 -57 47 -101t93.5 -63.5t158.5 -57.5q23 -8 34 -12q91 -33 155.5 -65.5t121 -77t85 -103.5t28.5 -133 q0 -102 -54.5 -175.5t-146.5 -112.5q137 -93 137 -242q0 -141 -111.5 -228.5t-304.5 -87.5q-217 0 -391 111v160q200 -121 397 -121q118 0 184 46.5t66 125.5q0 34 -15.5 62t-37.5 47.5t-64 40t-77 33.5t-94 34q-30 10 -46 16q-91 32 -155.5 64t-120.5 77t-84.5 104.5 t-28.5 133.5zM248 627q0 -46 23 -84.5t56 -65t87 -53t100 -43t111 -40t104 -40.5q79 22 124.5 76t45.5 131q0 46 -22.5 85.5t-56.5 65.5t-87 52.5t-99.5 43t-110 40t-103.5 41.5q-80 -22 -126 -76.5t-46 -132.5z" />
<glyph unicode="&#xa8;" horiz-adv-x="929" d="M195 1321q0 41 29.5 70.5t70.5 29.5t70.5 -29.5t29.5 -70.5t-29.5 -70.5t-70.5 -29.5t-70.5 29.5t-29.5 70.5zM545 1321q0 41 29.5 70.5t70.5 29.5t70.5 -29.5t29.5 -70.5t-29.5 -70.5t-70.5 -29.5t-70.5 29.5t-29.5 70.5z" />
<glyph unicode="&#xa9;" horiz-adv-x="1560" d="M98 717q0 205 89.5 375t247 268t347.5 98t347.5 -98t247 -268t89.5 -375q0 -154 -53 -291t-143.5 -236t-217.5 -157t-270 -58t-270 58t-217.5 157t-143.5 236t-53 291zM156 717q0 -191 81 -348t224.5 -247.5t320.5 -90.5t321 90.5t225 247.5t81 348t-81 348t-225 247.5 t-321 90.5t-320.5 -90.5t-224.5 -247.5t-81 -348zM463 717q0 169 100.5 283t249.5 114q109 0 186 -45v-111q-76 52 -178 52q-108 0 -180 -82.5t-72 -210.5q0 -129 72.5 -211t185.5 -82q112 0 189 61v-108q-80 -58 -201 -58q-149 0 -250.5 114.5t-101.5 283.5z" />
<glyph unicode="&#xaa;" horiz-adv-x="839" d="M70 899q0 78 41.5 135.5t103.5 84t133 26.5q70 0 119.5 -19t99.5 -51v78q0 99 -56.5 143.5t-150.5 44.5q-60 0 -116 -18.5t-94 -46.5v104q97 64 235 64q134 0 214.5 -70t80.5 -209v-319q0 -42 17.5 -65t45.5 -23q19 0 37 6v-88q-31 -17 -73 -17q-47 0 -84 27t-45 80 q-98 -117 -248 -117q-106 0 -183 68.5t-77 181.5zM184 905q0 -75 52 -114t124 -39q120 0 207 106v129q-97 68 -192 68q-84 0 -137.5 -41t-53.5 -109z" />
<glyph unicode="&#xab;" horiz-adv-x="985" d="M72 455v84l266 372h160l-293 -415l293 -414h-160zM489 455v84l265 372h157l-290 -415l290 -414h-157z" />
<glyph unicode="&#xac;" horiz-adv-x="1019" d="M121 657v146h776v-494h-139v348h-637z" />
<glyph unicode="&#xad;" horiz-adv-x="870" d="M180 485v146h510v-146h-510z" />
<glyph unicode="&#xae;" horiz-adv-x="1525" d="M82 717q0 205 89.5 375t247 268t347.5 98t347.5 -98t247 -268t89.5 -375q0 -154 -53 -291t-143.5 -236t-217.5 -157t-270 -58t-270 58t-217.5 157t-143.5 236t-53 291zM137 717q0 -191 81.5 -348t226 -247.5t321.5 -90.5q176 0 320 90.5t225.5 247.5t81.5 348t-81.5 348 t-225.5 247.5t-320 90.5q-177 0 -321.5 -90.5t-226 -247.5t-81.5 -348zM510 344v766h307q104 0 162.5 -59.5t58.5 -157.5q0 -78 -38.5 -133t-108.5 -72l213 -344h-117l-207 332h-168v-332h-102zM612 770h201q57 0 88 31.5t31 89.5q0 60 -31 92.5t-88 32.5h-201v-246z" />
<glyph unicode="&#xaf;" horiz-adv-x="919" d="M221 1264v116h471v-116h-471z" />
<glyph unicode="&#xb0;" horiz-adv-x="800" d="M102 1149q0 129 88 220t211 91t211 -91t88 -220t-88 -220t-211 -91t-211 91t-88 220zM207 1149q0 -89 55 -149t139 -60t139.5 60.5t55.5 148.5t-55.5 148.5t-139.5 60.5t-139 -60t-55 -149z" />
<glyph unicode="&#xb1;" horiz-adv-x="1110" d="M121 104v144h866v-144h-866zM121 748v143h362v350h142v-350h362v-143h-362v-349h-142v349h-362z" />
<glyph unicode="&#xb2;" horiz-adv-x="638" d="M76 659v99l209 219q68 73 95.5 120.5t27.5 100.5q0 55 -33 89t-88 34q-94 0 -193 -88v133q89 78 203 78q99 0 170.5 -64.5t71.5 -165.5q0 -77 -34 -140t-114 -154l-133 -148h301v-113h-483z" />
<glyph unicode="&#xb3;" horiz-adv-x="581" d="M43 702v123q97 -57 195 -57q69 0 115 38.5t46 106.5q0 63 -38.5 101.5t-106.5 38.5q-57 0 -96 -17v84l180 201h-272v113h434v-99l-172 -194q77 -7 137.5 -64t60.5 -166q0 -117 -78.5 -189.5t-195.5 -72.5q-118 0 -209 53z" />
<glyph unicode="&#xb4;" horiz-adv-x="868" d="M303 1178l170 276h193l-222 -276h-141z" />
<glyph unicode="&#xb5;" horiz-adv-x="1105" d="M135 -410v1403h154v-624q0 -246 227 -246q82 0 160.5 46.5t118.5 113.5v710h153v-993h-153v129q-55 -64 -141.5 -109t-194.5 -45q-100 0 -170 39v-424h-154z" />
<glyph unicode="&#xb6;" horiz-adv-x="950" d="M78 1038q0 178 107 287t294 109h303v-1434h-155v643h-148q-187 0 -294 108.5t-107 286.5z" />
<glyph unicode="&#xb7;" horiz-adv-x="442" d="M106 786q0 47 34 81t81 34t81 -34t34 -81t-34 -80.5t-81 -33.5t-81 33.5t-34 80.5z" />
<glyph unicode="&#xb8;" horiz-adv-x="864" d="M236 -270l180 282h125l-127 -282h-178z" />
<glyph unicode="&#xb9;" horiz-adv-x="438" d="M37 1176v133l190 125h121v-775h-129v635z" />
<glyph unicode="&#xba;" horiz-adv-x="821" d="M53 1047q0 169 100.5 283t260.5 114q159 0 258.5 -114t99.5 -283t-100 -283.5t-258 -114.5q-160 0 -260.5 114.5t-100.5 283.5zM176 1047q0 -122 67 -202.5t171 -80.5q102 0 168.5 80.5t66.5 202.5t-66.5 202t-168.5 80q-104 0 -171 -80t-67 -202z" />
<glyph unicode="&#xbb;" horiz-adv-x="985" d="M72 82l290 414l-290 415h157l267 -372v-84l-267 -373h-157zM487 82l293 414l-293 415h160l264 -372v-84l-264 -373h-160z" />
<glyph unicode="&#xbc;" horiz-adv-x="1331" d="M37 1176v133l190 125h121v-775h-129v635zM195 0l739 1434h129l-737 -1434h-131zM723 201v96l344 477h127v-467h102v-106h-102v-201h-125v201h-346zM854 307h215v307z" />
<glyph unicode="&#xbd;" horiz-adv-x="1429" d="M37 1176v133l190 125h121v-775h-129v635zM195 0l739 1434h129l-737 -1434h-131zM868 0v98l209 219q68 72 95.5 120.5t27.5 101.5q0 55 -33 89t-88 34q-92 0 -192 -89v134q88 77 203 77q99 0 170 -64t71 -165q0 -77 -34 -141t-113 -154l-133 -147h301v-113h-484z" />
<glyph unicode="&#xbe;" horiz-adv-x="1419" d="M43 702v123q97 -57 195 -57q69 0 115 38.5t46 106.5q0 63 -38.5 101.5t-106.5 38.5q-57 0 -96 -17v84l180 201h-272v113h434v-99l-172 -194q77 -7 137.5 -64t60.5 -166q0 -117 -78.5 -189.5t-195.5 -72.5q-118 0 -209 53zM283 0l739 1434h129l-737 -1434h-131zM811 201 v96l344 477h127v-467h102v-106h-102v-201h-125v201h-346zM942 307h215v307z" />
<glyph unicode="&#xbf;" horiz-adv-x="841" d="M76 -35q0 76 27.5 143t75.5 116t103.5 84.5t118.5 58.5v184h150v-266q-59 -14 -114 -41.5t-101.5 -66.5t-74.5 -92.5t-28 -113.5q0 -114 71.5 -179.5t187.5 -65.5q159 0 309 114v-143q-65 -53 -152.5 -84t-181.5 -31q-164 0 -277.5 103.5t-113.5 279.5zM367 891 q0 49 30 82t74 33q46 0 75 -32.5t29 -82.5q0 -45 -29.5 -78t-74.5 -33q-44 0 -74 33t-30 78z" />
<glyph unicode="&#xc0;" horiz-adv-x="1345" d="M45 0l551 1442h154l553 -1442h-168l-146 387h-633l-143 -387h-168zM387 1837h193l168 -274h-142zM410 532h524l-260 705z" />
<glyph unicode="&#xc1;" horiz-adv-x="1345" d="M45 0l551 1442h154l553 -1442h-168l-146 387h-633l-143 -387h-168zM410 532h524l-260 705zM596 1563l170 274h192l-219 -274h-143z" />
<glyph unicode="&#xc2;" horiz-adv-x="1345" d="M45 0l551 1442h154l553 -1442h-168l-146 387h-633l-143 -387h-168zM399 1563l199 274h160l198 -274h-145l-133 188l-133 -188h-146zM410 532h524l-260 705z" />
<glyph unicode="&#xc3;" horiz-adv-x="1345" d="M45 0l551 1442h154l553 -1442h-168l-146 387h-633l-143 -387h-168zM385 1591q2 99 47 163.5t117 64.5q32 0 68.5 -18t63 -39.5t59 -39.5t57.5 -18q61 0 73 106h95q-2 -99 -46.5 -163t-117.5 -64q-40 0 -85.5 28.5t-88 56.5t-74.5 28q-63 0 -74 -105h-94zM410 532h524 l-260 705z" />
<glyph unicode="&#xc4;" horiz-adv-x="1345" d="M45 0l551 1442h154l553 -1442h-168l-146 387h-633l-143 -387h-168zM397 1694q0 41 30 70.5t71 29.5t70.5 -29.5t29.5 -70.5t-29.5 -71t-70.5 -30t-71 30t-30 71zM410 532h524l-260 705zM754 1694q0 41 29.5 70.5t70.5 29.5t70.5 -29.5t29.5 -70.5t-29.5 -71t-70.5 -30 t-70.5 30t-29.5 71z" />
<glyph unicode="&#xc5;" horiz-adv-x="1345" d="M45 0l551 1442h154l553 -1442h-168l-146 387h-633l-143 -387h-168zM410 532h524l-260 705zM485 1702q0 81 55 138.5t132 57.5q78 0 133 -57t55 -139t-55 -138.5t-133 -56.5q-77 0 -132 57t-55 138zM561 1702q0 -50 33 -84.5t78 -34.5q46 0 79 34.5t33 84.5 q0 52 -32.5 85.5t-79.5 33.5q-45 0 -78 -34t-33 -85z" />
<glyph unicode="&#xc6;" horiz-adv-x="1853" d="M14 0l752 1434h983v-150h-702v-442h573v-150h-573v-542h729v-150h-885v387h-504l-199 -387h-174zM467 532h424v752h-35z" />
<glyph unicode="&#xc7;" horiz-adv-x="1224" d="M119 717q0 162 48.5 300t133.5 235t205 151.5t260 54.5q201 0 342 -96v-164q-148 109 -338 109q-214 0 -352.5 -165.5t-138.5 -424.5q0 -260 140.5 -425t358.5 -165q208 0 361 135v-166q-135 -101 -310 -116l-110 -250h-178l157 250q-256 25 -417.5 227t-161.5 510z" />
<glyph unicode="&#xc8;" d="M166 0v1434h870v-150h-714v-442h585v-150h-585v-542h739v-150h-895zM338 1837h192l168 -274h-141z" />
<glyph unicode="&#xc9;" d="M166 0v1434h870v-150h-714v-442h585v-150h-585v-542h739v-150h-895zM481 1563l170 274h193l-219 -274h-144z" />
<glyph unicode="&#xca;" d="M166 0v1434h870v-150h-714v-442h585v-150h-585v-542h739v-150h-895zM336 1563l199 274h159l199 -274h-145l-134 188l-133 -188h-145z" />
<glyph unicode="&#xcb;" d="M166 0v1434h870v-150h-714v-442h585v-150h-585v-542h739v-150h-895zM319 1694q0 41 30 70.5t71 29.5t70.5 -29.5t29.5 -70.5t-29.5 -71t-70.5 -30t-71 30t-30 71zM676 1694q0 41 29.5 70.5t70.5 29.5t71 -29.5t30 -70.5t-30 -71t-71 -30t-70.5 30t-29.5 71z" />
<glyph unicode="&#xcc;" horiz-adv-x="507" d="M-37 1837h193l168 -274h-142zM176 0v1434h156v-1434h-156z" />
<glyph unicode="&#xcd;" horiz-adv-x="507" d="M176 0v1434h156v-1434h-156zM178 1563l170 274h193l-219 -274h-144z" />
<glyph unicode="&#xce;" horiz-adv-x="507" d="M-20 1563l198 274h160l199 -274h-146l-133 188l-133 -188h-145zM176 0v1434h156v-1434h-156z" />
<glyph unicode="&#xcf;" horiz-adv-x="503" d="M-25 1694q0 41 30 70.5t71 29.5t70.5 -29.5t29.5 -70.5t-29.5 -71t-70.5 -30t-71 30t-30 71zM176 0v1434h156v-1434h-156zM332 1694q0 41 29.5 70.5t70.5 29.5t70.5 -29.5t29.5 -70.5t-29.5 -71t-70.5 -30t-70.5 30t-29.5 71z" />
<glyph unicode="&#xd0;" horiz-adv-x="1468" d="M57 659v148h193v627h422q302 0 491 -199t189 -518t-189 -518t-491 -199h-422v659h-193zM406 150h251q249 0 392 153.5t143 413.5t-143 413.5t-392 153.5h-251v-477h282v-148h-282v-509z" />
<glyph unicode="&#xd1;" horiz-adv-x="1378" d="M166 0v1434h137l756 -1143v1143h153v-1434h-133l-760 1145v-1145h-153zM403 1591q2 99 47 163.5t117 64.5q32 0 68.5 -18t63 -39.5t59 -39.5t57.5 -18q62 0 74 106h94q-2 -99 -46.5 -163t-117.5 -64q-40 0 -85.5 28.5t-88 56.5t-74.5 28q-62 0 -73 -105h-95z" />
<glyph unicode="&#xd2;" horiz-adv-x="1499" d="M119 717q0 214 79.5 383t223.5 263.5t328 94.5q138 0 255.5 -55.5t199.5 -153t128.5 -235t46.5 -297.5q0 -214 -79 -383t-223 -264t-328 -95t-328 95t-223.5 264t-79.5 383zM279 717q0 -259 132 -424.5t339 -165.5t339 165.5t132 424.5t-132 424.5t-339 165.5 t-339 -165.5t-132 -424.5zM473 1837h193l168 -274h-142z" />
<glyph unicode="&#xd3;" horiz-adv-x="1499" d="M119 717q0 214 79.5 383t223.5 263.5t328 94.5q138 0 255.5 -55.5t199.5 -153t128.5 -235t46.5 -297.5q0 -214 -79 -383t-223 -264t-328 -95t-328 95t-223.5 264t-79.5 383zM279 717q0 -259 132 -424.5t339 -165.5t339 165.5t132 424.5t-132 424.5t-339 165.5 t-339 -165.5t-132 -424.5zM649 1563l170 274h193l-219 -274h-144z" />
<glyph unicode="&#xd4;" horiz-adv-x="1499" d="M119 717q0 214 79.5 383t223.5 263.5t328 94.5q138 0 255.5 -55.5t199.5 -153t128.5 -235t46.5 -297.5q0 -214 -79 -383t-223 -264t-328 -95t-328 95t-223.5 264t-79.5 383zM279 717q0 -259 132 -424.5t339 -165.5t339 165.5t132 424.5t-132 424.5t-339 165.5 t-339 -165.5t-132 -424.5zM475 1563l199 274h160l198 -274h-145l-133 188l-133 -188h-146z" />
<glyph unicode="&#xd5;" horiz-adv-x="1499" d="M119 717q0 214 79.5 383t223.5 263.5t328 94.5q138 0 255.5 -55.5t199.5 -153t128.5 -235t46.5 -297.5q0 -214 -79 -383t-223 -264t-328 -95t-328 95t-223.5 264t-79.5 383zM279 717q0 -259 132 -424.5t339 -165.5t339 165.5t132 424.5t-132 424.5t-339 165.5 t-339 -165.5t-132 -424.5zM461 1591q2 99 47 163.5t117 64.5q32 0 68 -18t63 -39.5t59 -39.5t57 -18q62 0 74 106h94q-2 -99 -46 -163t-117 -64q-40 0 -85.5 28.5t-88 56.5t-74.5 28q-63 0 -74 -105h-94z" />
<glyph unicode="&#xd6;" horiz-adv-x="1499" d="M119 717q0 214 79.5 383t223.5 263.5t328 94.5q138 0 255.5 -55.5t199.5 -153t128.5 -235t46.5 -297.5q0 -214 -79 -383t-223 -264t-328 -95t-328 95t-223.5 264t-79.5 383zM279 717q0 -259 132 -424.5t339 -165.5t339 165.5t132 424.5t-132 424.5t-339 165.5 t-339 -165.5t-132 -424.5zM471 1694q0 41 29.5 70.5t70.5 29.5t71 -29.5t30 -70.5t-30 -71t-71 -30t-70.5 30t-29.5 71zM827 1694q0 41 30 70.5t71 29.5t70.5 -29.5t29.5 -70.5t-29.5 -71t-70.5 -30t-71 30t-30 71z" />
<glyph unicode="&#xd7;" horiz-adv-x="991" d="M121 987l100 100l273 -319l276 319l98 -100l-274 -321l272 -316l-98 -102l-272 315l-273 -315l-100 102l274 316z" />
<glyph unicode="&#xd8;" horiz-adv-x="1499" d="M119 717q0 214 79.5 383t223.5 263.5t328 94.5q213 0 370 -129l76 105h133l-129 -181q86 -100 133 -237.5t47 -298.5q0 -214 -79.5 -383t-223.5 -264t-327 -95q-215 0 -375 129l-76 -104h-129l129 180q-180 205 -180 537zM279 717q0 -247 114 -404l637 889 q-120 105 -280 105q-207 0 -339 -165.5t-132 -424.5zM465 231q119 -104 285 -104q206 0 337.5 165.5t131.5 424.5q0 238 -115 401z" />
<glyph unicode="&#xd9;" horiz-adv-x="1325" d="M147 567v867h156v-871q0 -221 97 -328.5t262 -107.5t261.5 107.5t96.5 328.5v871h156v-867q0 -152 -39 -267.5t-109.5 -185.5t-162 -104.5t-203.5 -34.5t-204 34.5t-162.5 104.5t-109.5 185.5t-39 267.5zM391 1837h193l168 -274h-142z" />
<glyph unicode="&#xda;" horiz-adv-x="1325" d="M147 567v867h156v-871q0 -221 97 -328.5t262 -107.5t261.5 107.5t96.5 328.5v871h156v-867q0 -152 -39 -267.5t-109.5 -185.5t-162 -104.5t-203.5 -34.5t-204 34.5t-162.5 104.5t-109.5 185.5t-39 267.5zM580 1563l170 274h192l-219 -274h-143z" />
<glyph unicode="&#xdb;" horiz-adv-x="1325" d="M147 567v867h156v-871q0 -221 97 -328.5t262 -107.5t261.5 107.5t96.5 328.5v871h156v-867q0 -152 -39 -267.5t-109.5 -185.5t-162 -104.5t-203.5 -34.5t-204 34.5t-162.5 104.5t-109.5 185.5t-39 267.5zM387 1563l199 274h159l199 -274h-145l-133 188l-134 -188h-145z " />
<glyph unicode="&#xdc;" horiz-adv-x="1325" d="M147 567v867h156v-871q0 -221 97 -328.5t262 -107.5t261.5 107.5t96.5 328.5v871h156v-867q0 -152 -39 -267.5t-109.5 -185.5t-162 -104.5t-203.5 -34.5t-204 34.5t-162.5 104.5t-109.5 185.5t-39 267.5zM387 1694q0 41 29.5 70.5t70.5 29.5t71 -29.5t30 -70.5t-30 -71 t-71 -30t-70.5 30t-29.5 71zM743 1694q0 41 30 70.5t71 29.5t70.5 -29.5t29.5 -70.5t-29.5 -71t-70.5 -30t-71 30t-30 71z" />
<glyph unicode="&#xdd;" horiz-adv-x="1193" d="M35 1434h182l383 -629l383 629h178l-487 -775v-659h-156v655zM508 1563l170 274h192l-219 -274h-143z" />
<glyph unicode="&#xde;" horiz-adv-x="1181" d="M166 0v1434h156v-316h374q191 0 298.5 -110.5t107.5 -292.5q0 -181 -107.5 -291.5t-298.5 -110.5h-374v-313h-156zM322 463h362q124 0 192 65t68 187q0 123 -68.5 188.5t-191.5 65.5h-362v-506z" />
<glyph unicode="&#xdf;" horiz-adv-x="1099" d="M145 0v1001q0 205 109.5 327t284.5 122q173 0 276 -102t103 -258q0 -116 -53 -192t-136 -101q122 -29 205.5 -135.5t83.5 -274.5q0 -191 -108.5 -301.5t-278.5 -110.5q-97 0 -164 31v144q56 -33 137 -33q118 0 191 76.5t73 207.5q0 142 -87 230t-236 88h-37v137h37 q105 0 165 59t60 164q0 103 -63 168.5t-164 65.5q-107 0 -175.5 -84t-68.5 -228v-1001h-154z" />
<glyph unicode="&#xe0;" horiz-adv-x="1058" d="M72 305q0 99 53.5 173.5t136 111.5t178.5 37q94 0 157.5 -21.5t125.5 -60.5v94q0 240 -266 240q-75 0 -152.5 -24.5t-126.5 -59.5v145q118 78 311 78q176 0 280.5 -91t104.5 -274v-413q0 -57 21 -86t59 -29q35 0 52 12v-123q-33 -26 -97 -26q-63 0 -109 33t-63 98 q-126 -144 -321 -144q-143 0 -243.5 90t-100.5 240zM225 311q0 -98 67.5 -147t166.5 -49q83 0 151 35.5t113 91.5v182q-119 84 -246 84q-110 0 -181 -54.5t-71 -142.5zM264 1454h191l172 -276h-144z" />
<glyph unicode="&#xe1;" horiz-adv-x="1058" d="M72 305q0 99 53.5 173.5t136 111.5t178.5 37q94 0 157.5 -21.5t125.5 -60.5v94q0 240 -266 240q-75 0 -152.5 -24.5t-126.5 -59.5v145q118 78 311 78q176 0 280.5 -91t104.5 -274v-413q0 -57 21 -86t59 -29q35 0 52 12v-123q-33 -26 -97 -26q-63 0 -109 33t-63 98 q-126 -144 -321 -144q-143 0 -243.5 90t-100.5 240zM225 311q0 -98 67.5 -147t166.5 -49q83 0 151 35.5t113 91.5v182q-119 84 -246 84q-110 0 -181 -54.5t-71 -142.5zM383 1178l170 276h192l-221 -276h-141z" />
<glyph unicode="&#xe2;" horiz-adv-x="1058" d="M72 305q0 99 53.5 173.5t136 111.5t178.5 37q94 0 157.5 -21.5t125.5 -60.5v94q0 240 -266 240q-75 0 -152.5 -24.5t-126.5 -59.5v145q118 78 311 78q176 0 280.5 -91t104.5 -274v-413q0 -57 21 -86t59 -29q35 0 52 12v-123q-33 -26 -97 -26q-63 0 -109 33t-63 98 q-126 -144 -321 -144q-143 0 -243.5 90t-100.5 240zM221 1178l199 276h160l198 -276h-147l-131 190l-133 -190h-146zM225 311q0 -98 67.5 -147t166.5 -49q83 0 151 35.5t113 91.5v182q-119 84 -246 84q-110 0 -181 -54.5t-71 -142.5z" />
<glyph unicode="&#xe3;" horiz-adv-x="1058" d="M72 305q0 99 53.5 173.5t136 111.5t178.5 37q94 0 157.5 -21.5t125.5 -60.5v94q0 240 -266 240q-75 0 -152.5 -24.5t-126.5 -59.5v145q118 78 311 78q176 0 280.5 -91t104.5 -274v-413q0 -57 21 -86t59 -29q35 0 52 12v-123q-33 -26 -97 -26q-63 0 -109 33t-63 98 q-126 -144 -321 -144q-143 0 -243.5 90t-100.5 240zM221 1214q3 100 48.5 164t117.5 64q32 0 67.5 -17.5t62 -39t59 -39t57.5 -17.5q65 0 76 105h94q-2 -100 -47 -165t-117 -65q-41 0 -86.5 29t-87.5 57.5t-74 28.5q-62 0 -74 -105h-96zM225 311q0 -98 67.5 -147t166.5 -49 q83 0 151 35.5t113 91.5v182q-119 84 -246 84q-110 0 -181 -54.5t-71 -142.5z" />
<glyph unicode="&#xe4;" horiz-adv-x="1058" d="M72 305q0 99 53.5 173.5t136 111.5t178.5 37q94 0 157.5 -21.5t125.5 -60.5v94q0 240 -266 240q-75 0 -152.5 -24.5t-126.5 -59.5v145q118 78 311 78q176 0 280.5 -91t104.5 -274v-413q0 -57 21 -86t59 -29q35 0 52 12v-123q-33 -26 -97 -26q-63 0 -109 33t-63 98 q-126 -144 -321 -144q-143 0 -243.5 90t-100.5 240zM225 311q0 -98 67.5 -147t166.5 -49q83 0 151 35.5t113 91.5v182q-119 84 -246 84q-110 0 -181 -54.5t-71 -142.5zM229 1321q0 41 30 70.5t71 29.5t70.5 -29.5t29.5 -70.5t-29.5 -70.5t-70.5 -29.5t-71 29.5t-30 70.5z M580 1321q0 41 29.5 70.5t70.5 29.5t70.5 -29.5t29.5 -70.5t-29.5 -70.5t-70.5 -29.5t-70.5 29.5t-29.5 70.5z" />
<glyph unicode="&#xe5;" horiz-adv-x="1058" d="M72 305q0 99 53.5 173.5t136 111.5t178.5 37q94 0 157.5 -21.5t125.5 -60.5v94q0 240 -266 240q-75 0 -152.5 -24.5t-126.5 -59.5v145q118 78 311 78q176 0 280.5 -91t104.5 -274v-413q0 -57 21 -86t59 -29q35 0 52 12v-123q-33 -26 -97 -26q-63 0 -109 33t-63 98 q-126 -144 -321 -144q-143 0 -243.5 90t-100.5 240zM225 311q0 -98 67.5 -147t166.5 -49q83 0 151 35.5t113 91.5v182q-119 84 -246 84q-110 0 -181 -54.5t-71 -142.5zM338 1325q0 81 54.5 138t131.5 57t132 -57t55 -138t-55 -139t-132 -58t-131.5 57.5t-54.5 139.5z M412 1325q0 -52 32.5 -85.5t79.5 -33.5t80 33.5t33 85.5q0 50 -33.5 84.5t-79.5 34.5t-79 -34.5t-33 -84.5z" />
<glyph unicode="&#xe6;" horiz-adv-x="1650" d="M72 305q0 99 53.5 173.5t136 111.5t178.5 37q94 0 157.5 -21.5t125.5 -60.5v94q0 240 -266 240q-75 0 -152.5 -24.5t-126.5 -59.5v145q118 78 311 78q118 0 206 -44t132 -134q58 86 143.5 132t190.5 46q87 0 158 -31t117 -81.5t77 -119t44.5 -139.5t13.5 -147v-43h-694 q12 -156 109.5 -249t254.5 -93q148 0 266 78v-136q-110 -82 -301 -82q-127 0 -228.5 53t-166.5 150q-166 -203 -391 -203q-148 0 -248 89.5t-100 240.5zM225 311q0 -99 65.5 -147.5t170.5 -48.5q98 0 176 46t123 115q-26 64 -35 146q-122 86 -248 86q-110 0 -181 -54.5 t-71 -142.5zM879 580h536q-1 40 -9 79.5t-27.5 79.5t-48 70.5t-73 50t-100.5 19.5q-120 0 -194 -87t-84 -212z" />
<glyph unicode="&#xe7;" horiz-adv-x="929" d="M82 498q0 224 134.5 372t338.5 148q144 0 256 -60v-139q-63 33 -113.5 46.5t-115.5 13.5q-150 0 -248 -106.5t-98 -276.5q0 -168 99.5 -274.5t246.5 -106.5q74 0 128.5 15.5t114.5 51.5v-135q-88 -53 -190 -65l-113 -252h-178l158 250q-184 19 -302 162.5t-118 355.5z " />
<glyph unicode="&#xe8;" horiz-adv-x="1017" d="M82 496q0 231 121.5 376.5t318.5 145.5q87 0 158 -31t117 -81.5t77 -119t44.5 -139.5t13.5 -147v-43h-694q12 -156 109.5 -249t254.5 -93q148 0 266 78v-136q-110 -82 -301 -82q-213 0 -349 143.5t-136 377.5zM240 580h536q-1 40 -9 79.5t-27.5 79.5t-48 70.5t-73 50 t-100.5 19.5q-120 0 -194 -87t-84 -212zM299 1454h190l173 -276h-144z" />
<glyph unicode="&#xe9;" horiz-adv-x="1017" d="M82 496q0 231 121.5 376.5t318.5 145.5q87 0 158 -31t117 -81.5t77 -119t44.5 -139.5t13.5 -147v-43h-694q12 -156 109.5 -249t254.5 -93q148 0 266 78v-136q-110 -82 -301 -82q-213 0 -349 143.5t-136 377.5zM240 580h536q-1 40 -9 79.5t-27.5 79.5t-48 70.5t-73 50 t-100.5 19.5q-120 0 -194 -87t-84 -212zM401 1178l170 276h193l-221 -276h-142z" />
<glyph unicode="&#xea;" horiz-adv-x="1017" d="M82 496q0 231 121.5 376.5t318.5 145.5q87 0 158 -31t117 -81.5t77 -119t44.5 -139.5t13.5 -147v-43h-694q12 -156 109.5 -249t254.5 -93q148 0 266 78v-136q-110 -82 -301 -82q-213 0 -349 143.5t-136 377.5zM240 580h536q-1 40 -9 79.5t-27.5 79.5t-48 70.5t-73 50 t-100.5 19.5q-120 0 -194 -87t-84 -212zM248 1178l198 276h160l199 -276h-148l-131 190l-133 -190h-145z" />
<glyph unicode="&#xeb;" horiz-adv-x="1017" d="M82 496q0 231 121.5 376.5t318.5 145.5q87 0 158 -31t117 -81.5t77 -119t44.5 -139.5t13.5 -147v-43h-694q12 -156 109.5 -249t254.5 -93q148 0 266 78v-136q-110 -82 -301 -82q-213 0 -349 143.5t-136 377.5zM240 580h536q-1 40 -9 79.5t-27.5 79.5t-48 70.5t-73 50 t-100.5 19.5q-120 0 -194 -87t-84 -212zM254 1321q0 41 29.5 70.5t70.5 29.5t71 -29.5t30 -70.5t-30 -70.5t-71 -29.5t-70.5 29.5t-29.5 70.5zM604 1321q0 41 30 70.5t71 29.5t70.5 -29.5t29.5 -70.5t-29.5 -70.5t-70.5 -29.5t-71 29.5t-30 70.5z" />
<glyph unicode="&#xec;" horiz-adv-x="483" d="M-53 1454h190l172 -276h-143zM164 0v993h155v-993h-155z" />
<glyph unicode="&#xed;" horiz-adv-x="483" d="M160 1176l170 276h190l-219 -276h-141zM164 0v993h155v-993h-155z" />
<glyph unicode="&#xee;" horiz-adv-x="483" d="M-37 1178l199 276h160l198 -276h-147l-131 190l-133 -190h-146zM164 0v993h155v-993h-155z" />
<glyph unicode="&#xef;" horiz-adv-x="483" d="M-35 1321q0 41 30 70.5t71 29.5t70.5 -29.5t29.5 -70.5t-29.5 -70.5t-70.5 -29.5t-71 29.5t-30 70.5zM164 0v993h155v-993h-155zM315 1321q0 41 30 70.5t71 29.5t70.5 -29.5t29.5 -70.5t-29.5 -70.5t-70.5 -29.5t-71 29.5t-30 70.5z" />
<glyph unicode="&#xf0;" horiz-adv-x="1062" d="M82 465q0 206 111.5 340.5t295.5 134.5q120 0 199 -53l-182 299l-219 -107l-58 86l220 105l-107 164h158l69 -111l187 90l59 -86l-186 -90q9 -14 93 -153t124 -203q70 -111 102.5 -202.5t32.5 -201.5q0 -138 -54.5 -252t-158.5 -182t-238 -68t-237.5 67t-157 177.5 t-53.5 245.5zM236 469q0 -155 81.5 -253.5t212.5 -98.5q133 0 216 98.5t83 253.5q0 154 -83.5 254t-215.5 100q-131 0 -212.5 -100t-81.5 -254z" />
<glyph unicode="&#xf1;" horiz-adv-x="1087" d="M145 0v993h154v-129q55 64 141.5 109t194.5 45q157 0 240 -94.5t83 -261.5v-662h-153v625q0 245 -227 245q-83 0 -161.5 -46t-117.5 -113v-711h-154zM279 1214q3 100 48 164t117 64q32 0 67.5 -17.5t62 -39t59 -39t57.5 -17.5q65 0 76 105h94q-2 -100 -47 -165t-117 -65 q-32 0 -68 18t-62.5 39.5t-58.5 39.5t-58 18q-62 0 -74 -105h-96z" />
<glyph unicode="&#xf2;" horiz-adv-x="1105" d="M82 496q0 145 56.5 263t165 188.5t249.5 70.5t249.5 -70.5t165 -188.5t56.5 -263t-56.5 -263t-165 -188t-249.5 -70t-249.5 70t-165 188t-56.5 263zM236 496q0 -169 88 -275t229 -106t229 106t88 275t-88 276t-229 107t-229 -107t-88 -276zM291 1454h190l172 -276h-143z " />
<glyph unicode="&#xf3;" horiz-adv-x="1105" d="M82 496q0 145 56.5 263t165 188.5t249.5 70.5t249.5 -70.5t165 -188.5t56.5 -263t-56.5 -263t-165 -188t-249.5 -70t-249.5 70t-165 188t-56.5 263zM236 496q0 -169 88 -275t229 -106t229 106t88 275t-88 276t-229 107t-229 -107t-88 -276zM465 1178l170 276h192 l-221 -276h-141z" />
<glyph unicode="&#xf4;" horiz-adv-x="1105" d="M82 496q0 145 56.5 263t165 188.5t249.5 70.5t249.5 -70.5t165 -188.5t56.5 -263t-56.5 -263t-165 -188t-249.5 -70t-249.5 70t-165 188t-56.5 263zM236 496q0 -169 88 -275t229 -106t229 106t88 275t-88 276t-229 107t-229 -107t-88 -276zM274 1178l199 276h160 l198 -276h-147l-131 190l-133 -190h-146z" />
<glyph unicode="&#xf5;" horiz-adv-x="1105" d="M82 496q0 145 56.5 263t165 188.5t249.5 70.5t249.5 -70.5t165 -188.5t56.5 -263t-56.5 -263t-165 -188t-249.5 -70t-249.5 70t-165 188t-56.5 263zM236 496q0 -169 88 -275t229 -106t229 106t88 275t-88 276t-229 107t-229 -107t-88 -276zM262 1214q3 100 48.5 164 t117.5 64q32 0 67.5 -17.5t62 -39t59 -39t57.5 -17.5q65 0 76 105h94q-2 -100 -47 -165t-117 -65q-32 0 -68 18t-62.5 39.5t-59 39.5t-58.5 18q-62 0 -74 -105h-96z" />
<glyph unicode="&#xf6;" horiz-adv-x="1105" d="M82 496q0 145 56.5 263t165 188.5t249.5 70.5t249.5 -70.5t165 -188.5t56.5 -263t-56.5 -263t-165 -188t-249.5 -70t-249.5 70t-165 188t-56.5 263zM236 496q0 -169 88 -275t229 -106t229 106t88 275t-88 276t-229 107t-229 -107t-88 -276zM276 1321q0 41 30 70.5 t71 29.5t70.5 -29.5t29.5 -70.5t-29.5 -70.5t-70.5 -29.5t-71 29.5t-30 70.5zM627 1321q0 41 29.5 70.5t70.5 29.5t70.5 -29.5t29.5 -70.5t-29.5 -70.5t-70.5 -29.5t-70.5 29.5t-29.5 70.5z" />
<glyph unicode="&#xf7;" horiz-adv-x="1073" d="M121 596v143h829v-143h-829zM418 248q0 47 35 82t82 35t81.5 -35t34.5 -82t-34.5 -82t-81.5 -35t-82 35t-35 82zM418 1092q0 47 35 81.5t82 34.5t81.5 -34.5t34.5 -81.5t-34.5 -82t-81.5 -35t-82 35t-35 82z" />
<glyph unicode="&#xf8;" horiz-adv-x="1105" d="M82 496q0 145 56.5 263t165 188.5t249.5 70.5q147 0 266 -82l41 55h119l-88 -119q133 -148 133 -376q0 -145 -56.5 -263t-165 -188t-249.5 -70q-151 0 -264 80l-41 -55h-121l88 119q-133 145 -133 377zM236 496q0 -154 71 -254l426 577q-83 60 -180 60q-141 0 -229 -107 t-88 -276zM375 172q75 -57 178 -57q141 0 229 106t88 275q0 148 -71 252z" />
<glyph unicode="&#xf9;" horiz-adv-x="1089" d="M131 332v661h154v-624q0 -246 227 -246q82 0 160.5 46.5t118.5 113.5v710h153v-993h-153v129q-55 -64 -141.5 -109t-194.5 -45q-157 0 -240.5 95t-83.5 262zM295 1454h190l172 -276h-143z" />
<glyph unicode="&#xfa;" horiz-adv-x="1089" d="M131 332v661h154v-624q0 -246 227 -246q82 0 160.5 46.5t118.5 113.5v710h153v-993h-153v129q-55 -64 -141.5 -109t-194.5 -45q-157 0 -240.5 95t-83.5 262zM424 1178l170 276h192l-221 -276h-141z" />
<glyph unicode="&#xfb;" horiz-adv-x="1089" d="M131 332v661h154v-624q0 -246 227 -246q82 0 160.5 46.5t118.5 113.5v710h153v-993h-153v129q-55 -64 -141.5 -109t-194.5 -45q-157 0 -240.5 95t-83.5 262zM260 1178l199 276h159l199 -276h-147l-131 190l-133 -190h-146z" />
<glyph unicode="&#xfc;" horiz-adv-x="1089" d="M131 332v661h154v-624q0 -246 227 -246q82 0 160.5 46.5t118.5 113.5v710h153v-993h-153v129q-55 -64 -141.5 -109t-194.5 -45q-157 0 -240.5 95t-83.5 262zM262 1321q0 41 29.5 70.5t70.5 29.5t71 -29.5t30 -70.5t-30 -70.5t-71 -29.5t-70.5 29.5t-29.5 70.5zM612 1321 q0 41 30 70.5t71 29.5t70.5 -29.5t29.5 -70.5t-29.5 -70.5t-70.5 -29.5t-71 29.5t-30 70.5z" />
<glyph unicode="&#xfd;" horiz-adv-x="997" d="M43 993h168l293 -772l280 772h166l-424 -1104q-60 -157 -135.5 -232t-185.5 -75q-94 0 -144 29v141q50 -31 121 -31q83 0 133 69t113 247zM399 1178l170 276h193l-221 -276h-142z" />
<glyph unicode="&#xfe;" horiz-adv-x="1134" d="M145 -410v1844h154v-570q112 154 317 154q191 0 313 -144t122 -378t-122 -377.5t-313 -143.5q-205 0 -317 154v-539h-154zM299 291q36 -77 113 -126.5t170 -49.5q136 0 225.5 106t89.5 275t-89.5 276t-225.5 107q-93 0 -170 -50t-113 -127v-411z" />
<glyph unicode="&#xff;" horiz-adv-x="997" d="M43 993h168l293 -772l280 772h166l-424 -1104q-60 -157 -135.5 -232t-185.5 -75q-94 0 -144 29v141q50 -31 121 -31q83 0 133 69t113 247zM215 1321q0 41 29.5 70.5t70.5 29.5t71 -29.5t30 -70.5t-30 -70.5t-71 -29.5t-70.5 29.5t-29.5 70.5zM565 1321q0 41 30 70.5 t71 29.5t70.5 -29.5t29.5 -70.5t-29.5 -70.5t-70.5 -29.5t-71 29.5t-30 70.5z" />
<glyph unicode="&#x100;" horiz-adv-x="1345" d="M45 0l551 1442h154l553 -1442h-168l-146 387h-633l-143 -387h-168zM410 532h524l-260 705zM440 1640v119h471v-119h-471z" />
<glyph unicode="&#x101;" horiz-adv-x="1058" d="M72 305q0 99 53.5 173.5t136 111.5t178.5 37q94 0 157.5 -21.5t125.5 -60.5v94q0 240 -266 240q-75 0 -152.5 -24.5t-126.5 -59.5v145q118 78 311 78q176 0 280.5 -91t104.5 -274v-413q0 -57 21 -86t59 -29q35 0 52 12v-123q-33 -26 -97 -26q-63 0 -109 33t-63 98 q-126 -144 -321 -144q-143 0 -243.5 90t-100.5 240zM225 311q0 -98 67.5 -147t166.5 -49q83 0 151 35.5t113 91.5v182q-119 84 -246 84q-110 0 -181 -54.5t-71 -142.5zM283 1264v116h471v-116h-471z" />
<glyph unicode="&#x102;" horiz-adv-x="1345" d="M45 0l551 1442h154l553 -1442h-168l-146 387h-633l-143 -387h-168zM410 532h524l-260 705zM410 1831h116q2 -77 44 -126.5t106 -49.5q63 0 104 49.5t43 126.5h115q-1 -129 -77 -209t-185 -80q-111 0 -187 80t-79 209z" />
<glyph unicode="&#x103;" horiz-adv-x="1058" d="M72 305q0 99 53.5 173.5t136 111.5t178.5 37q94 0 157.5 -21.5t125.5 -60.5v94q0 240 -266 240q-75 0 -152.5 -24.5t-126.5 -59.5v145q118 78 311 78q176 0 280.5 -91t104.5 -274v-413q0 -57 21 -86t59 -29q35 0 52 12v-123q-33 -26 -97 -26q-63 0 -109 33t-63 98 q-126 -144 -321 -144q-143 0 -243.5 90t-100.5 240zM225 311q0 -98 67.5 -147t166.5 -49q83 0 151 35.5t113 91.5v182q-119 84 -246 84q-110 0 -181 -54.5t-71 -142.5zM238 1452h114q2 -78 45.5 -128t110.5 -50t110.5 50t45.5 128h114q-1 -132 -77.5 -212.5t-192.5 -80.5 t-192.5 80.5t-77.5 212.5z" />
<glyph unicode="&#x104;" horiz-adv-x="1345" d="M45 0l551 1442h154l553 -1442q-66 -76 -66 -166q0 -59 34 -95t89 -36q38 0 67 10v-100q-37 -14 -94 -14q-94 0 -150.5 58.5t-56.5 145.5q0 62 24 114.5t52 82.5h-67l-146 387h-633l-143 -387h-168zM410 532h524l-260 705z" />
<glyph unicode="&#x105;" horiz-adv-x="1040" d="M72 305q0 99 53.5 173.5t136 111.5t178.5 37q94 0 157.5 -21.5t125.5 -60.5v94q0 240 -266 240q-75 0 -152.5 -24.5t-126.5 -59.5v145q118 78 311 78q176 0 280.5 -91t104.5 -274v-413q0 -57 21 -86t59 -29q35 0 52 12v-123q-66 -75 -66 -166q0 -59 34 -95t89 -36 q35 0 67 11v-101q-37 -14 -94 -14q-94 0 -150.5 59t-56.5 146q0 91 56 172q-120 14 -148 129q-126 -144 -321 -144q-143 0 -243.5 90t-100.5 240zM225 311q0 -98 67.5 -147t166.5 -49q83 0 151 35.5t113 91.5v182q-119 84 -246 84q-110 0 -181 -54.5t-71 -142.5z" />
<glyph unicode="&#x106;" horiz-adv-x="1224" d="M119 717q0 162 48.5 300t133.5 235t205 151.5t260 54.5q201 0 342 -96v-164q-148 109 -338 109q-214 0 -352.5 -165.5t-138.5 -424.5q0 -260 140.5 -425t358.5 -165q208 0 361 135v-166q-158 -121 -373 -121q-138 0 -258 54.5t-205.5 151t-134.5 235.5t-49 301zM621 1563 l170 274h192l-219 -274h-143z" />
<glyph unicode="&#x107;" horiz-adv-x="927" d="M82 498q0 224 134.5 372t338.5 148q144 0 256 -60v-139q-63 33 -113.5 46.5t-115.5 13.5q-150 0 -248 -106.5t-98 -276.5q0 -168 99.5 -274.5t246.5 -106.5q74 0 128.5 15.5t114.5 51.5v-135q-123 -72 -272 -72q-203 0 -337 148t-134 375zM401 1178l170 276h193 l-221 -276h-142z" />
<glyph unicode="&#x108;" horiz-adv-x="1224" d="M119 717q0 162 48.5 300t133.5 235t205 151.5t260 54.5q201 0 342 -96v-164q-148 109 -338 109q-214 0 -352.5 -165.5t-138.5 -424.5q0 -260 140.5 -425t358.5 -165q208 0 361 135v-166q-158 -121 -373 -121q-138 0 -258 54.5t-205.5 151t-134.5 235.5t-49 301zM442 1563 l199 274h160l198 -274h-145l-133 188l-133 -188h-146z" />
<glyph unicode="&#x109;" horiz-adv-x="927" d="M82 498q0 224 134.5 372t338.5 148q144 0 256 -60v-139q-63 33 -113.5 46.5t-115.5 13.5q-150 0 -248 -106.5t-98 -276.5q0 -168 99.5 -274.5t246.5 -106.5q74 0 128.5 15.5t114.5 51.5v-135q-123 -72 -272 -72q-203 0 -337 148t-134 375zM227 1178l199 276h160l198 -276 h-147l-131 190l-133 -190h-146z" />
<glyph unicode="&#x10a;" horiz-adv-x="1224" d="M119 717q0 162 48.5 300t133.5 235t205 151.5t260 54.5q201 0 342 -96v-164q-148 109 -338 109q-214 0 -352.5 -165.5t-138.5 -424.5q0 -260 140.5 -425t358.5 -165q208 0 361 135v-166q-158 -121 -373 -121q-138 0 -258 54.5t-205.5 151t-134.5 235.5t-49 301zM649 1696 q0 42 27 72t69 30q43 0 70 -29.5t27 -72.5q0 -44 -27 -73.5t-70 -29.5q-42 0 -69 30t-27 73z" />
<glyph unicode="&#x10b;" horiz-adv-x="929" d="M82 498q0 224 134.5 372t338.5 148q144 0 256 -60v-139q-63 33 -113.5 46.5t-115.5 13.5q-150 0 -248 -106.5t-98 -276.5q0 -168 99.5 -274.5t246.5 -106.5q74 0 128.5 15.5t114.5 51.5v-135q-123 -72 -272 -72q-203 0 -337 148t-134 375zM434 1323q0 43 30 72.5t73 29.5 t72.5 -29.5t29.5 -72.5t-29.5 -72.5t-72.5 -29.5t-73 29.5t-30 72.5z" />
<glyph unicode="&#x10c;" horiz-adv-x="1224" d="M119 717q0 162 48.5 300t133.5 235t205 151.5t260 54.5q201 0 342 -96v-164q-148 109 -338 109q-214 0 -352.5 -165.5t-138.5 -424.5q0 -260 140.5 -425t358.5 -165q208 0 361 135v-166q-158 -121 -373 -121q-138 0 -258 54.5t-205.5 151t-134.5 235.5t-49 301zM455 1837 h145l133 -188l131 188h148l-199 -274h-160z" />
<glyph unicode="&#x10d;" horiz-adv-x="927" d="M82 498q0 224 134.5 372t338.5 148q144 0 256 -60v-139q-63 33 -113.5 46.5t-115.5 13.5q-150 0 -248 -106.5t-98 -276.5q0 -168 99.5 -274.5t246.5 -106.5q74 0 128.5 15.5t114.5 51.5v-135q-123 -72 -272 -72q-203 0 -337 148t-134 375zM244 1454h145l133 -188l131 188 h148l-199 -276h-160z" />
<glyph unicode="&#x10e;" horiz-adv-x="1384" d="M166 0v1434h422q302 0 491 -199t189 -518t-189 -518t-491 -199h-422zM322 150h251q249 0 392 153.5t143 413.5t-143 413.5t-392 153.5h-251v-1134zM334 1837h145l133 -188l131 188h148l-199 -274h-160z" />
<glyph unicode="&#x10f;" horiz-adv-x="1363" d="M84 496q0 234 121.5 378t312.5 144q206 0 318 -154v570h153v-1434h-153v129q-112 -154 -318 -154q-191 0 -312.5 143.5t-121.5 377.5zM238 496q0 -169 89.5 -275t225.5 -106q93 0 170 49.5t113 126.5v411q-36 77 -113 127t-170 50q-136 0 -225.5 -107t-89.5 -276z M1126 1065l103 369h153l-135 -369h-121z" />
<glyph unicode="&#x110;" horiz-adv-x="1468" d="M57 659v148h193v627h422q302 0 491 -199t189 -518t-189 -518t-491 -199h-422v659h-193zM406 150h251q249 0 392 153.5t143 413.5t-143 413.5t-392 153.5h-251v-477h282v-148h-282v-509z" />
<glyph unicode="&#x111;" horiz-adv-x="1130" d="M84 496q0 234 121.5 378t312.5 144q206 0 318 -154v275h-220v108h220v187h153v-187h172v-108h-172v-1139h-153v129q-112 -154 -318 -154q-191 0 -312.5 143.5t-121.5 377.5zM238 496q0 -169 89.5 -275t225.5 -106q93 0 170 49.5t113 126.5v411q-36 77 -113 127t-170 50 q-136 0 -225.5 -107t-89.5 -276z" />
<glyph unicode="&#x112;" d="M166 0v1434h870v-150h-714v-442h585v-150h-585v-542h739v-150h-895zM373 1640v119h471v-119h-471z" />
<glyph unicode="&#x113;" horiz-adv-x="1017" d="M82 496q0 231 121.5 376.5t318.5 145.5q87 0 158 -31t117 -81.5t77 -119t44.5 -139.5t13.5 -147v-43h-694q12 -156 109.5 -249t254.5 -93q148 0 266 78v-136q-110 -82 -301 -82q-213 0 -349 143.5t-136 377.5zM240 580h536q-1 40 -9 79.5t-27.5 79.5t-48 70.5t-73 50 t-100.5 19.5q-120 0 -194 -87t-84 -212zM295 1264v116h471v-116h-471z" />
<glyph unicode="&#x114;" d="M166 0v1434h870v-150h-714v-442h585v-150h-585v-542h739v-150h-895zM342 1831h117q2 -77 43.5 -126.5t105.5 -49.5q63 0 104.5 49.5t43.5 126.5h114q-1 -129 -77 -209t-185 -80q-111 0 -187 80t-79 209z" />
<glyph unicode="&#x115;" horiz-adv-x="1017" d="M82 496q0 231 121.5 376.5t318.5 145.5q87 0 158 -31t117 -81.5t77 -119t44.5 -139.5t13.5 -147v-43h-694q12 -156 109.5 -249t254.5 -93q148 0 266 78v-136q-110 -82 -301 -82q-213 0 -349 143.5t-136 377.5zM240 580h536q-1 40 -9 79.5t-27.5 79.5t-48 70.5t-73 50 t-100.5 19.5q-120 0 -194 -87t-84 -212zM260 1452h115q2 -78 45 -128t110 -50t110.5 50t45.5 128h115q-1 -131 -78 -212t-193 -81t-192.5 80.5t-77.5 212.5z" />
<glyph unicode="&#x116;" d="M166 0v1434h870v-150h-714v-442h585v-150h-585v-542h739v-150h-895zM512 1696q0 42 27 72t69 30q43 0 70 -29.5t27 -72.5q0 -44 -27 -73.5t-70 -29.5q-42 0 -69 30t-27 73z" />
<glyph unicode="&#x117;" horiz-adv-x="1017" d="M82 496q0 231 121.5 376.5t318.5 145.5q87 0 158 -31t117 -81.5t77 -119t44.5 -139.5t13.5 -147v-43h-694q12 -156 109.5 -249t254.5 -93q148 0 266 78v-136q-110 -82 -301 -82q-213 0 -349 143.5t-136 377.5zM240 580h536q-1 40 -9 79.5t-27.5 79.5t-48 70.5t-73 50 t-100.5 19.5q-120 0 -194 -87t-84 -212zM428 1323q0 43 29.5 72.5t72.5 29.5t73 -29.5t30 -72.5t-30 -72.5t-73 -29.5t-72.5 29.5t-29.5 72.5z" />
<glyph unicode="&#x118;" horiz-adv-x="1144" d="M166 0v1434h870v-150h-714v-442h585v-150h-585v-542h739v-150q-66 -76 -66 -166q0 -59 34 -95t89 -36q39 0 68 10v-100q-37 -14 -94 -14q-94 0 -150.5 58.5t-56.5 145.5q0 62 24 114.5t52 82.5h-795z" />
<glyph unicode="&#x119;" horiz-adv-x="1015" d="M82 496q0 231 121.5 376.5t318.5 145.5q87 0 158 -31t117 -81.5t77 -119t44.5 -139.5t13.5 -147v-43h-694q12 -156 109.5 -249t254.5 -93q148 0 266 78v-136q-65 -75 -65 -166q0 -59 34 -95t89 -36q35 0 67 11v-101q-37 -14 -94 -14q-94 0 -150.5 59t-56.5 146 q0 73 31 133q-89 -19 -156 -19q-213 0 -349 143.5t-136 377.5zM240 580h536q-1 40 -9 79.5t-27.5 79.5t-48 70.5t-73 50t-100.5 19.5q-120 0 -194 -87t-84 -212z" />
<glyph unicode="&#x11a;" d="M166 0v1434h870v-150h-714v-442h585v-150h-585v-542h739v-150h-895zM332 1837h145l133 -188l131 188h148l-199 -274h-160z" />
<glyph unicode="&#x11b;" horiz-adv-x="1017" d="M82 496q0 231 121.5 376.5t318.5 145.5q87 0 158 -31t117 -81.5t77 -119t44.5 -139.5t13.5 -147v-43h-694q12 -156 109.5 -249t254.5 -93q148 0 266 78v-136q-110 -82 -301 -82q-213 0 -349 143.5t-136 377.5zM240 580h536q-1 40 -9 79.5t-27.5 79.5t-48 70.5t-73 50 t-100.5 19.5q-120 0 -194 -87t-84 -212zM248 1454h145l133 -188l131 188h148l-199 -276h-160z" />
<glyph unicode="&#x11c;" horiz-adv-x="1384" d="M119 717q0 214 83.5 383.5t230.5 263.5t331 94q243 0 391 -123v-159q-159 131 -377 131q-222 0 -360.5 -165t-138.5 -427q0 -261 138.5 -424.5t350.5 -163.5q206 0 326 117v579h155v-645q-84 -91 -208.5 -147t-278.5 -56q-182 0 -328.5 94t-230.5 264t-84 384zM463 1563 l199 274h159l199 -274h-146l-133 188l-133 -188h-145z" />
<glyph unicode="&#x11d;" horiz-adv-x="1130" d="M86 508q0 231 120.5 370.5t311.5 139.5q203 0 318 -150v125h153v-923q0 -120 -39 -215.5t-106 -154t-151.5 -88.5t-180.5 -30q-91 0 -182.5 24t-151.5 60v148q65 -43 149.5 -68t168.5 -25q71 0 130.5 19.5t107.5 59.5t75 108t27 158v77q-113 -147 -318 -147 q-191 0 -311.5 140t-120.5 372zM240 508q0 -168 88 -270.5t225 -102.5q93 0 168.5 46t114.5 120v412q-39 74 -114.5 120t-168.5 46q-137 0 -225 -102t-88 -269zM274 1178l199 276h160l198 -276h-147l-131 190l-133 -190h-146z" />
<glyph unicode="&#x11e;" horiz-adv-x="1384" d="M119 717q0 214 83.5 383.5t230.5 263.5t331 94q243 0 391 -123v-159q-159 131 -377 131q-222 0 -360.5 -165t-138.5 -427q0 -261 138.5 -424.5t350.5 -163.5q206 0 326 117v579h155v-645q-84 -91 -208.5 -147t-278.5 -56q-182 0 -328.5 94t-230.5 264t-84 384zM494 1843 h116q2 -77 44 -126.5t106 -49.5q63 0 104 49.5t43 126.5h115q-1 -129 -77 -209t-185 -80q-111 0 -187 80t-79 209z" />
<glyph unicode="&#x11f;" horiz-adv-x="1130" d="M86 508q0 231 120.5 370.5t311.5 139.5q203 0 318 -150v125h153v-923q0 -120 -39 -215.5t-106 -154t-151.5 -88.5t-180.5 -30q-91 0 -182.5 24t-151.5 60v148q65 -43 149.5 -68t168.5 -25q71 0 130.5 19.5t107.5 59.5t75 108t27 158v77q-113 -147 -318 -147 q-191 0 -311.5 140t-120.5 372zM240 508q0 -168 88 -270.5t225 -102.5q93 0 168.5 46t114.5 120v412q-39 74 -114.5 120t-168.5 46q-137 0 -225 -102t-88 -269zM289 1452h114q2 -78 45.5 -128t110.5 -50t110.5 50t45.5 128h114q-1 -132 -77.5 -212.5t-192.5 -80.5 t-192.5 80.5t-77.5 212.5z" />
<glyph unicode="&#x120;" horiz-adv-x="1384" d="M119 717q0 214 83.5 383.5t230.5 263.5t331 94q243 0 391 -123v-159q-159 131 -377 131q-222 0 -360.5 -165t-138.5 -427q0 -261 138.5 -424.5t350.5 -163.5q206 0 326 117v579h155v-645q-84 -91 -208.5 -147t-278.5 -56q-182 0 -328.5 94t-230.5 264t-84 384zM651 1696 q0 42 27.5 72t69.5 30q43 0 69.5 -29.5t26.5 -72.5q0 -44 -26.5 -73.5t-69.5 -29.5q-42 0 -69.5 30t-27.5 73z" />
<glyph unicode="&#x121;" horiz-adv-x="1130" d="M86 508q0 231 120.5 370.5t311.5 139.5q203 0 318 -150v125h153v-923q0 -120 -39 -215.5t-106 -154t-151.5 -88.5t-180.5 -30q-91 0 -182.5 24t-151.5 60v148q65 -43 149.5 -68t168.5 -25q71 0 130.5 19.5t107.5 59.5t75 108t27 158v77q-113 -147 -318 -147 q-191 0 -311.5 140t-120.5 372zM240 508q0 -168 88 -270.5t225 -102.5q93 0 168.5 46t114.5 120v412q-39 74 -114.5 120t-168.5 46q-137 0 -225 -102t-88 -269zM446 1323q0 43 30 72.5t73 29.5t72.5 -29.5t29.5 -72.5t-29.5 -72.5t-72.5 -29.5t-73 29.5t-30 72.5z" />
<glyph unicode="&#x122;" horiz-adv-x="1384" d="M119 717q0 214 83.5 383.5t230.5 263.5t331 94q243 0 391 -123v-159q-159 131 -377 131q-222 0 -360.5 -165t-138.5 -427q0 -261 138.5 -424.5t350.5 -163.5q206 0 326 117v579h155v-645q-84 -91 -208.5 -147t-278.5 -56q-182 0 -328.5 94t-230.5 264t-84 384zM600 -479 l102 368h154l-135 -368h-121z" />
<glyph unicode="&#x123;" horiz-adv-x="1136" d="M86 508q0 231 120.5 370.5t311.5 139.5q203 0 318 -150v125h153v-923q0 -120 -39 -215.5t-106 -154t-151.5 -88.5t-180.5 -30q-91 0 -182.5 24t-151.5 60v148q65 -43 149.5 -68t168.5 -25q71 0 130.5 19.5t107.5 59.5t75 108t27 158v77q-113 -147 -318 -147 q-191 0 -311.5 140t-120.5 372zM240 508q0 -168 88 -270.5t225 -102.5q93 0 168.5 46t114.5 120v412q-39 74 -114.5 120t-168.5 46q-137 0 -225 -102t-88 -269zM451 1141l135 368h121l-103 -368h-153z" />
<glyph unicode="&#x124;" horiz-adv-x="1353" d="M166 0v1434h156v-592h710v592h156v-1434h-156v692h-710v-692h-156zM403 1563l199 274h160l199 -274h-146l-133 188l-133 -188h-146z" />
<glyph unicode="&#x125;" horiz-adv-x="1079" d="M-57 1563l198 274h160l199 -274h-146l-133 188l-133 -188h-145zM139 0v1434h154v-570q55 64 141.5 109t194.5 45q157 0 240 -94.5t83 -261.5v-662h-153v625q0 245 -228 245q-82 0 -160 -46t-118 -113v-711h-154z" />
<glyph unicode="&#x126;" horiz-adv-x="1478" d="M78 1090v110h151v234h156v-234h711v234h155v-234h152v-110h-152v-1090h-155v692h-711v-692h-156v1090h-151zM385 842h711v248h-711v-248z" />
<glyph unicode="&#x127;" horiz-adv-x="1136" d="M12 1116v131h185v187h153v-187h258v-131h-258v-362q54 64 141 108.5t195 44.5q157 0 240.5 -94.5t83.5 -261.5v-551h-154v514q0 246 -227 246q-82 0 -160.5 -46.5t-118.5 -113.5v-600h-153v1116h-185z" />
<glyph unicode="&#x128;" horiz-adv-x="507" d="M-35 1591q2 99 47 163.5t117 64.5q32 0 68.5 -18t63 -39.5t59 -39.5t57.5 -18q62 0 74 106h94q-2 -99 -46.5 -163t-117.5 -64q-40 0 -85.5 28.5t-88 56.5t-74.5 28q-63 0 -74 -105h-94zM176 0v1434h156v-1434h-156z" />
<glyph unicode="&#x129;" horiz-adv-x="483" d="M-49 1214q3 100 48.5 164t117.5 64q32 0 67.5 -17.5t62 -39t58.5 -39t57 -17.5q65 0 76 105h94q-2 -100 -46.5 -165t-116.5 -65q-41 0 -86.5 29t-87.5 57.5t-74 28.5q-62 0 -74 -105h-96zM164 0v993h155v-993h-155z" />
<glyph unicode="&#x12a;" horiz-adv-x="507" d="M18 1640v119h471v-119h-471zM176 0v1434h156v-1434h-156z" />
<glyph unicode="&#x12b;" horiz-adv-x="483" d="M4 1264v116h471v-116h-471zM164 0v993h155v-993h-155z" />
<glyph unicode="&#x12c;" horiz-adv-x="507" d="M-10 1831h116q2 -77 44 -126.5t106 -49.5q63 0 104 49.5t43 126.5h115q-1 -129 -77 -209t-185 -80q-111 0 -187 80t-79 209zM176 0v1434h156v-1434h-156z" />
<glyph unicode="&#x12d;" horiz-adv-x="483" d="M-27 1452h115q2 -78 45.5 -128t110.5 -50t110 50t45 128h115q-1 -132 -77.5 -212.5t-192.5 -80.5t-193 81t-78 212zM164 0v993h155v-993h-155z" />
<glyph unicode="&#x12e;" horiz-adv-x="507" d="M156 -197q0 62 23.5 114.5t51.5 82.5h-55v1434h156v-1434q-66 -76 -66 -166q0 -59 34 -95t89 -36q39 0 68 10v-100q-37 -14 -95 -14q-94 0 -150 58.5t-56 145.5z" />
<glyph unicode="&#x12f;" horiz-adv-x="479" d="M127 1323q0 46 32.5 79.5t78.5 33.5t79 -33.5t33 -79.5t-33 -78.5t-79 -32.5t-78.5 32.5t-32.5 78.5zM139 -197q0 62 24 114.5t52 82.5h-53v993h153v-993q-65 -75 -65 -166q0 -59 34 -95t89 -36q38 0 67 10v-100q-37 -14 -94 -14q-94 0 -150.5 58.5t-56.5 145.5z" />
<glyph unicode="&#x130;" horiz-adv-x="507" d="M160 1696q0 42 27 72t69 30q43 0 69.5 -29.5t26.5 -72.5q0 -44 -26.5 -73.5t-69.5 -29.5q-42 0 -69 30t-27 73zM176 0v1434h156v-1434h-156z" />
<glyph unicode="&#x131;" horiz-adv-x="483" d="M164 0v993h155v-993h-155z" />
<glyph unicode="&#x132;" horiz-adv-x="1087" d="M174 74v162q59 -49 137.5 -79t155.5 -30q154 0 230.5 86t76.5 264v957h156v-973q0 -248 -119 -367t-322 -119q-186 0 -315 99zM174 516v918h158v-918h-158z" />
<glyph unicode="&#x134;" horiz-adv-x="890" d="M47 63v164q52 -45 121.5 -72.5t138.5 -27.5q146 0 211.5 80.5t65.5 255.5v971h155v-994q0 -237 -108 -351t-295 -114q-174 0 -289 88zM387 1563l199 274h159l199 -274h-145l-133 188l-134 -188h-145z" />
<glyph unicode="&#x135;" horiz-adv-x="481" d="M-123 -244q65 -35 133 -35q76 0 114 42.5t38 142.5v1087h153v-1069q0 -171 -68.5 -256.5t-199.5 -85.5q-114 0 -170 39v135zM-37 1178l199 276h160l198 -276h-145l-133 190l-133 -190h-146z" />
<glyph unicode="&#x136;" horiz-adv-x="1200" d="M166 0v1434h156v-609l567 609h203l-621 -656l717 -778h-215l-651 715v-715h-156zM485 -479l103 368h153l-135 -368h-121z" />
<glyph unicode="&#x137;" horiz-adv-x="989" d="M145 0v1434h154v-840l389 399h199l-445 -448l506 -545h-209l-440 477v-477h-154zM362 -479l103 368h153l-135 -368h-121z" />
<glyph unicode="&#x138;" horiz-adv-x="991" d="M145 0v993h154v-399l389 399h199l-445 -448l506 -545h-209l-440 477v-477h-154z" />
<glyph unicode="&#x139;" horiz-adv-x="1067" d="M168 0v1434h156v-1284h688v-150h-844zM178 1563l170 274h193l-219 -274h-144z" />
<glyph unicode="&#x13a;" horiz-adv-x="516" d="M131 217v1217h154v-1184q0 -70 26 -98.5t80 -28.5q48 0 78 20v-139q-60 -29 -129 -29q-209 0 -209 242zM143 1563l170 274h193l-219 -274h-144z" />
<glyph unicode="&#x13b;" horiz-adv-x="1064" d="M166 0v1434h156v-1284h688v-150h-844zM449 -479l102 368h154l-136 -368h-120z" />
<glyph unicode="&#x13c;" horiz-adv-x="516" d="M131 217v1217h154v-1184q0 -70 26 -98.5t80 -28.5q48 0 78 20v-139q-60 -29 -129 -29q-209 0 -209 242zM158 -479l102 368h154l-135 -368h-121z" />
<glyph unicode="&#x13d;" horiz-adv-x="1069" d="M166 0v1434h156v-1284h688v-150h-844zM756 1065l102 369h154l-135 -369h-121z" />
<glyph unicode="&#x13e;" horiz-adv-x="677" d="M133 217v1217h154v-1184q0 -70 26 -98.5t80 -28.5q48 0 78 20v-139q-60 -29 -129 -29q-209 0 -209 242zM442 1065l103 369h153l-135 -369h-121z" />
<glyph unicode="&#x13f;" horiz-adv-x="1064" d="M166 0v1434h156v-1284h688v-150h-844zM791 782q0 47 33.5 81t80.5 34t81 -34t34 -81t-34 -80.5t-81 -33.5t-80.5 33.5t-33.5 80.5z" />
<glyph unicode="&#x140;" horiz-adv-x="743" d="M141 217v1217h154v-1184q0 -70 26 -98.5t80 -28.5q48 0 78 20v-139q-60 -29 -129 -29q-209 0 -209 242zM440 780q0 47 34 81t81 34t81 -34t34 -81t-34 -80.5t-81 -33.5t-81 33.5t-34 80.5z" />
<glyph unicode="&#x141;" horiz-adv-x="1099" d="M31 543v145l170 119v627h155v-523l275 195v-143l-275 -195v-618h688v-150h-843v664z" />
<glyph unicode="&#x142;" horiz-adv-x="679" d="M59 530v146l183 125v633h153v-527l180 125v-143l-180 -125v-514q0 -70 26.5 -98.5t80.5 -28.5q48 0 78 20v-139q-60 -29 -129 -29q-209 0 -209 242v440z" />
<glyph unicode="&#x143;" horiz-adv-x="1378" d="M166 0v1434h137l756 -1143v1143h153v-1434h-133l-760 1145v-1145h-153zM604 1563l170 274h193l-219 -274h-144z" />
<glyph unicode="&#x144;" horiz-adv-x="1087" d="M145 0v993h154v-129q55 64 141.5 109t194.5 45q157 0 240 -94.5t83 -261.5v-662h-153v625q0 245 -227 245q-83 0 -161.5 -46t-117.5 -113v-711h-154zM432 1178l170 276h193l-222 -276h-141z" />
<glyph unicode="&#x145;" horiz-adv-x="1378" d="M166 0v1434h137l756 -1143v1143h153v-1434h-133l-760 1145v-1145h-153zM559 -479l103 368h153l-135 -368h-121z" />
<glyph unicode="&#x146;" horiz-adv-x="1087" d="M145 0v993h154v-129q55 64 141.5 109t194.5 45q157 0 240 -94.5t83 -261.5v-662h-153v625q0 245 -227 245q-83 0 -161.5 -46t-117.5 -113v-711h-154zM395 -479l103 368h153l-135 -368h-121z" />
<glyph unicode="&#x147;" horiz-adv-x="1378" d="M166 0v1434h137l756 -1143v1143h153v-1434h-133l-760 1145v-1145h-153zM408 1837h145l133 -188l131 188h148l-199 -274h-160z" />
<glyph unicode="&#x148;" horiz-adv-x="1087" d="M145 0v993h154v-129q55 64 141.5 109t194.5 45q157 0 240 -94.5t83 -261.5v-662h-153v625q0 245 -227 245q-83 0 -161.5 -46t-117.5 -113v-711h-154zM283 1454h145l133 -188l131 188h148l-199 -276h-160z" />
<glyph unicode="&#x149;" horiz-adv-x="1273" d="M37 1065l102 369h154l-135 -369h-121zM332 0v993h153v-129q55 64 141.5 109t194.5 45q157 0 240.5 -94.5t83.5 -261.5v-662h-154v625q0 245 -227 245q-83 0 -161.5 -46t-117.5 -113v-711h-153z" />
<glyph unicode="&#x14a;" horiz-adv-x="1378" d="M166 0v1434h137l756 -1143v1143h153v-1450q0 -204 -86.5 -303t-244.5 -99q-118 0 -195 41v158q67 -47 160 -47q213 0 213 270v25l-740 1116v-1145h-153z" />
<glyph unicode="&#x14b;" horiz-adv-x="1087" d="M145 0v993h154v-129q55 64 141.5 109t194.5 45q157 0 240 -94.5t83 -261.5v-738q0 -171 -68.5 -256.5t-199.5 -85.5q-114 0 -170 39v141q63 -34 133 -34q76 0 114 42t38 142v713q0 245 -227 245q-83 0 -161.5 -46t-117.5 -113v-711h-154z" />
<glyph unicode="&#x14c;" horiz-adv-x="1499" d="M119 717q0 214 79.5 383t223.5 263.5t328 94.5q138 0 255.5 -55.5t199.5 -153t128.5 -235t46.5 -297.5q0 -214 -79 -383t-223 -264t-328 -95t-328 95t-223.5 264t-79.5 383zM279 717q0 -259 132 -424.5t339 -165.5t339 165.5t132 424.5t-132 424.5t-339 165.5 t-339 -165.5t-132 -424.5zM514 1640v119h471v-119h-471z" />
<glyph unicode="&#x14d;" horiz-adv-x="1105" d="M82 496q0 145 56.5 263t165 188.5t249.5 70.5t249.5 -70.5t165 -188.5t56.5 -263t-56.5 -263t-165 -188t-249.5 -70t-249.5 70t-165 188t-56.5 263zM236 496q0 -169 88 -275t229 -106t229 106t88 275t-88 276t-229 107t-229 -107t-88 -276zM319 1264v116h472v-116h-472z " />
<glyph unicode="&#x14e;" horiz-adv-x="1499" d="M119 717q0 214 79.5 383t223.5 263.5t328 94.5q138 0 255.5 -55.5t199.5 -153t128.5 -235t46.5 -297.5q0 -214 -79 -383t-223 -264t-328 -95t-328 95t-223.5 264t-79.5 383zM279 717q0 -259 132 -424.5t339 -165.5t339 165.5t132 424.5t-132 424.5t-339 165.5 t-339 -165.5t-132 -424.5zM485 1843h117q2 -77 44 -126.5t106 -49.5q63 0 104 49.5t43 126.5h115q-1 -129 -77 -209t-185 -80q-111 0 -187.5 80t-79.5 209z" />
<glyph unicode="&#x14f;" horiz-adv-x="1105" d="M82 496q0 145 56.5 263t165 188.5t249.5 70.5t249.5 -70.5t165 -188.5t56.5 -263t-56.5 -263t-165 -188t-249.5 -70t-249.5 70t-165 188t-56.5 263zM236 496q0 -169 88 -275t229 -106t229 106t88 275t-88 276t-229 107t-229 -107t-88 -276zM285 1458h114q2 -78 45.5 -128 t110.5 -50t110.5 50t45.5 128h114q-1 -132 -77.5 -212.5t-192.5 -80.5t-192.5 80.5t-77.5 212.5z" />
<glyph unicode="&#x150;" horiz-adv-x="1499" d="M119 717q0 214 79.5 383t223.5 263.5t328 94.5q138 0 255.5 -55.5t199.5 -153t128.5 -235t46.5 -297.5q0 -214 -79 -383t-223 -264t-328 -95t-328 95t-223.5 264t-79.5 383zM279 717q0 -259 132 -424.5t339 -165.5t339 165.5t132 424.5t-132 424.5t-339 165.5 t-339 -165.5t-132 -424.5zM520 1563l170 274h187l-220 -274h-137zM840 1563l172 274h188l-221 -274h-139z" />
<glyph unicode="&#x151;" horiz-adv-x="1105" d="M82 496q0 145 56.5 263t165 188.5t249.5 70.5t249.5 -70.5t165 -188.5t56.5 -263t-56.5 -263t-165 -188t-249.5 -70t-249.5 70t-165 188t-56.5 263zM236 496q0 -169 88 -275t229 -106t229 106t88 275t-88 276t-229 107t-229 -107t-88 -276zM305 1178l170 276h187 l-218 -276h-139zM627 1178l170 276h188l-221 -276h-137z" />
<glyph unicode="&#x152;" horiz-adv-x="1988" d="M119 717q0 211 84.5 374t238.5 253t353 90h1091v-150h-704v-442h575v-150h-575v-542h729v-150h-1116q-199 0 -353 90t-238.5 253t-84.5 374zM279 717q0 -262 141.5 -414.5t392.5 -152.5h213v1134h-213q-251 0 -392.5 -153t-141.5 -414z" />
<glyph unicode="&#x153;" horiz-adv-x="1796" d="M82 496q0 145 56.5 263t165 188.5t249.5 70.5q127 0 228 -61.5t161 -168.5q56 109 152 169.5t217 60.5q87 0 157.5 -31t116.5 -81.5t77 -119t44.5 -139.5t13.5 -147v-43h-694q12 -156 110 -249t255 -93q148 0 266 78v-136q-110 -82 -301 -82q-133 0 -240.5 61.5 t-169.5 172.5q-60 -110 -161 -172t-232 -62q-141 0 -249.5 70t-165 188t-56.5 263zM236 496q0 -169 88 -275t229 -106t229 106t88 275t-88 276t-229 107t-229 -107t-88 -276zM1028 580h537q-1 40 -9 79.5t-27.5 79.5t-48 70.5t-73 50t-100.5 19.5q-120 0 -194.5 -87.5 t-84.5 -211.5z" />
<glyph unicode="&#x154;" horiz-adv-x="1308" d="M166 0v1434h565q187 0 293 -108.5t106 -285.5q0 -149 -75 -252.5t-209 -130.5l399 -657h-188l-389 641h-346v-641h-156zM322 784h397q119 0 185.5 65.5t66.5 186.5q0 118 -66.5 183t-185.5 65h-397v-500zM469 1563l170 274h192l-219 -274h-143z" />
<glyph unicode="&#x155;" horiz-adv-x="673" d="M145 0v993h154v-172q42 80 136 138t206 59v-160q-114 2 -215.5 -58t-126.5 -145v-655h-154zM240 1178l170 276h192l-221 -276h-141z" />
<glyph unicode="&#x156;" horiz-adv-x="1308" d="M166 0v1434h565q187 0 293 -108.5t106 -285.5q0 -149 -75 -252.5t-209 -130.5l399 -657h-188l-389 641h-346v-641h-156zM322 784h397q119 0 185.5 65.5t66.5 186.5q0 118 -66.5 183t-185.5 65h-397v-500zM498 -479l102 368h154l-136 -368h-120z" />
<glyph unicode="&#x157;" horiz-adv-x="673" d="M47 -479l103 368h153l-135 -368h-121zM145 0v993h154v-172q42 80 136 138t206 59v-160q-114 2 -215.5 -58t-126.5 -145v-655h-154z" />
<glyph unicode="&#x158;" horiz-adv-x="1308" d="M166 0v1434h565q187 0 293 -108.5t106 -285.5q0 -149 -75 -252.5t-209 -130.5l399 -657h-188l-389 641h-346v-641h-156zM322 784h397q119 0 185.5 65.5t66.5 186.5q0 118 -66.5 183t-185.5 65h-397v-500zM326 1837h145l133 -188l131 188h148l-199 -274h-160z" />
<glyph unicode="&#x159;" horiz-adv-x="667" d="M92 1454h146l133 -188l131 188h147l-198 -276h-160zM139 0v993h154v-172q42 80 136 138t206 59v-160q-114 2 -215.5 -58t-126.5 -145v-655h-154z" />
<glyph unicode="&#x15a;" horiz-adv-x="1116" d="M86 119v164q78 -70 189.5 -113t246.5 -43q142 0 238 70t96 186q0 51 -17.5 92t-43.5 69t-71 53.5t-86 41t-103 35.5q-94 31 -140 48.5t-113.5 53.5t-99 73.5t-56 98t-24.5 137.5q0 164 117.5 268.5t323.5 104.5q243 0 393 -110v-162q-77 56 -180.5 88.5t-204.5 32.5 q-142 0 -215.5 -63t-73.5 -157q0 -100 76.5 -155t286.5 -121q64 -20 115.5 -41.5t105 -57.5t89 -79t58.5 -106t23 -138q0 -130 -65.5 -225.5t-172.5 -142t-239 -46.5q-139 0 -267 43t-186 101zM418 1563l170 274h192l-219 -274h-143z" />
<glyph unicode="&#x15b;" horiz-adv-x="905" d="M82 70v155q161 -110 348 -110q103 0 165 43t62 110q0 20 -6 37.5t-14 30t-25.5 24.5t-30.5 19.5t-40 17t-43 14t-51 14.5t-52 15q-75 21 -126 44.5t-92.5 58t-61 83t-19.5 113.5q0 126 95 202.5t264 76.5q197 0 315 -78v-147q-138 86 -305 86q-102 0 -156.5 -41 t-54.5 -103q0 -38 19 -66t55 -46.5t72.5 -30t88.5 -25.5q11 -3 17 -4q72 -19 123.5 -41.5t96 -56.5t67 -84t22.5 -115q0 -132 -104.5 -211.5t-268.5 -79.5q-108 0 -204 28t-156 67zM315 1178l170 276h193l-221 -276h-142z" />
<glyph unicode="&#x15c;" horiz-adv-x="1116" d="M86 119v164q78 -70 189.5 -113t246.5 -43q142 0 238 70t96 186q0 51 -17.5 92t-43.5 69t-71 53.5t-86 41t-103 35.5q-94 31 -140 48.5t-113.5 53.5t-99 73.5t-56 98t-24.5 137.5q0 164 117.5 268.5t323.5 104.5q243 0 393 -110v-162q-77 56 -180.5 88.5t-204.5 32.5 q-142 0 -215.5 -63t-73.5 -157q0 -100 76.5 -155t286.5 -121q64 -20 115.5 -41.5t105 -57.5t89 -79t58.5 -106t23 -138q0 -130 -65.5 -225.5t-172.5 -142t-239 -46.5q-139 0 -267 43t-186 101zM281 1563l198 274h160l199 -274h-146l-133 188l-133 -188h-145z" />
<glyph unicode="&#x15d;" horiz-adv-x="905" d="M82 70v155q161 -110 348 -110q103 0 165 43t62 110q0 20 -6 37.5t-14 30t-25.5 24.5t-30.5 19.5t-40 17t-43 14t-51 14.5t-52 15q-75 21 -126 44.5t-92.5 58t-61 83t-19.5 113.5q0 126 95 202.5t264 76.5q197 0 315 -78v-147q-138 86 -305 86q-102 0 -156.5 -41 t-54.5 -103q0 -38 19 -66t55 -46.5t72.5 -30t88.5 -25.5q11 -3 17 -4q72 -19 123.5 -41.5t96 -56.5t67 -84t22.5 -115q0 -132 -104.5 -211.5t-268.5 -79.5q-108 0 -204 28t-156 67zM172 1178l199 276h159l199 -276h-147l-131 190l-134 -190h-145z" />
<glyph unicode="&#x15e;" horiz-adv-x="1118" d="M86 119v164q78 -70 189.5 -113t246.5 -43q142 0 238 70t96 186q0 51 -17.5 92t-43.5 69t-71 53.5t-86 41t-103 35.5q-94 31 -140 48.5t-113.5 53.5t-99 73.5t-56 98t-24.5 137.5q0 164 117.5 268.5t323.5 104.5q243 0 393 -110v-162q-77 56 -180.5 88.5t-204.5 32.5 q-142 0 -215.5 -63t-73.5 -157q0 -100 76.5 -155t286.5 -121q64 -20 115.5 -41.5t105 -57.5t89 -79t58.5 -106t23 -138q0 -168 -105 -273.5t-274 -131.5l-113 -254h-178l158 247q-131 6 -247.5 47t-170.5 95z" />
<glyph unicode="&#x15f;" horiz-adv-x="905" d="M82 70v155q161 -110 348 -110q103 0 165 43t62 110q0 20 -6 37.5t-14 30t-25.5 24.5t-30.5 19.5t-40 17t-43 14t-51 14.5t-52 15q-75 21 -126 44.5t-92.5 58t-61 83t-19.5 113.5q0 126 95 202.5t264 76.5q197 0 315 -78v-147q-138 86 -305 86q-102 0 -156.5 -41 t-54.5 -103q0 -38 19 -66t55 -46.5t72.5 -30t88.5 -25.5q11 -3 17 -4q72 -19 123.5 -41.5t96 -56.5t67 -84t22.5 -115q0 -113 -78.5 -188t-208.5 -96l-112 -252h-178l157 247q-96 6 -179 32t-134 61z" />
<glyph unicode="&#x160;" horiz-adv-x="1116" d="M86 119v164q78 -70 189.5 -113t246.5 -43q142 0 238 70t96 186q0 51 -17.5 92t-43.5 69t-71 53.5t-86 41t-103 35.5q-94 31 -140 48.5t-113.5 53.5t-99 73.5t-56 98t-24.5 137.5q0 164 117.5 268.5t323.5 104.5q243 0 393 -110v-162q-77 56 -180.5 88.5t-204.5 32.5 q-142 0 -215.5 -63t-73.5 -157q0 -100 76.5 -155t286.5 -121q64 -20 115.5 -41.5t105 -57.5t89 -79t58.5 -106t23 -138q0 -130 -65.5 -225.5t-172.5 -142t-239 -46.5q-139 0 -267 43t-186 101zM258 1837h145l134 -188l131 188h147l-199 -274h-159z" />
<glyph unicode="&#x161;" horiz-adv-x="905" d="M82 70v155q161 -110 348 -110q103 0 165 43t62 110q0 20 -6 37.5t-14 30t-25.5 24.5t-30.5 19.5t-40 17t-43 14t-51 14.5t-52 15q-75 21 -126 44.5t-92.5 58t-61 83t-19.5 113.5q0 126 95 202.5t264 76.5q197 0 315 -78v-147q-138 86 -305 86q-102 0 -156.5 -41 t-54.5 -103q0 -38 19 -66t55 -46.5t72.5 -30t88.5 -25.5q11 -3 17 -4q72 -19 123.5 -41.5t96 -56.5t67 -84t22.5 -115q0 -132 -104.5 -211.5t-268.5 -79.5q-108 0 -204 28t-156 67zM174 1454h145l134 -188l131 188h147l-199 -276h-159z" />
<glyph unicode="&#x162;" horiz-adv-x="1126" d="M61 1284v150h1006v-150h-426v-1284h-14l-121 -270h-178l172 270h-15v1284h-424z" />
<glyph unicode="&#x163;" horiz-adv-x="770" d="M45 856v137h197v303h153v-303h291v-137h-291v-559q0 -93 37 -133.5t111 -40.5q65 0 133 37v-142q-54 -35 -144 -41l-110 -247h-178l164 258q-80 24 -123 97.5t-43 195.5v575h-197z" />
<glyph unicode="&#x164;" horiz-adv-x="1126" d="M61 1284v150h1006v-150h-426v-1284h-156v1284h-424zM287 1837h145l133 -188l131 188h148l-199 -274h-160z" />
<glyph unicode="&#x165;" horiz-adv-x="1024" d="M63 856v137h197v303h154v-303h291v-137h-291v-559q0 -93 37 -133.5t110 -40.5q65 0 133 37v-142q-64 -43 -180 -43q-120 0 -187 77t-67 229v575h-197zM786 1065l103 369h153l-135 -369h-121z" />
<glyph unicode="&#x166;" horiz-adv-x="1126" d="M61 1284v150h1006v-150h-426v-459h233v-147h-233v-678h-156v678h-235v147h235v459h-424z" />
<glyph unicode="&#x167;" horiz-adv-x="770" d="M45 471v137h197v248h-197v137h197v303h153v-303h291v-137h-291v-248h291v-137h-291v-174q0 -93 37 -133.5t111 -40.5q65 0 133 37v-142q-64 -43 -180 -43q-120 0 -187 77t-67 229v190h-197z" />
<glyph unicode="&#x168;" horiz-adv-x="1325" d="M147 567v867h156v-871q0 -221 97 -328.5t262 -107.5t261.5 107.5t96.5 328.5v871h156v-867q0 -152 -39 -267.5t-109.5 -185.5t-162 -104.5t-203.5 -34.5t-204 34.5t-162.5 104.5t-109.5 185.5t-39 267.5zM377 1591q2 99 47 163.5t117 64.5q32 0 68 -18t63 -39.5t59 -39.5 t57 -18q62 0 74 106h94q-2 -99 -46 -163t-117 -64q-40 0 -85.5 28.5t-88 56.5t-74.5 28q-63 0 -74 -105h-94z" />
<glyph unicode="&#x169;" horiz-adv-x="1089" d="M131 332v661h154v-624q0 -246 227 -246q82 0 160.5 46.5t118.5 113.5v710h153v-993h-153v129q-55 -64 -141.5 -109t-194.5 -45q-157 0 -240.5 95t-83.5 262zM248 1214q3 100 48.5 164t117.5 64q32 0 67.5 -17.5t62 -39t58.5 -39t57 -17.5q65 0 76 105h94 q-2 -100 -46.5 -165t-116.5 -65q-41 0 -86.5 29t-87.5 57.5t-74 28.5q-62 0 -74 -105h-96z" />
<glyph unicode="&#x16a;" horiz-adv-x="1325" d="M147 567v867h156v-871q0 -221 97 -328.5t262 -107.5t261.5 107.5t96.5 328.5v871h156v-867q0 -152 -39 -267.5t-109.5 -185.5t-162 -104.5t-203.5 -34.5t-204 34.5t-162.5 104.5t-109.5 185.5t-39 267.5zM430 1640v119h471v-119h-471z" />
<glyph unicode="&#x16b;" horiz-adv-x="1089" d="M131 332v661h154v-624q0 -246 227 -246q82 0 160.5 46.5t118.5 113.5v710h153v-993h-153v129q-55 -64 -141.5 -109t-194.5 -45q-157 0 -240.5 95t-83.5 262zM303 1264v116h471v-116h-471z" />
<glyph unicode="&#x16c;" horiz-adv-x="1325" d="M147 567v867h156v-871q0 -221 97 -328.5t262 -107.5t261.5 107.5t96.5 328.5v871h156v-867q0 -152 -39 -267.5t-109.5 -185.5t-162 -104.5t-203.5 -34.5t-204 34.5t-162.5 104.5t-109.5 185.5t-39 267.5zM397 1831h117q2 -77 44 -126.5t106 -49.5q63 0 104 49.5t43 126.5 h115q-1 -129 -77 -209t-185 -80q-111 0 -187.5 80t-79.5 209z" />
<glyph unicode="&#x16d;" horiz-adv-x="1089" d="M131 332v661h154v-624q0 -246 227 -246q82 0 160.5 46.5t118.5 113.5v710h153v-993h-153v129q-55 -64 -141.5 -109t-194.5 -45q-157 0 -240.5 95t-83.5 262zM264 1452h115q2 -78 45.5 -128t110.5 -50t110 50t45 128h115q-1 -132 -77.5 -212.5t-192.5 -80.5t-193 81 t-78 212z" />
<glyph unicode="&#x16e;" horiz-adv-x="1325" d="M147 567v867h156v-871q0 -221 97 -328.5t262 -107.5t261.5 107.5t96.5 328.5v871h156v-867q0 -152 -39 -267.5t-109.5 -185.5t-162 -104.5t-203.5 -34.5t-204 34.5t-162.5 104.5t-109.5 185.5t-39 267.5zM477 1702q0 81 55 138.5t132 57.5q78 0 133 -57t55 -139 t-55 -138.5t-133 -56.5q-77 0 -132 57t-55 138zM553 1702q0 -50 33 -84.5t78 -34.5q46 0 79 34.5t33 84.5q0 52 -32.5 85.5t-79.5 33.5q-45 0 -78 -34t-33 -85z" />
<glyph unicode="&#x16f;" horiz-adv-x="1089" d="M131 332v661h154v-624q0 -246 227 -246q82 0 160.5 46.5t118.5 113.5v710h153v-993h-153v129q-55 -64 -141.5 -109t-194.5 -45q-157 0 -240.5 95t-83.5 262zM365 1325q0 81 54.5 138t131.5 57t131.5 -57t54.5 -138q0 -82 -54.5 -139.5t-131.5 -57.5t-131.5 57.5 t-54.5 139.5zM438 1325q0 -52 33 -85.5t80 -33.5t80 33.5t33 85.5q0 50 -33.5 84.5t-79.5 34.5t-79.5 -34.5t-33.5 -84.5z" />
<glyph unicode="&#x170;" horiz-adv-x="1325" d="M147 567v867h156v-871q0 -221 97 -328.5t262 -107.5t261.5 107.5t96.5 328.5v871h156v-867q0 -152 -39 -267.5t-109.5 -185.5t-162 -104.5t-203.5 -34.5t-204 34.5t-162.5 104.5t-109.5 185.5t-39 267.5zM403 1563l170 274h187l-219 -274h-138zM723 1563l172 274h188 l-221 -274h-139z" />
<glyph unicode="&#x171;" horiz-adv-x="1089" d="M131 332v661h154v-624q0 -246 227 -246q82 0 160.5 46.5t118.5 113.5v710h153v-993h-153v129q-55 -64 -141.5 -109t-194.5 -45q-157 0 -240.5 95t-83.5 262zM285 1178l170 276h186l-217 -276h-139zM606 1178l170 276h189l-222 -276h-137z" />
<glyph unicode="&#x172;" horiz-adv-x="1325" d="M147 567v867h156v-871q0 -221 97 -328.5t262 -107.5t261.5 107.5t96.5 328.5v871h156v-867q0 -99 -15.5 -179.5t-40.5 -136t-65 -102.5t-78.5 -76.5t-91.5 -60.5q-123 -69 -123 -168q0 -59 34 -95t89 -36q35 0 67 11v-101q-37 -14 -94 -14q-94 0 -150.5 59t-56.5 146 q0 91 58 163q-14 -2 -47 -2q-112 0 -204 34.5t-162.5 104.5t-109.5 185.5t-39 267.5z" />
<glyph unicode="&#x173;" horiz-adv-x="1091" d="M131 332v661h154v-624q0 -246 227 -246q82 0 160.5 46.5t118.5 113.5v710h153v-993q-65 -75 -65 -166q0 -59 33.5 -95t88.5 -36q39 0 68 10v-100q-37 -14 -94 -14q-94 0 -150.5 58.5t-56.5 145.5q0 62 24 114.5t52 82.5h-53v129q-55 -64 -141.5 -109t-194.5 -45 q-157 0 -240.5 95t-83.5 262z" />
<glyph unicode="&#x174;" horiz-adv-x="1884" d="M61 1434h177l325 -1178l318 1180h127l315 -1180l330 1178h172l-430 -1442h-140l-311 1165l-313 -1165h-142zM668 1563l198 274h160l199 -274h-146l-133 188l-133 -188h-145z" />
<glyph unicode="&#x175;" horiz-adv-x="1476" d="M59 993h156l227 -762l224 762h127l225 -762l225 762h158l-309 -1001h-138l-227 764l-227 -764h-133zM449 1178l198 276h160l199 -276h-148l-131 190l-133 -190h-145z" />
<glyph unicode="&#x176;" horiz-adv-x="1193" d="M35 1434h182l383 -629l383 629h178l-487 -775v-659h-156v655zM326 1563l198 274h160l199 -274h-146l-133 188l-133 -188h-145z" />
<glyph unicode="&#x177;" horiz-adv-x="997" d="M43 993h168l293 -772l280 772h166l-424 -1104q-60 -157 -135.5 -232t-185.5 -75q-94 0 -144 29v141q50 -31 121 -31q83 0 133 69t113 247zM225 1178l199 276h160l198 -276h-147l-131 190l-133 -190h-146z" />
<glyph unicode="&#x178;" horiz-adv-x="1193" d="M35 1434h182l383 -629l383 629h178l-487 -775v-659h-156v655zM324 1694q0 41 29.5 70.5t70.5 29.5t70.5 -29.5t29.5 -70.5t-29.5 -71t-70.5 -30t-70.5 30t-29.5 71zM680 1694q0 41 29.5 70.5t70.5 29.5t71 -29.5t30 -70.5t-30 -71t-71 -30t-70.5 30t-29.5 71z" />
<glyph unicode="&#x179;" horiz-adv-x="1157" d="M88 0v115l754 1169h-715v150h911v-113l-751 -1171h780v-150h-979zM471 1563l170 274h193l-220 -274h-143z" />
<glyph unicode="&#x17a;" horiz-adv-x="903" d="M63 0v104l543 752h-508v137h711v-108l-541 -748h570v-137h-775zM330 1178l170 276h192l-221 -276h-141z" />
<glyph unicode="&#x17b;" horiz-adv-x="1157" d="M88 0v115l754 1169h-715v150h911v-113l-751 -1171h780v-150h-979zM481 1696q0 42 27.5 72t69.5 30q43 0 69.5 -29.5t26.5 -72.5q0 -44 -26.5 -73.5t-69.5 -29.5q-42 0 -69.5 30t-27.5 73z" />
<glyph unicode="&#x17c;" horiz-adv-x="903" d="M63 0v104l543 752h-508v137h711v-108l-541 -748h570v-137h-775zM350 1323q0 43 30 72.5t73 29.5t72.5 -29.5t29.5 -72.5t-29.5 -72.5t-72.5 -29.5t-73 29.5t-30 72.5z" />
<glyph unicode="&#x17d;" horiz-adv-x="1157" d="M88 0v115l754 1169h-715v150h911v-113l-751 -1171h780v-150h-979zM303 1837h146l133 -188l131 188h147l-198 -274h-160z" />
<glyph unicode="&#x17e;" horiz-adv-x="903" d="M63 0v104l543 752h-508v137h711v-108l-541 -748h570v-137h-775zM172 1454h145l134 -188l131 188h147l-199 -276h-159z" />
<glyph unicode="&#x17f;" horiz-adv-x="636" d="M51 856v137h166v137q0 149 64 234.5t198 85.5q104 0 187 -35v-135q-86 33 -144 33q-151 0 -151 -178v-1135h-154v856h-166z" />
<glyph unicode="&#x192;" horiz-adv-x="886" d="M-135 -248q59 -33 129 -33q95 0 152 70t77 219l94 684h-223v135h242l31 228q25 181 112.5 288t241.5 107q90 0 158 -35v-135q-59 33 -129 33q-191 0 -230 -289l-26 -197h274v-135h-293l-98 -715q-25 -181 -112.5 -288t-241.5 -107q-90 0 -158 35v135z" />
<glyph unicode="&#x218;" horiz-adv-x="1116" d="M86 119v164q78 -70 189.5 -113t246.5 -43q142 0 238 70t96 186q0 51 -17.5 92t-43.5 69t-71 53.5t-86 41t-103 35.5q-94 31 -140 48.5t-113.5 53.5t-99 73.5t-56 98t-24.5 137.5q0 164 117.5 268.5t323.5 104.5q243 0 393 -110v-162q-77 56 -180.5 88.5t-204.5 32.5 q-142 0 -215.5 -63t-73.5 -157q0 -100 76.5 -155t286.5 -121q64 -20 115.5 -41.5t105 -57.5t89 -79t58.5 -106t23 -138q0 -130 -65.5 -225.5t-172.5 -142t-239 -46.5q-139 0 -267 43t-186 101zM395 -479l103 368h153l-135 -368h-121z" />
<glyph unicode="&#x219;" horiz-adv-x="905" d="M82 70v155q161 -110 348 -110q103 0 165 43t62 110q0 20 -6 37.5t-14 30t-25.5 24.5t-30.5 19.5t-40 17t-43 14t-51 14.5t-52 15q-75 21 -126 44.5t-92.5 58t-61 83t-19.5 113.5q0 126 95 202.5t264 76.5q197 0 315 -78v-147q-138 86 -305 86q-102 0 -156.5 -41 t-54.5 -103q0 -38 19 -66t55 -46.5t72.5 -30t88.5 -25.5q11 -3 17 -4q72 -19 123.5 -41.5t96 -56.5t67 -84t22.5 -115q0 -132 -104.5 -211.5t-268.5 -79.5q-108 0 -204 28t-156 67zM297 -479l102 368h154l-135 -368h-121z" />
<glyph unicode="&#x21a;" horiz-adv-x="1126" d="M61 1284v150h1006v-150h-426v-1284h-156v1284h-424zM377 -479l102 368h154l-135 -368h-121z" />
<glyph unicode="&#x21b;" horiz-adv-x="770" d="M45 856v137h197v303h153v-303h291v-137h-291v-559q0 -93 37 -133.5t111 -40.5q65 0 133 37v-142q-64 -43 -180 -43q-120 0 -187 77t-67 229v575h-197zM313 -479l103 368h153l-135 -368h-121z" />
<glyph unicode="&#x2c6;" horiz-adv-x="948" d="M197 1178l198 276h160l199 -276h-148l-131 190l-133 -190h-145z" />
<glyph unicode="&#x2c7;" horiz-adv-x="927" d="M158 1454h145l133 -188l131 188h148l-199 -276h-160z" />
<glyph unicode="&#x2d8;" horiz-adv-x="907" d="M184 1452h115q2 -78 45.5 -128t110.5 -50t110 50t45 128h115q-1 -132 -77.5 -212.5t-192.5 -80.5t-193 81t-78 212z" />
<glyph unicode="&#x2d9;" horiz-adv-x="978" d="M387 1323q0 43 29.5 72.5t72.5 29.5t73 -29.5t30 -72.5t-30 -72.5t-73 -29.5t-72.5 29.5t-29.5 72.5z" />
<glyph unicode="&#x2da;" horiz-adv-x="964" d="M295 1325q0 81 54.5 138t131.5 57t132 -57t55 -138t-55 -139t-132 -58t-131.5 57.5t-54.5 139.5zM369 1325q0 -52 32.5 -85.5t79.5 -33.5t80 33.5t33 85.5q0 50 -33.5 84.5t-79.5 34.5t-79 -34.5t-33 -84.5z" />
<glyph unicode="&#x2db;" horiz-adv-x="905" d="M346 -186q0 62 24 114t52 82h100q-65 -75 -65 -166q0 -59 34 -95t89 -36q35 0 67 11v-101q-37 -14 -94 -14q-94 0 -150.5 59t-56.5 146z" />
<glyph unicode="&#x2dc;" horiz-adv-x="917" d="M166 1214q3 100 48.5 164t117.5 64q32 0 67.5 -17.5t62 -39t59 -39t57.5 -17.5q64 0 75 105h95q-2 -100 -47 -165t-117 -65q-32 0 -68 18t-62.5 39.5t-59 39.5t-58.5 18q-62 0 -74 -105h-96z" />
<glyph unicode="&#x2dd;" horiz-adv-x="1040" d="M186 1178l170 276h187l-217 -276h-140zM508 1178l170 276h188l-221 -276h-137z" />
<glyph unicode="&#x3a9;" horiz-adv-x="1427" d="M164 756q0 201 66 359.5t192 250.5t291 92t291 -92t192 -250.5t66 -359.5q0 -181 -62 -340t-156 -266h209v-150h-391v125q100 97 170 258t70 348q0 260 -107.5 418t-281.5 158t-281.5 -158t-107.5 -418q0 -187 69.5 -348t169.5 -258v-125h-391v150h209 q-94 107 -155.5 266t-61.5 340z" />
<glyph unicode="&#x3c0;" horiz-adv-x="1226" d="M68 856v137h1054v-137h-174v-618q0 -105 96 -105q38 0 72 19v-140q-52 -24 -125 -24q-196 0 -196 225v643h-408v-856h-154v856h-165z" />
<glyph unicode="&#x401;" d="M166 0v1434h870v-150h-714v-442h585v-150h-585v-542h739v-150h-895zM322 1694q0 41 29.5 70.5t70.5 29.5t70.5 -29.5t29.5 -70.5t-29.5 -71t-70.5 -30t-70.5 30t-29.5 71zM678 1694q0 41 29.5 70.5t70.5 29.5t71 -29.5t30 -70.5t-30 -71t-71 -30t-70.5 30t-29.5 71z" />
<glyph unicode="&#x402;" horiz-adv-x="1357" d="M61 1284v150h881v-150h-455v-508q160 80 344 80q198 0 322.5 -126t124.5 -324q0 -190 -107 -310.5t-288 -120.5q-92 0 -183 35v154q80 -37 162 -37q118 0 190 77.5t72 205.5q0 124 -83.5 209.5t-229.5 85.5q-175 0 -324 -89v-616h-157v1284h-269z" />
<glyph unicode="&#x403;" horiz-adv-x="1083" d="M166 0v1434h852v-150h-696v-1284h-156zM473 1563l170 274h193l-220 -274h-143z" />
<glyph unicode="&#x404;" horiz-adv-x="1218" d="M119 717q0 162 48.5 300.5t134 235t205.5 151t259 54.5q194 0 338 -96v-164q-151 109 -334 109q-193 0 -326.5 -138.5t-158.5 -361.5h567v-148h-569q17 -237 154.5 -384.5t340.5 -147.5t355 131v-166q-149 -117 -367 -117q-138 0 -258 54.5t-205.5 151t-134.5 235.5 t-49 301z" />
<glyph unicode="&#x405;" horiz-adv-x="1116" d="M86 119v164q78 -70 189.5 -113t246.5 -43q142 0 238 70t96 186q0 51 -17.5 92t-43.5 69t-71 53.5t-86 41t-103 35.5q-94 31 -140 48.5t-113.5 53.5t-99 73.5t-56 98t-24.5 137.5q0 164 117.5 268.5t323.5 104.5q243 0 393 -110v-162q-77 56 -180.5 88.5t-204.5 32.5 q-142 0 -215.5 -63t-73.5 -157q0 -100 76.5 -155t286.5 -121q64 -20 115.5 -41.5t105 -57.5t89 -79t58.5 -106t23 -138q0 -130 -65.5 -225.5t-172.5 -142t-239 -46.5q-139 0 -267 43t-186 101z" />
<glyph unicode="&#x406;" horiz-adv-x="507" d="M176 0v1434h156v-1434h-156z" />
<glyph unicode="&#x407;" horiz-adv-x="505" d="M-23 1694q0 41 30 70.5t71 29.5t70.5 -29.5t29.5 -70.5t-29.5 -71t-70.5 -30t-71 30t-30 71zM176 0v1434h156v-1434h-156zM334 1694q0 41 29.5 70.5t70.5 29.5t71 -29.5t30 -70.5t-30 -71t-71 -30t-70.5 30t-29.5 71z" />
<glyph unicode="&#x408;" horiz-adv-x="903" d="M59 63v164q52 -45 121.5 -72.5t138.5 -27.5q146 0 211.5 80.5t65.5 255.5v971h156v-994q0 -237 -108.5 -351t-295.5 -114q-174 0 -289 88z" />
<glyph unicode="&#x409;" horiz-adv-x="1978" d="M20 2v148q29 -5 58 -5q39 2 71 19.5t56 54t42 80.5t30.5 112.5t20.5 134.5t13.5 162t8 180.5t4.5 203.5l6 342h782v-529h332q213 0 333.5 -125t120.5 -327t-121 -327.5t-333 -125.5h-486v1284h-477l-6 -323q-3 -141 -9 -249.5t-19 -212.5t-33 -178.5t-50 -138.5 t-70.5 -102.5t-95 -60t-122.5 -21.5q-28 0 -56 4zM1112 150h322q145 0 226 79.5t81 223.5q0 145 -81 225t-226 80h-322v-608z" />
<glyph unicode="&#x40a;" horiz-adv-x="2019" d="M166 0v1434h156v-535h673v535h156v-535h334q212 0 333 -124t121 -326q0 -200 -121.5 -324.5t-332.5 -124.5h-490v750h-673v-750h-156zM1151 150h330q143 0 222 78.5t79 220.5q0 143 -79 222t-222 79h-330v-600z" />
<glyph unicode="&#x40b;" horiz-adv-x="1394" d="M61 1284v150h881v-150h-455v-502q161 74 347 74q216 0 330 -103.5t114 -338.5v-414h-156v375q0 184 -75 257t-242 73q-158 0 -318 -80v-625h-157v1284h-269z" />
<glyph unicode="&#x40c;" horiz-adv-x="1200" d="M166 0v1434h156v-609l567 609h203l-621 -656l717 -778h-215l-651 715v-715h-156zM483 1563l170 274h193l-219 -274h-144z" />
<glyph unicode="&#x40e;" horiz-adv-x="1157" d="M39 1434h178l399 -854l332 854h168l-461 -1129q-133 -330 -340 -330q-100 0 -163 31v154q65 -33 137 -33q75 0 129 61.5t119 217.5zM274 1845h132q0 -83 46 -135.5t123 -52.5t125 53t48 135h133q-1 -140 -87 -226.5t-216 -86.5q-134 0 -218.5 85.5t-85.5 227.5z" />
<glyph unicode="&#x40f;" horiz-adv-x="1316" d="M166 0v1434h156v-1284h671v1284h158v-1434h-418v-319h-149v319h-418z" />
<glyph unicode="&#x410;" horiz-adv-x="1345" d="M45 0l551 1442h154l553 -1442h-168l-146 387h-633l-143 -387h-168zM410 532h524l-260 705z" />
<glyph unicode="&#x411;" horiz-adv-x="1236" d="M166 0v1434h864v-150h-708v-389h364q210 0 328.5 -122.5t118.5 -323.5q0 -202 -118.5 -325.5t-328.5 -123.5h-520zM322 150h350q145 0 224 78t79 221q0 140 -79.5 219.5t-223.5 79.5h-350v-598z" />
<glyph unicode="&#x412;" horiz-adv-x="1288" d="M166 0v1434h551q166 0 264 -93.5t98 -255.5q0 -112 -48 -190t-124 -111q123 -26 200 -127.5t77 -257.5q0 -181 -111.5 -290t-306.5 -109h-600zM322 150h417q128 0 201.5 71t73.5 199q0 127 -73.5 197.5t-201.5 70.5h-417v-538zM322 831h366q111 0 174.5 60t63.5 168 t-63.5 166.5t-174.5 58.5h-366v-453z" />
<glyph unicode="&#x413;" horiz-adv-x="1083" d="M166 0v1434h852v-150h-696v-1284h-156z" />
<glyph unicode="&#x414;" horiz-adv-x="1388" d="M29 150h116q110 184 158.5 428t48.5 679v177h793v-1284h186v-469h-147v319h-1008v-319h-147v469zM317 150h672v1134h-483q0 -406 -41.5 -676t-147.5 -458z" />
<glyph unicode="&#x415;" d="M166 0v1434h870v-150h-714v-442h585v-150h-585v-542h739v-150h-895z" />
<glyph unicode="&#x416;" horiz-adv-x="1804" d="M18 0l652 754l-572 680h195l530 -629v629h156v-629l530 629h199l-575 -680l653 -754h-205l-602 690v-690h-156v690l-600 -690h-205z" />
<glyph unicode="&#x417;" horiz-adv-x="1114" d="M74 82v162q84 -53 191 -85t208 -32q172 0 273.5 81.5t101.5 215.5q0 121 -90.5 197.5t-241.5 76.5h-154v150h175q124 0 193 61.5t69 169.5q0 110 -81.5 169t-213.5 59q-191 0 -373 -95v152q184 94 385 94q195 0 316.5 -99.5t121.5 -271.5q0 -67 -21 -123t-54.5 -92 t-67.5 -58.5t-68 -33.5q47 -14 91 -42t84.5 -71.5t65 -109t24.5 -143.5q0 -191 -136.5 -315t-369.5 -124q-133 0 -233.5 28t-194.5 79z" />
<glyph unicode="&#x418;" horiz-adv-x="1368" d="M166 0v1434h156v-1137l743 1137h137v-1434h-155v1141l-746 -1141h-135z" />
<glyph unicode="&#x419;" horiz-adv-x="1368" d="M166 0v1434h156v-1137l743 1137h137v-1434h-155v1141l-746 -1141h-135zM379 1845h131q0 -83 46.5 -135.5t123.5 -52.5t124.5 52.5t47.5 135.5h133q-1 -140 -87 -226.5t-216 -86.5q-134 0 -218 85.5t-85 227.5z" />
<glyph unicode="&#x41a;" horiz-adv-x="1200" d="M166 0v1434h156v-609l567 609h203l-621 -656l717 -778h-215l-651 715v-715h-156z" />
<glyph unicode="&#x41b;" horiz-adv-x="1294" d="M20 2v148q25 -5 58 -5q45 2 80.5 26.5t61 66t44 107.5t30 139.5t18 175.5t9.5 201.5t3 230.5l6 342h798v-1434h-155v1284h-492l-6 -323q-3 -141 -9 -249.5t-19 -212.5t-33 -178.5t-50 -138.5t-70.5 -102.5t-95 -60t-122.5 -21.5q-28 0 -56 4z" />
<glyph unicode="&#x41c;" horiz-adv-x="1511" d="M166 0v1434h160l432 -678l432 678h156v-1434h-156v1174l-387 -599h-94l-387 599v-1174h-156z" />
<glyph unicode="&#x41d;" horiz-adv-x="1353" d="M166 0v1434h156v-592h710v592h156v-1434h-156v692h-710v-692h-156z" />
<glyph unicode="&#x41e;" horiz-adv-x="1499" d="M119 717q0 214 79.5 383t223.5 263.5t328 94.5q138 0 255.5 -55.5t199.5 -153t128.5 -235t46.5 -297.5q0 -214 -79 -383t-223 -264t-328 -95t-328 95t-223.5 264t-79.5 383zM279 717q0 -259 132 -424.5t339 -165.5t339 165.5t132 424.5t-132 424.5t-339 165.5 t-339 -165.5t-132 -424.5z" />
<glyph unicode="&#x41f;" horiz-adv-x="1327" d="M166 0v1434h993v-1434h-155v1284h-682v-1284h-156z" />
<glyph unicode="&#x420;" horiz-adv-x="1181" d="M166 0v1434h530q191 0 298.5 -110.5t107.5 -291.5q0 -182 -107.5 -292.5t-298.5 -110.5h-374v-629h-156zM322 778h362q123 0 191.5 65.5t68.5 188.5q0 122 -68.5 187t-191.5 65h-362v-506z" />
<glyph unicode="&#x421;" horiz-adv-x="1224" d="M119 717q0 162 48.5 300t133.5 235t205 151.5t260 54.5q201 0 342 -96v-164q-148 109 -338 109q-214 0 -352.5 -165.5t-138.5 -424.5q0 -260 140.5 -425t358.5 -165q208 0 361 135v-166q-158 -121 -373 -121q-138 0 -258 54.5t-205.5 151t-134.5 235.5t-49 301z" />
<glyph unicode="&#x422;" horiz-adv-x="1126" d="M61 1284v150h1006v-150h-426v-1284h-156v1284h-424z" />
<glyph unicode="&#x423;" horiz-adv-x="1157" d="M39 1434h178l399 -854l332 854h168l-461 -1129q-133 -330 -340 -330q-100 0 -163 31v154q65 -33 137 -33q75 0 129 61.5t119 217.5z" />
<glyph unicode="&#x424;" horiz-adv-x="1626" d="M119 721q0 95 22.5 183t71 166.5t119 137t173.5 94t228 37.5v134h156v-134q125 -2 228 -37.5t173.5 -94t119 -137t71 -166.5t22.5 -183t-22.5 -182.5t-71 -166t-119 -136.5t-173.5 -93t-228 -37v-151h-156v151q-125 2 -228 37t-173.5 93t-119 136.5t-71 166t-22.5 182.5z M279 723q0 -72 15.5 -138.5t50.5 -128t86.5 -106.5t129 -72t172.5 -28v946q-95 -1 -172.5 -28.5t-129 -72.5t-86.5 -106t-50.5 -127.5t-15.5 -138.5zM889 250q95 1 172.5 28t129 72t86.5 106.5t50.5 128t15.5 138.5t-15.5 138.5t-50.5 127.5t-86.5 106t-129 72.5 t-172.5 28.5v-946z" />
<glyph unicode="&#x425;" horiz-adv-x="1265" d="M43 0l498 776l-418 658h184l328 -525l328 525h182l-420 -656l500 -778h-187l-405 645l-408 -645h-182z" />
<glyph unicode="&#x426;" horiz-adv-x="1394" d="M166 0v1434h156v-1284h673v1284h156v-1284h186v-469h-149v319h-1022z" />
<glyph unicode="&#x427;" horiz-adv-x="1230" d="M119 1008v426h155v-387q0 -184 74 -257t244 -73q184 0 317 78v639h156v-1434h-156v637q-176 -72 -350 -72q-214 0 -327 104.5t-113 338.5z" />
<glyph unicode="&#x428;" horiz-adv-x="1818" d="M166 0v1434h156v-1284h509v1284h156v-1284h510v1284h156v-1434h-1487z" />
<glyph unicode="&#x429;" horiz-adv-x="1896" d="M166 0v1434h156v-1284h509v1284h156v-1284h510v1284h156v-1284h186v-469h-147v319h-1526z" />
<glyph unicode="&#x42a;" horiz-adv-x="1413" d="M31 1284v150h493v-529h355q213 0 333.5 -125t120.5 -327t-121 -327.5t-333 -125.5h-510v1284h-338zM524 150h346q143 0 223.5 79.5t80.5 223.5t-80.5 224.5t-223.5 80.5h-346v-608z" />
<glyph unicode="&#x42b;" horiz-adv-x="1593" d="M166 0v1434h156v-529h311q214 0 335.5 -125t121.5 -327t-121.5 -327.5t-335.5 -125.5h-467zM322 150h303q145 0 225 79t80 224t-80 225t-225 80h-303v-608zM1272 0v1434h155v-1434h-155z" />
<glyph unicode="&#x42c;" horiz-adv-x="1210" d="M166 0v1434h156v-529h354q213 0 335 -125t122 -327t-122 -327.5t-335 -125.5h-510zM322 150h346q145 0 225 79t80 224t-80 225t-225 80h-346v-608z" />
<glyph unicode="&#x42d;" horiz-adv-x="1218" d="M86 92v166q152 -131 354 -131q203 0 341 147.5t155 384.5h-569v148h567q-25 223 -158.5 361.5t-326.5 138.5q-183 0 -334 -109v164q144 96 338 96q139 0 259 -54.5t205.5 -151t134 -235t48.5 -300.5t-49 -301t-134.5 -235.5t-205.5 -151t-258 -54.5q-218 0 -367 117z" />
<glyph unicode="&#x42e;" horiz-adv-x="1857" d="M166 0v1434h156v-629h245q23 291 183.5 472t400.5 181q171 0 305.5 -95t209.5 -264t75 -382t-75 -382t-209.5 -264.5t-305.5 -95.5q-162 0 -291 86t-205.5 241t-87.5 355h-245v-657h-156zM725 717q0 -272 119 -431t307 -159q190 0 309 159t119 431t-119 431t-309 159 q-188 0 -307 -159t-119 -431z" />
<glyph unicode="&#x42f;" horiz-adv-x="1308" d="M66 0l403 657q-138 27 -214.5 129.5t-76.5 253.5q0 178 106.5 286t295.5 108h563v-1434h-156v641h-346l-385 -641h-190zM336 1034q0 -119 66.5 -184.5t185.5 -65.5h399v500h-399q-119 0 -185.5 -66t-66.5 -184z" />
<glyph unicode="&#x430;" horiz-adv-x="1058" d="M72 305q0 99 53.5 173.5t136 111.5t178.5 37q94 0 157.5 -21.5t125.5 -60.5v94q0 240 -266 240q-75 0 -152.5 -24.5t-126.5 -59.5v145q118 78 311 78q176 0 280.5 -91t104.5 -274v-413q0 -57 21 -86t59 -29q35 0 52 12v-123q-33 -26 -97 -26q-63 0 -109 33t-63 98 q-126 -144 -321 -144q-143 0 -243.5 90t-100.5 240zM225 311q0 -98 67.5 -147t166.5 -49q83 0 151 35.5t113 91.5v182q-119 84 -246 84q-110 0 -181 -54.5t-71 -142.5z" />
<glyph unicode="&#x431;" horiz-adv-x="1091" d="M98 631q0 132 19.5 237t51 182t90 137t116.5 99.5t152.5 72.5t177 53.5t208.5 45.5v-149q-267 -61 -360 -95q-151 -54 -229 -162.5t-84 -306.5q60 89 153.5 144t212.5 55q175 0 289.5 -128.5t114.5 -332.5q0 -227 -123.5 -367.5t-317.5 -140.5q-227 0 -349 175.5 t-122 480.5zM248 594q1 -228 85.5 -352.5t235.5 -124.5q121 0 204 99t83 257q0 150 -80.5 242t-197.5 92q-107 0 -194.5 -61t-135.5 -152z" />
<glyph unicode="&#x432;" horiz-adv-x="1030" d="M145 0v993h463q127 0 195.5 -70t68.5 -182q0 -77 -30 -133.5t-82 -83.5q80 -25 126 -90.5t46 -163.5q0 -124 -77.5 -197t-217.5 -73h-492zM299 129h313q76 0 119 42t43 116q0 76 -42.5 117.5t-119.5 41.5h-313v-317zM299 573h272q72 0 112 39t40 107q0 70 -40 107.5 t-112 37.5h-272v-291z" />
<glyph unicode="&#x433;" horiz-adv-x="862" d="M145 0v993h660v-137h-506v-856h-154z" />
<glyph unicode="&#x434;" horiz-adv-x="1163" d="M37 137h110q76 120 109 319t33 537h661v-856h156v-428h-145v291h-777v-291h-147v428zM311 137h486v719h-369q0 -493 -117 -719z" />
<glyph unicode="&#x435;" horiz-adv-x="1017" d="M82 496q0 231 121.5 376.5t318.5 145.5q87 0 158 -31t117 -81.5t77 -119t44.5 -139.5t13.5 -147v-43h-694q12 -156 109.5 -249t254.5 -93q148 0 266 78v-136q-110 -82 -301 -82q-213 0 -349 143.5t-136 377.5zM240 580h536q-1 40 -9 79.5t-27.5 79.5t-48 70.5t-73 50 t-100.5 19.5q-120 0 -194 -87t-84 -212z" />
<glyph unicode="&#x436;" horiz-adv-x="1433" d="M55 0l453 532l-397 461h182l348 -411v411h154v-411l348 411h182l-399 -461l454 -532h-190l-395 471v-471h-154v471l-395 -471h-191z" />
<glyph unicode="&#x437;" horiz-adv-x="933" d="M109 43v145q150 -75 297 -75q122 0 196 48t74 134q0 78 -61.5 121t-163.5 43h-146v129h146q98 0 146 41t48 102q0 70 -65.5 109t-167.5 39q-158 0 -277 -66v141q131 64 311 64q153 0 255 -76t102 -194q0 -82 -41.5 -135.5t-106.5 -77.5q183 -60 183 -252 q0 -136 -112 -222t-298 -86q-189 0 -319 68z" />
<glyph unicode="&#x438;" horiz-adv-x="1107" d="M145 0v993h154v-739l520 739h144v-993h-154v741l-520 -741h-144z" />
<glyph unicode="&#x439;" horiz-adv-x="1107" d="M145 0v993h154v-739l520 739h144v-993h-154v741l-520 -741h-144zM256 1470h131q0 -84 45 -137t121 -53q73 0 118.5 53t45.5 137h133q-1 -142 -84.5 -228.5t-210.5 -86.5q-133 0 -215.5 85.5t-83.5 229.5z" />
<glyph unicode="&#x43a;" horiz-adv-x="991" d="M145 0v993h154v-399l389 399h199l-445 -448l506 -545h-209l-440 477v-477h-154z" />
<glyph unicode="&#x43b;" horiz-adv-x="1081" d="M37 2v139q20 -4 33 -4q102 0 144.5 135t47.5 410l4 311h670v-993h-154v856h-366l-6 -184q-3 -86 -7.5 -152t-15 -139t-25.5 -126.5t-39.5 -104.5t-57 -82.5t-78.5 -50.5t-103 -19q-31 0 -47 4z" />
<glyph unicode="&#x43c;" horiz-adv-x="1245" d="M145 0v993h150l328 -448l327 448h150v-993h-150v768l-299 -414h-59l-299 414v-768h-148z" />
<glyph unicode="&#x43d;" horiz-adv-x="1095" d="M145 0v993h154v-411h498v411h153v-993h-153v442h-498v-442h-154z" />
<glyph unicode="&#x43e;" horiz-adv-x="1105" d="M82 496q0 145 56.5 263t165 188.5t249.5 70.5t249.5 -70.5t165 -188.5t56.5 -263t-56.5 -263t-165 -188t-249.5 -70t-249.5 70t-165 188t-56.5 263zM236 496q0 -169 88 -275t229 -106t229 106t88 275t-88 276t-229 107t-229 -107t-88 -276z" />
<glyph unicode="&#x43f;" horiz-adv-x="1081" d="M145 0v993h791v-993h-154v856h-483v-856h-154z" />
<glyph unicode="&#x440;" horiz-adv-x="1134" d="M145 -410v1403h154v-129q112 154 317 154q191 0 313 -143t122 -377t-122 -378.5t-313 -144.5q-205 0 -317 154v-539h-154zM299 291q36 -77 113 -126.5t170 -49.5q136 0 225.5 107t89.5 276t-89.5 275t-225.5 106q-93 0 -170 -50t-113 -127v-411z" />
<glyph unicode="&#x441;" horiz-adv-x="929" d="M82 498q0 224 134.5 372t338.5 148q144 0 256 -60v-139q-63 33 -113.5 46.5t-115.5 13.5q-150 0 -248 -106.5t-98 -276.5q0 -168 99.5 -274.5t246.5 -106.5q74 0 128.5 15.5t114.5 51.5v-135q-123 -72 -272 -72q-203 0 -337 148t-134 375z" />
<glyph unicode="&#x442;" horiz-adv-x="847" d="M41 856v137h764v-137h-303v-856h-154v856h-307z" />
<glyph unicode="&#x443;" horiz-adv-x="997" d="M43 993h168l293 -772l280 772h166l-424 -1104q-60 -157 -135.5 -232t-185.5 -75q-94 0 -144 29v141q50 -31 121 -31q83 0 133 69t113 247z" />
<glyph unicode="&#x444;" horiz-adv-x="1308" d="M84 496q0 228 131.5 365.5t364.5 146.5v426h153v-426q233 -9 364.5 -146.5t131.5 -365.5q0 -226 -133 -366t-363 -146v-394h-153v394q-230 6 -363 146t-133 366zM233 496q0 -176 97 -277.5t250 -101.5v757q-153 -2 -250 -102t-97 -276zM733 117q153 0 249.5 101.5 t96.5 277.5t-96.5 276t-249.5 102v-757z" />
<glyph unicode="&#x445;" horiz-adv-x="1009" d="M53 0l359 522l-320 471h178l232 -348l233 348h174l-319 -467l360 -526h-178l-272 406l-273 -406h-174z" />
<glyph unicode="&#x446;" horiz-adv-x="1146" d="M145 0v993h154v-856h481v856h154v-856h156v-428h-150v291h-795z" />
<glyph unicode="&#x447;" horiz-adv-x="1007" d="M102 727v266h154v-256q0 -147 52.5 -205.5t176.5 -58.5q52 0 117.5 16.5t106.5 45.5v458h153v-993h-153v391q-114 -57 -252 -57q-176 0 -265.5 91t-89.5 302z" />
<glyph unicode="&#x448;" horiz-adv-x="1484" d="M145 0v993h154v-856h367v856h153v-856h367v856h153v-993h-1194z" />
<glyph unicode="&#x449;" horiz-adv-x="1552" d="M145 0v993h154v-856h367v856h153v-856h367v856h153v-856h158v-428h-149v291h-1203z" />
<glyph unicode="&#x44a;" horiz-adv-x="1144" d="M27 856v137h415v-329h279q157 0 248.5 -90.5t91.5 -241.5q0 -146 -88 -239t-246 -93h-438v856h-262zM442 135h263q94 0 147 52t53 145t-53 144.5t-147 51.5h-263v-393z" />
<glyph unicode="&#x44b;" horiz-adv-x="1310" d="M145 0v993h154v-329h238q156 0 248 -91t92 -241q0 -146 -88 -239t-246 -93h-398zM299 135h219q95 0 148 51.5t53 145.5t-53 145t-148 51h-219v-393zM1012 0v993h153v-993h-153z" />
<glyph unicode="&#x44c;" horiz-adv-x="1001" d="M145 0v993h154v-329h279q157 0 248.5 -90.5t91.5 -241.5q0 -146 -87 -239t-245 -93h-441zM299 135h262q95 0 148 51.5t53 145.5t-53 145t-148 51h-262v-393z" />
<glyph unicode="&#x44d;" horiz-adv-x="923" d="M106 45v135q108 -63 236 -63q136 0 231.5 85t110.5 232h-397v131h397q-18 145 -113 229.5t-229 84.5q-111 0 -223 -56v138q106 57 250 57q204 0 338.5 -148t134.5 -372q0 -227 -134 -375t-337 -148q-146 0 -265 70z" />
<glyph unicode="&#x44e;" horiz-adv-x="1445" d="M145 0v993h154v-424h195q21 199 138.5 324t293.5 125q194 0 316 -147.5t122 -374.5t-122 -374t-316 -147q-180 0 -298.5 127t-135.5 330h-193v-432h-154zM641 496q0 -166 78 -272.5t207 -106.5q130 0 207 106t77 273q0 168 -77 275.5t-207 107.5q-129 0 -207 -108 t-78 -275z" />
<glyph unicode="&#x44f;" horiz-adv-x="1030" d="M72 0l258 397q-101 22 -156 98t-55 193q0 135 80.5 220t236.5 85h449v-993h-154v369h-248l-233 -369h-178zM276 680q0 -86 47.5 -134t133.5 -48h274v366h-274q-86 0 -133.5 -48.5t-47.5 -135.5z" />
<glyph unicode="&#x451;" horiz-adv-x="1017" d="M82 496q0 231 121.5 376.5t318.5 145.5q87 0 158 -31t117 -81.5t77 -119t44.5 -139.5t13.5 -147v-43h-694q12 -156 109.5 -249t254.5 -93q148 0 266 78v-136q-110 -82 -301 -82q-213 0 -349 143.5t-136 377.5zM240 580h536q-1 40 -9 79.5t-27.5 79.5t-48 70.5t-73 50 t-100.5 19.5q-120 0 -194 -87t-84 -212zM242 1284q0 41 29.5 70.5t70.5 29.5t70.5 -29.5t29.5 -70.5t-29.5 -70.5t-70.5 -29.5t-70.5 29.5t-29.5 70.5zM592 1284q0 41 29.5 70.5t70.5 29.5t71 -29.5t30 -70.5t-30 -70.5t-71 -29.5t-70.5 29.5t-29.5 70.5z" />
<glyph unicode="&#x452;" horiz-adv-x="1150" d="M27 1116v131h182v187h153v-187h261v-131h-261v-362q54 64 141 108.5t195 44.5q157 0 240.5 -94.5t83.5 -261.5v-627q0 -171 -68.5 -256.5t-199.5 -85.5q-114 0 -170 39v141q63 -34 133 -34q76 0 113.5 42t37.5 142v602q0 246 -227 246q-82 0 -160.5 -46.5t-118.5 -113.5 v-600h-153v1116h-182z" />
<glyph unicode="&#x453;" horiz-adv-x="862" d="M145 0v993h660v-137h-506v-856h-154zM344 1178l170 276h193l-222 -276h-141z" />
<glyph unicode="&#x454;" horiz-adv-x="925" d="M80 498q0 224 134.5 372t338.5 148q144 0 250 -57v-138q-112 56 -223 56q-134 0 -229 -84.5t-113 -229.5h397v-131h-397q15 -147 110.5 -232t231.5 -85q127 0 235 63v-135q-119 -70 -264 -70q-203 0 -337 148t-134 375z" />
<glyph unicode="&#x455;" horiz-adv-x="905" d="M80 70v155q161 -110 348 -110q103 0 165 43t62 110q0 20 -6 37.5t-14 30t-25.5 24.5t-30.5 19.5t-40 17t-43 14t-51 14.5t-52 15q-75 21 -126 44.5t-92.5 58t-61 83t-19.5 113.5q0 126 95 202.5t264 76.5q197 0 315 -78v-147q-138 86 -305 86q-102 0 -156.5 -41 t-54.5 -103q0 -38 19 -66t55 -46.5t72.5 -30t88.5 -25.5q11 -3 17 -4q72 -19 123.5 -41.5t96 -56.5t67 -84t22.5 -115q0 -132 -104.5 -211.5t-268.5 -79.5q-108 0 -204 28t-156 67z" />
<glyph unicode="&#x456;" horiz-adv-x="479" d="M125 1323q0 46 33.5 79.5t79.5 33.5t79 -33.5t33 -79.5t-33 -79.5t-79 -33.5t-79.5 33.5t-33.5 79.5zM162 0v993h153v-993h-153z" />
<glyph unicode="&#x457;" horiz-adv-x="483" d="M-35 1321q0 41 30 70.5t71 29.5t70.5 -29.5t29.5 -70.5t-29.5 -70.5t-70.5 -29.5t-71 29.5t-30 70.5zM164 0v993h155v-993h-155zM315 1321q0 41 30 70.5t71 29.5t70.5 -29.5t29.5 -70.5t-29.5 -70.5t-70.5 -29.5t-71 29.5t-30 70.5z" />
<glyph unicode="&#x458;" horiz-adv-x="481" d="M-133 -244q65 -35 133 -35q76 0 114 42.5t38 142.5v1087h153v-1069q0 -171 -68.5 -256.5t-199.5 -85.5q-114 0 -170 39v135zM115 1323q0 46 33 79.5t79 33.5t79.5 -33.5t33.5 -79.5t-33.5 -79.5t-79.5 -33.5t-79 33.5t-33 79.5z" />
<glyph unicode="&#x459;" horiz-adv-x="1603" d="M37 2v139q20 -4 33 -4q53 0 89.5 36t58.5 108.5t32 169.5t12 231l4 311h658v-329h258q156 0 248 -91t92 -241q0 -146 -88 -239t-246 -93h-418v854l-354 2l-6 -184q-3 -86 -7.5 -152t-15 -139t-25.5 -126.5t-39.5 -104.5t-57 -82.5t-78.5 -50.5t-103 -19q-31 0 -47 4z M924 135h241q94 0 147.5 52t53.5 145t-53.5 144.5t-147.5 51.5h-241v-393z" />
<glyph unicode="&#x45a;" horiz-adv-x="1597" d="M145 0v993h154v-401h473v401h154v-346h248q157 0 248 -88.5t91 -234.5q0 -143 -87.5 -233.5t-245.5 -90.5h-408v455h-473v-455h-154zM926 135h231q95 0 149 50t54 139t-53.5 138.5t-149.5 49.5h-231v-377z" />
<glyph unicode="&#x45b;" horiz-adv-x="1153" d="M27 1116v131h182v187h153v-187h261v-131h-261v-362q54 64 141 108.5t195 44.5q157 0 240.5 -94.5t83.5 -261.5v-551h-154v514q0 246 -227 246q-82 0 -160.5 -46.5t-118.5 -113.5v-600h-153v1116h-182z" />
<glyph unicode="&#x45c;" horiz-adv-x="991" d="M145 0v993h154v-399l389 399h199l-445 -448l506 -545h-209l-440 477v-477h-154zM399 1178l170 276h193l-221 -276h-142z" />
<glyph unicode="&#x45e;" horiz-adv-x="995" d="M43 993h168l293 -772l280 772h166l-424 -1104q-60 -157 -135.5 -232t-185.5 -75q-94 0 -144 29v141q50 -31 121 -31q83 0 133 69t113 247zM205 1470h131q0 -84 45 -137t121 -53q73 0 118.5 53t45.5 137h133q-1 -142 -84.5 -228.5t-210.5 -86.5q-133 0 -215.5 85.5 t-83.5 229.5z" />
<glyph unicode="&#x45f;" horiz-adv-x="1079" d="M145 0v993h154v-856h481v856h154v-993h-320v-291h-151v291h-318z" />
<glyph unicode="&#x490;" horiz-adv-x="1081" d="M166 0v1434h706v295h144v-445h-694v-1284h-156z" />
<glyph unicode="&#x491;" horiz-adv-x="862" d="M145 0v993h517v267h143v-404h-506v-856h-154z" />
<glyph unicode="&#x492;" horiz-adv-x="1191" d="M68 653v142h204v639h852v-150h-696v-489h453v-142h-453v-653h-156v653h-204z" />
<glyph unicode="&#x493;" horiz-adv-x="923" d="M37 412v118h158v463h659v-137h-506v-326h340v-118h-340v-412h-153v412h-158z" />
<glyph unicode="&#x49a;" horiz-adv-x="1239" d="M166 0v1434h156v-609l567 609h203l-621 -656l580 -628h137v-469h-150v319h-65l-651 715v-715h-156z" />
<glyph unicode="&#x49b;" horiz-adv-x="989" d="M145 0v993h154v-399l389 399h199l-445 -448l379 -408h131v-428h-149v291h-64l-440 477v-477h-154z" />
<glyph unicode="&#x4a2;" horiz-adv-x="1431" d="M166 0v1434h156v-592h710v592h156v-1284h186v-469h-149v319h-193v692h-710v-692h-156z" />
<glyph unicode="&#x4a3;" horiz-adv-x="1163" d="M145 0v993h154v-411h498v411h153v-856h156v-428h-150v291h-159v442h-498v-442h-154z" />
<glyph unicode="&#x4ae;" horiz-adv-x="1193" d="M35 1434h182l383 -629l383 629h178l-469 -744h293v-141h-311v-549h-156v549h-309v141h287z" />
<glyph unicode="&#x4af;" horiz-adv-x="1015" d="M43 993h170l299 -835l299 835h164l-389 -1026v-377h-154v377z" />
<glyph unicode="&#x4b0;" horiz-adv-x="1193" d="M35 1434h182l383 -629l383 629h178l-487 -775v-659h-156v655z" />
<glyph unicode="&#x4b1;" horiz-adv-x="1015" d="M43 993h170l299 -835l299 835h164l-359 -942h236v-119h-266v-342h-154v342h-260v119h227z" />
<glyph unicode="&#x4ba;" horiz-adv-x="1230" d="M166 0v1434h158v-652q161 74 346 74q216 0 330 -103.5t114 -338.5v-414h-156v375q0 184 -75 257t-242 73q-157 0 -317 -80v-625h-158z" />
<glyph unicode="&#x4bb;" horiz-adv-x="1107" d="M145 0v1434h154v-570q55 64 141.5 109t194.5 45q157 0 240 -94.5t83 -261.5v-662h-153v625q0 245 -227 245q-83 0 -161.5 -46t-117.5 -113v-711h-154z" />
<glyph unicode="&#x4d8;" horiz-adv-x="1441" d="M111 754v53h1048q-15 216 -154 358t-346 142q-102 0 -203 -29.5t-173 -77.5v158q73 48 180 74t221 26q134 0 251.5 -53.5t203 -149t135 -237t49.5 -309.5q0 -211 -76 -377.5t-216.5 -261.5t-321.5 -95q-269 0 -433.5 207t-164.5 572zM268 657q9 -238 131 -384t310 -146 q194 0 321 148.5t133 381.5h-895z" />
<glyph unicode="&#x4d9;" horiz-adv-x="1015" d="M76 502v63h704q-17 151 -103.5 232.5t-234.5 81.5q-151 0 -284 -95v140q48 38 135 66t178 28q198 0 330.5 -145.5t132.5 -376.5q0 -144 -52 -261.5t-154 -188.5t-236 -71q-100 0 -180 42.5t-131 116t-78 167.5t-27 201zM229 434q3 -148 72 -233.5t197 -85.5 q127 0 202 87.5t80 231.5h-551z" />
<glyph unicode="&#x4e8;" horiz-adv-x="1499" d="M119 717q0 214 79.5 383t223.5 263.5t328 94.5q138 0 255.5 -55.5t199.5 -153t128.5 -235t46.5 -297.5q0 -214 -79 -383t-223 -264t-328 -95t-328 95t-223.5 264t-79.5 383zM279 659q14 -236 144.5 -384t326.5 -148q195 0 325 148t144 384h-940zM283 807h931 q-22 224 -149 362t-315 138t-316.5 -138t-150.5 -362z" />
<glyph unicode="&#x4e9;" horiz-adv-x="1105" d="M82 496q0 145 56.5 263t165 188.5t249.5 70.5t249.5 -70.5t165 -188.5t56.5 -263t-56.5 -263t-165 -188t-249.5 -70t-249.5 70t-165 188t-56.5 263zM238 436q14 -145 100 -233t215 -88q128 0 214 88t99 233h-628zM240 563h626q-17 142 -102.5 229t-210.5 87 q-127 0 -212.5 -87t-100.5 -229z" />
<glyph unicode="&#x1e02;" horiz-adv-x="1288" d="M166 0v1434h551q166 0 264 -93.5t98 -255.5q0 -112 -48 -190t-124 -111q123 -26 200 -127.5t77 -257.5q0 -181 -111.5 -290t-306.5 -109h-600zM322 150h417q128 0 201.5 71t73.5 199q0 127 -73.5 197.5t-201.5 70.5h-417v-538zM322 831h366q111 0 174.5 60t63.5 168 t-63.5 166.5t-174.5 58.5h-366v-453zM508 1696q0 42 27 72t69 30q43 0 69.5 -29.5t26.5 -72.5q0 -44 -26.5 -73.5t-69.5 -29.5q-42 0 -69 30t-27 73z" />
<glyph unicode="&#x1e03;" horiz-adv-x="1134" d="M145 0v1434h154v-570q112 154 317 154q191 0 313 -144t122 -378t-122 -377.5t-313 -143.5q-205 0 -317 154v-129h-154zM299 291q36 -77 113 -126.5t170 -49.5q136 0 225.5 106t89.5 275t-89.5 276t-225.5 107q-93 0 -170 -50t-113 -127v-411zM485 1696q0 42 27.5 72 t69.5 30q43 0 69.5 -29.5t26.5 -72.5q0 -44 -26.5 -73.5t-69.5 -29.5q-42 0 -69.5 30t-27.5 73z" />
<glyph unicode="&#x1e0a;" horiz-adv-x="1384" d="M166 0v1434h422q302 0 491 -199t189 -518t-189 -518t-491 -199h-422zM322 150h251q249 0 392 153.5t143 413.5t-143 413.5t-392 153.5h-251v-1134zM518 1696q0 42 27 72t69 30q43 0 70 -29.5t27 -72.5q0 -44 -27 -73.5t-70 -29.5q-42 0 -69 30t-27 73z" />
<glyph unicode="&#x1e0b;" horiz-adv-x="1134" d="M84 496q0 234 121.5 378t312.5 144q206 0 318 -154v570h153v-1434h-153v129q-112 -154 -318 -154q-191 0 -312.5 143.5t-121.5 377.5zM238 496q0 -169 89.5 -275t225.5 -106q93 0 170 49.5t113 126.5v411q-36 77 -113 127t-170 50q-136 0 -225.5 -107t-89.5 -276z M477 1696q0 42 27 72t69 30q43 0 70 -29.5t27 -72.5q0 -44 -27 -73.5t-70 -29.5q-42 0 -69 30t-27 73z" />
<glyph unicode="&#x1e1e;" horiz-adv-x="1107" d="M166 0v1434h866v-150h-710v-461h573v-147h-573v-676h-156zM504 1696q0 42 27 72t69 30q43 0 69.5 -29.5t26.5 -72.5q0 -44 -26.5 -73.5t-69.5 -29.5q-42 0 -69 30t-27 73z" />
<glyph unicode="&#x1e1f;" horiz-adv-x="706" d="M45 856v137h166v137q0 149 64 234.5t198 85.5q103 0 186 -35v-135q-86 33 -143 33q-151 0 -151 -178v-142h294v-137h-294v-856h-154v856h-166zM344 1696q0 42 27 72t69 30q43 0 70 -29.5t27 -72.5q0 -44 -27 -73.5t-70 -29.5q-42 0 -69 30t-27 73z" />
<glyph unicode="&#x1e40;" horiz-adv-x="1511" d="M166 0v1434h160l432 -678l432 678h156v-1434h-156v1174l-387 -599h-94l-387 599v-1174h-156zM659 1696q0 42 27.5 72t69.5 30q43 0 69.5 -29.5t26.5 -72.5q0 -44 -26.5 -73.5t-69.5 -29.5q-42 0 -69.5 30t-27.5 73z" />
<glyph unicode="&#x1e41;" horiz-adv-x="1638" d="M145 0v993h154v-125q51 65 129.5 107.5t175.5 42.5q101 0 170.5 -44.5t102.5 -127.5q129 172 331 172q147 0 225 -92t78 -256v-670h-153v633q0 69 -19 118.5t-51 74t-64.5 34.5t-68.5 10q-77 0 -143.5 -44t-108.5 -115q2 -35 2 -109v-602h-153v633q0 69 -19 118.5t-51 74 t-64.5 34.5t-68.5 10q-75 0 -142 -43t-108 -112v-715h-154zM727 1323q0 43 29.5 72.5t72.5 29.5t73 -29.5t30 -72.5t-30 -72.5t-73 -29.5t-72.5 29.5t-29.5 72.5z" />
<glyph unicode="&#x1e56;" horiz-adv-x="1181" d="M166 0v1434h530q191 0 298.5 -110.5t107.5 -291.5q0 -182 -107.5 -292.5t-298.5 -110.5h-374v-629h-156zM322 778h362q123 0 191.5 65.5t68.5 188.5q0 122 -68.5 187t-191.5 65h-362v-506zM498 1696q0 42 27 72t69 30q43 0 69.5 -29.5t26.5 -72.5q0 -44 -26.5 -73.5 t-69.5 -29.5q-42 0 -69 30t-27 73z" />
<glyph unicode="&#x1e57;" horiz-adv-x="1134" d="M145 -410v1403h154v-129q112 154 317 154q191 0 313 -143t122 -377t-122 -378.5t-313 -144.5q-205 0 -317 154v-539h-154zM299 291q36 -77 113 -126.5t170 -49.5q136 0 225.5 107t89.5 276t-89.5 275t-225.5 106q-93 0 -170 -50t-113 -127v-411zM483 1323q0 43 30 72.5 t73 29.5t72.5 -29.5t29.5 -72.5t-29.5 -72.5t-72.5 -29.5t-73 29.5t-30 72.5z" />
<glyph unicode="&#x1e60;" horiz-adv-x="1116" d="M86 119v164q78 -70 189.5 -113t246.5 -43q142 0 238 70t96 186q0 51 -17.5 92t-43.5 69t-71 53.5t-86 41t-103 35.5q-94 31 -140 48.5t-113.5 53.5t-99 73.5t-56 98t-24.5 137.5q0 164 117.5 268.5t323.5 104.5q243 0 393 -110v-162q-77 56 -180.5 88.5t-204.5 32.5 q-142 0 -215.5 -63t-73.5 -157q0 -100 76.5 -155t286.5 -121q64 -20 115.5 -41.5t105 -57.5t89 -79t58.5 -106t23 -138q0 -130 -65.5 -225.5t-172.5 -142t-239 -46.5q-139 0 -267 43t-186 101zM438 1696q0 42 27.5 72t69.5 30q43 0 69.5 -29.5t26.5 -72.5q0 -44 -26.5 -73.5 t-69.5 -29.5q-42 0 -69.5 30t-27.5 73z" />
<glyph unicode="&#x1e61;" horiz-adv-x="905" d="M82 70v155q161 -110 348 -110q103 0 165 43t62 110q0 20 -6 37.5t-14 30t-25.5 24.5t-30.5 19.5t-40 17t-43 14t-51 14.5t-52 15q-75 21 -126 44.5t-92.5 58t-61 83t-19.5 113.5q0 126 95 202.5t264 76.5q197 0 315 -78v-147q-138 86 -305 86q-102 0 -156.5 -41 t-54.5 -103q0 -38 19 -66t55 -46.5t72.5 -30t88.5 -25.5q11 -3 17 -4q72 -19 123.5 -41.5t96 -56.5t67 -84t22.5 -115q0 -132 -104.5 -211.5t-268.5 -79.5q-108 0 -204 28t-156 67zM334 1323q0 43 29.5 72.5t72.5 29.5t73 -29.5t30 -72.5t-30 -72.5t-73 -29.5t-72.5 29.5 t-29.5 72.5z" />
<glyph unicode="&#x1e6a;" horiz-adv-x="1126" d="M61 1284v150h1006v-150h-426v-1284h-156v1284h-424zM467 1696q0 42 27 72t69 30q43 0 69.5 -29.5t26.5 -72.5q0 -44 -26.5 -73.5t-69.5 -29.5q-42 0 -69 30t-27 73z" />
<glyph unicode="&#x1e6b;" horiz-adv-x="770" d="M45 856v137h197v303h153v-303h291v-137h-291v-559q0 -93 37 -133.5t111 -40.5q65 0 133 37v-142q-64 -43 -180 -43q-120 0 -187 77t-67 229v575h-197zM217 1511q0 43 29.5 73t72.5 30t73 -30t30 -73t-30 -72.5t-73 -29.5t-72.5 29.5t-29.5 72.5z" />
<glyph unicode="&#x1e80;" horiz-adv-x="1884" d="M61 1434h177l325 -1178l318 1180h127l315 -1180l330 1178h172l-430 -1442h-140l-311 1165l-313 -1165h-142zM653 1837h193l168 -274h-142z" />
<glyph unicode="&#x1e81;" horiz-adv-x="1476" d="M59 993h156l227 -762l224 762h127l225 -762l225 762h158l-309 -1001h-138l-227 764l-227 -764h-133zM436 1454h191l172 -276h-144z" />
<glyph unicode="&#x1e82;" horiz-adv-x="1884" d="M61 1434h177l325 -1178l318 1180h127l315 -1180l330 1178h172l-430 -1442h-140l-311 1165l-313 -1165h-142zM872 1563l170 274h193l-219 -274h-144z" />
<glyph unicode="&#x1e83;" horiz-adv-x="1476" d="M59 993h156l227 -762l224 762h127l225 -762l225 762h158l-309 -1001h-138l-227 764l-227 -764h-133zM664 1178l170 276h192l-221 -276h-141z" />
<glyph unicode="&#x1e84;" horiz-adv-x="1884" d="M61 1434h177l325 -1178l318 1180h127l315 -1180l330 1178h172l-430 -1442h-140l-311 1165l-313 -1165h-142zM666 1694q0 41 29.5 70.5t70.5 29.5t70.5 -29.5t29.5 -70.5t-29.5 -71t-70.5 -30t-70.5 30t-29.5 71zM1022 1694q0 41 29.5 70.5t70.5 29.5t71 -29.5t30 -70.5 t-30 -71t-71 -30t-70.5 30t-29.5 71z" />
<glyph unicode="&#x1e85;" horiz-adv-x="1476" d="M59 993h156l227 -762l224 762h127l225 -762l225 762h158l-309 -1001h-138l-227 764l-227 -764h-133zM455 1321q0 41 29.5 70.5t70.5 29.5t70.5 -29.5t29.5 -70.5t-29.5 -70.5t-70.5 -29.5t-70.5 29.5t-29.5 70.5zM805 1321q0 41 29.5 70.5t70.5 29.5t71 -29.5t30 -70.5 t-30 -70.5t-71 -29.5t-70.5 29.5t-29.5 70.5z" />
<glyph unicode="&#x1ef2;" horiz-adv-x="1193" d="M35 1434h182l383 -629l383 629h178l-487 -775v-659h-156v655zM332 1837h192l168 -274h-141z" />
<glyph unicode="&#x1ef3;" horiz-adv-x="997" d="M43 993h168l293 -772l280 772h166l-424 -1104q-60 -157 -135.5 -232t-185.5 -75q-94 0 -144 29v141q50 -31 121 -31q83 0 133 69t113 247zM250 1454h190l172 -276h-143z" />
<glyph unicode="&#x2000;" horiz-adv-x="949" />
<glyph unicode="&#x2001;" horiz-adv-x="1898" />
<glyph unicode="&#x2002;" horiz-adv-x="949" />
<glyph unicode="&#x2003;" horiz-adv-x="1898" />
<glyph unicode="&#x2004;" horiz-adv-x="632" />
<glyph unicode="&#x2005;" horiz-adv-x="474" />
<glyph unicode="&#x2006;" horiz-adv-x="316" />
<glyph unicode="&#x2007;" horiz-adv-x="316" />
<glyph unicode="&#x2008;" horiz-adv-x="237" />
<glyph unicode="&#x2009;" horiz-adv-x="379" />
<glyph unicode="&#x200a;" horiz-adv-x="105" />
<glyph unicode="&#x2010;" horiz-adv-x="872" d="M180 485v146h512v-146h-512z" />
<glyph unicode="&#x2011;" horiz-adv-x="872" d="M180 485v146h512v-146h-512z" />
<glyph unicode="&#x2012;" horiz-adv-x="872" d="M180 485v146h512v-146h-512z" />
<glyph unicode="&#x2013;" horiz-adv-x="1323" d="M180 485v146h963v-146h-963z" />
<glyph unicode="&#x2014;" horiz-adv-x="1626" d="M180 485v146h1266v-146h-1266z" />
<glyph unicode="&#x2015;" horiz-adv-x="1329" d="M180 485v146h969v-146h-969z" />
<glyph unicode="&#x2018;" horiz-adv-x="393" d="M27 903l196 531h123l-143 -531h-176z" />
<glyph unicode="&#x2019;" horiz-adv-x="393" d="M37 903l143 531h176l-196 -531h-123z" />
<glyph unicode="&#x201a;" horiz-adv-x="432" d="M31 -311l143 530h176l-196 -530h-123z" />
<glyph unicode="&#x201c;" horiz-adv-x="688" d="M27 903l196 531h123l-143 -531h-176zM324 903l196 531h123l-143 -531h-176z" />
<glyph unicode="&#x201d;" horiz-adv-x="688" d="M37 903l143 531h176l-196 -531h-123zM332 903l143 531h176l-196 -531h-123z" />
<glyph unicode="&#x201e;" horiz-adv-x="727" d="M31 -311l143 530h176l-196 -530h-123zM326 -311l143 530h176l-196 -530h-123z" />
<glyph unicode="&#x2020;" horiz-adv-x="921" d="M86 858v135h307v441h133v-441h308v-135h-308v-858h-133v858h-307z" />
<glyph unicode="&#x2021;" horiz-adv-x="921" d="M86 406v135h307v317h-307v135h307v441h133v-441h308v-135h-308v-317h308v-135h-308v-406h-133v406h-307z" />
<glyph unicode="&#x2022;" horiz-adv-x="782" d="M154 784q0 97 69 166.5t166 69.5q99 0 169.5 -69.5t70.5 -166.5q0 -96 -70.5 -165.5t-169.5 -69.5q-96 0 -165.5 69.5t-69.5 165.5z" />
<glyph unicode="&#x2026;" horiz-adv-x="1232" d="M106 102q0 47 34 81t81 34t81 -34t34 -81t-34 -80.5t-81 -33.5t-81 33.5t-34 80.5zM502 102q0 47 33.5 81t80.5 34t81 -34t34 -81t-34 -80.5t-81 -33.5t-80.5 33.5t-33.5 80.5zM897 102q0 47 34 81t81 34t80.5 -34t33.5 -81t-33.5 -80.5t-80.5 -33.5t-81 33.5t-34 80.5z " />
<glyph unicode="&#x202f;" horiz-adv-x="379" />
<glyph unicode="&#x2030;" horiz-adv-x="2148" d="M70 1114q0 146 87 245t218 99q132 0 219.5 -99t87.5 -245q0 -147 -87 -246.5t-220 -99.5q-131 0 -218 99.5t-87 246.5zM182 1114q0 -102 54 -166.5t139 -64.5t138.5 64t53.5 167q0 101 -53.5 165t-138.5 64t-139 -64t-54 -165zM303 0l731 1434h121l-731 -1434h-121z M774 319q0 147 87 247t220 100q131 0 218 -100t87 -247q0 -146 -87 -245t-218 -99q-132 0 -219.5 99t-87.5 245zM889 319q0 -101 53.5 -165t138.5 -64t139 64t54 165q0 103 -54 167.5t-139 64.5t-138.5 -64.5t-53.5 -167.5zM1468 319q0 147 87.5 247t218.5 100 q133 0 220 -100t87 -247q0 -146 -87.5 -245t-219.5 -99q-131 0 -218.5 99t-87.5 245zM1581 319q0 -101 54 -165t139 -64q86 0 139 63.5t53 165.5q0 103 -53 167.5t-139 64.5q-85 0 -139 -64.5t-54 -167.5z" />
<glyph unicode="&#x2039;" horiz-adv-x="569" d="M72 455v84l266 372h160l-293 -415l293 -414h-160z" />
<glyph unicode="&#x203a;" horiz-adv-x="565" d="M72 82l288 414l-288 415h157l265 -372v-84l-265 -373h-157z" />
<glyph unicode="&#x2044;" horiz-adv-x="356" d="M-256 0l739 1434h129l-737 -1434h-131z" />
<glyph unicode="&#x205f;" horiz-adv-x="474" />
<glyph unicode="&#x20a3;" horiz-adv-x="1159" d="M20 297v131h199v1006h864v-148h-706v-463h571v-145h-571v-250h301v-131h-301v-297h-158v297h-199z" />
<glyph unicode="&#x20a4;" horiz-adv-x="1050" d="M104 -2v145h37q95 0 95 127v174h-132v129h132v191h-132v131h132v98q0 219 111 341t306 122q168 0 289 -82v-155q-116 86 -264 86q-141 0 -214 -85t-73 -251v-74h436v-131h-436v-191h436v-129h-436v-172q0 -90 -45 -129h612v-145h-854z" />
<glyph unicode="&#x20a7;" horiz-adv-x="1294" d="M25 965v135h153v334h531q171 0 275.5 -90.5t125.5 -243.5h141v-135h-141q-21 -154 -125.5 -245t-275.5 -91h-375v-629h-156v965h-153zM334 778h362q123 0 191.5 65.5t68.5 188.5q0 122 -68.5 187t-191.5 65h-362v-506z" />
<glyph unicode="&#x20ac;" horiz-adv-x="1212" d="M70 518v131h139q-2 23 -2 68q0 59 6 117h-143v131h166q56 227 205.5 360t355.5 133q178 0 303 -92v-154q-66 52 -136.5 75.5t-162.5 23.5q-143 0 -248 -93t-147 -253h423v-131h-450q-8 -54 -8 -107q0 -42 4 -78h454v-131h-436q35 -182 146.5 -288.5t267.5 -106.5 q187 0 321 125v-164q-136 -109 -331 -109q-215 0 -370 147t-202 396h-155z" />
<glyph unicode="&#x20b4;" horiz-adv-x="1079" d="M104 545v127h873v-127h-510q-61 -37 -99 -93t-38 -126q0 -97 69.5 -149t206.5 -52q75 0 159.5 21.5t145.5 56.5v-152q-143 -76 -331 -76q-186 0 -300 86t-114 238q0 142 108 246h-170zM104 807v127h553q97 74 97 184q0 93 -65 143t-195 50q-154 0 -291 -72v150 q56 30 139.5 49.5t171.5 19.5q179 0 292.5 -85.5t113.5 -233.5q0 -127 -82 -205h139v-127h-873z" />
<glyph unicode="&#x20b8;" horiz-adv-x="1046" d="M61 969v149h924v-149h-385v-969h-156v969h-383zM61 1303v131h924v-131h-924z" />
<glyph unicode="&#x20bd;" horiz-adv-x="1228" d="M41 309v129h178v189h-178v129h178v678h506q191 0 299.5 -110.5t108.5 -291.5t-108.5 -293t-299.5 -112h-350v-189h510v-129h-510v-309h-156v309h-178zM375 756h338q125 0 194.5 68.5t69.5 193.5q0 129 -69.5 199.5t-194.5 70.5h-338v-532z" />
<glyph unicode="&#x2122;" horiz-adv-x="1226" d="M39 1348v86h453v-86h-185v-547h-90v547h-178zM590 801v633h84l182 -273l180 273h86v-633h-90v475l-151 -223h-47l-156 225v-477h-88z" />
<glyph unicode="&#x2202;" horiz-adv-x="1112" d="M82 422q0 215 120.5 362.5t311.5 147.5q81 0 146.5 -27.5t106 -65.5t77.5 -94q0 70 -9.5 141t-35 149.5t-65 138t-105.5 98.5t-150 39q-132 0 -250 -78v133q113 84 269 84q152 0 264.5 -89.5t171.5 -251.5t59 -376q0 -92 -11.5 -180t-36 -174.5t-65.5 -158.5t-96 -127.5 t-132 -86.5t-169 -31q-177 0 -289 122.5t-112 324.5zM229 436q0 -141 74 -230t191 -89q145 0 234 123.5t110 324.5q-35 106 -114 166t-183 60q-131 0 -221.5 -98.5t-90.5 -256.5z" />
<glyph unicode="&#x2206;" horiz-adv-x="1345" d="M45 0l551 1434h152l552 -1434h-1255zM270 150h803l-401 1079z" />
<glyph unicode="&#x220f;" horiz-adv-x="1357" d="M100 1300v134h1157v-134h-208v-1564h-140v1564h-463v-1564h-139v1564h-207z" />
<glyph unicode="&#x2211;" horiz-adv-x="1083" d="M100 0v115l447 602l-443 602v115h891v-150h-669l389 -532v-70l-398 -532h687v-150h-904z" />
<glyph unicode="&#x221a;" horiz-adv-x="1224" d="M-8 852v131h336l307 -797l416 1248h139l-490 -1434h-131l-331 852h-246z" />
<glyph unicode="&#x221e;" horiz-adv-x="1425" d="M92 639q0 143 83.5 241.5t215.5 98.5q182 0 320 -240q138 240 319 240q132 0 215.5 -98.5t83.5 -241.5q0 -144 -83.5 -243t-215.5 -99q-180 0 -319 242q-139 -242 -320 -242q-132 0 -215.5 99t-83.5 243zM215 639q0 -40 11.5 -78.5t33 -71.5t58.5 -53t83 -20 q76 0 132.5 59t111.5 164q-26 49 -49 84t-53.5 68.5t-66 51t-75.5 17.5q-90 0 -138 -67t-48 -154zM776 639q55 -105 111.5 -164t132.5 -59q46 0 83 20t58.5 53t33 71.5t11.5 78.5q0 87 -48 154t-138 67q-40 0 -75.5 -17.5t-66 -51t-53.5 -68.5t-49 -84z" />
<glyph unicode="&#x222b;" horiz-adv-x="890" d="M-135 -248q59 -33 129 -33q95 0 152 70t77 219l144 1047q25 181 112.5 288t241.5 107q90 0 158 -35v-135q-59 33 -129 33q-191 0 -230 -289l-143 -1047q-25 -181 -112.5 -288t-241.5 -107q-90 0 -158 35v135z" />
<glyph unicode="&#x2248;" horiz-adv-x="1177" d="M121 307v146q28 39 90 64.5t131 25.5q60 0 127 -18.5t118 -40t118.5 -40t128.5 -18.5q139 0 221 98v-147q-27 -39 -89 -64.5t-132 -25.5q-61 0 -129 18.5t-119.5 41t-118 41t-125.5 18.5q-138 0 -221 -99zM121 776v148q28 39 90 64.5t131 25.5q60 0 127 -18.5t118 -40 t118.5 -40t128.5 -18.5q139 0 221 98v-149q-26 -38 -88.5 -63t-132.5 -25q-61 0 -129 18t-119.5 40t-118 40t-125.5 18q-139 0 -221 -98z" />
<glyph unicode="&#x2260;" horiz-adv-x="1110" d="M121 362v146h293l145 323h-438v144h508l104 233h141l-106 -233h219v-144h-287l-145 -323h432v-146h-502l-110 -243h-139l110 243h-225z" />
<glyph unicode="&#x2264;" horiz-adv-x="1110" d="M121 104v144h864v-144h-864zM121 733v139l866 383v-159l-702 -293l702 -293v-160z" />
<glyph unicode="&#x2265;" horiz-adv-x="1110" d="M121 350v160l702 293l-702 293v159l866 -383v-139zM123 104v144h864v-144h-864z" />
<glyph unicode="&#x25ca;" horiz-adv-x="1001" d="M82 717l352 717h133l353 -717l-353 -717h-133zM227 717l275 -576l274 576l-274 575z" />
<glyph unicode="&#x25fc;" horiz-adv-x="993" d="M0 0v993h993v-993h-993z" />
</font>
</defs>
</svg>
