<svg width="20" height="20" viewBox="0 0 20 20" fill="none" xmlns="http://www.w3.org/2000/svg">
<path d="M2 5C2 3.89543 2.89543 3 4 3H6.79999C7.64868 3 8.46261 3.33714 9.06272 3.93726C9.66284 4.53737 9.99998 5.3513 9.99998 6.19999V17.4C9.99998 16.7634 9.74712 16.153 9.29704 15.7029C8.84695 15.2528 8.2365 15 7.59999 15H4C2.89543 15 2 14.1045 2 13V5Z" stroke="#F6F6F6" stroke-linecap="round" stroke-linejoin="round"/>
<path d="M18 5C18 3.89543 17.1046 3 16 3H13.2C12.3513 3 11.5374 3.33714 10.9373 3.93726C10.3371 4.53737 10 5.3513 10 6.19999V17.4C10 16.7634 10.2529 16.153 10.7029 15.7029C11.153 15.2528 11.7635 15 12.4 15H16C17.1046 15 18 14.1045 18 13V5Z" stroke="#F6F6F6" stroke-linecap="round" stroke-linejoin="round"/>
</svg>
